<?xml version="1.0" encoding="utf-8" ?>
<svg baseProfile="full" height="100%" version="1.1" viewBox="0,0,1000,240" width="100%" xmlns="http://www.w3.org/2000/svg" xmlns:ev="http://www.w3.org/2001/xml-events" xmlns:xlink="http://www.w3.org/1999/xlink"><defs /><rect fill="white" height="240" width="1000" x="0" y="0" /><path d="M0,0 M24.28130340576172,107.25879669189453 L24.313865661621094,107.27791595458984 L24.4033203125,107.49462890625 L24.564403533935547,108.12181091308594 L24.7777099609375,109.33009338378906 L24.973941802978516,111.13339233398438 L25.086700439453125,113.42762756347656 L25.084136962890625,116.00372314453125 L24.958812713623047,118.64134979248047 L24.74840545654297,121.19651794433594 L24.522052764892578,123.55193328857422 L24.295154571533203,125.60262298583984 L24.111846923828125,127.20677185058594 L23.99297332763672,128.2172393798828 L23.942447662353516,128.5618438720703 L23.93775177001953,128.4738006591797 L23.965030670166016,128.2233428955078 M32.623374938964844,105.78203582763672 L32.67903518676758,105.87560272216797 L32.73958206176758,106.27745056152344 L32.8083610534668,107.18405151367188 L32.84634017944336,108.67332458496094 L32.80985641479492,110.65030670166016 L32.6820182800293,112.96815490722656 L32.43670654296875,115.44700622558594 L32.099334716796875,117.9356689453125 L31.789993286132812,120.32809448242188 L31.59176254272461,122.47774505615234 L31.54375457763672,124.28018188476562 L31.58157730102539,125.58482360839844 L31.616741180419922,126.29387664794922 L31.573040008544922,126.39733123779297 L31.480628967285156,126.16366577148438 L31.38705825805664,125.84458923339844 M23.419265747070312,117.97554779052734 L23.359970092773438,117.98789978027344 L23.56855010986328,118.01253509521484 L24.334815979003906,118.04812622070312 L25.831714630126953,118.04891204833984 L27.94501495361328,117.9676513671875 L30.38979721069336,117.78660583496094 L32.85118103027344,117.52011108398438 L35.09727096557617,117.20038604736328 L37.02132034301758,116.89637756347656 L38.56328582763672,116.62496948242188 L39.606361389160156,116.43013763427734 L40.164093017578125,116.32030487060547 M42.141265869140625,115.96868133544922 L42.2209358215332,116.22989654541016 L42.283607482910156,116.792236328125 L42.28429412841797,117.69817352294922 L42.17730712890625,118.8877182006836 L42.0088005065918,120.265380859375 L41.82822799682617,121.68888092041016 L41.71528244018555,123.04708099365234 L41.67677307128906,124.17705535888672 L41.717315673828125,124.93846130371094 L41.78766632080078,125.26113891601562 L41.847782135009766,125.26815795898438 L41.87908935546875,125.1310043334961 M41.99430465698242,109.00662994384766 L42.07223129272461,108.8892593383789 L42.230873107910156,108.7298583984375 L42.41069793701172,108.58207702636719 L42.55216979980469,108.49955749511719 M55.08380889892578,126.01041412353516 L55.112945556640625,126.1038818359375 L55.12181854248047,126.43351745605469 L55.06718444824219,127.134033203125 L54.882957458496094,128.27371215820312 L54.56230163574219,129.72531127929688 L54.127960205078125,131.24974060058594 L53.732421875,132.44830322265625 L53.46287536621094,133.14901733398438 M72.75929260253906,113.7392349243164 L72.77140808105469,113.68215942382812 L72.81307983398438,113.78582000732422 L72.87471008300781,114.23870849609375 L72.92034912109375,115.1974105834961 L72.92475891113281,116.6615219116211 L72.84738159179688,118.50619506835938 L72.70188903808594,120.52970886230469 L72.52200317382812,122.54188537597656 L72.33146667480469,124.35021209716797 L72.14553833007812,125.81773376464844 L72.01136779785156,126.79940032958984 L71.92398071289062,127.30843353271484 M66.54933166503906,120.45697784423828 L66.8453369140625,120.2835693359375 L67.64651489257812,120.0019760131836 L69.11906433105469,119.65571594238281 L71.21696472167969,119.32376098632812 L73.67523193359375,119.00953674316406 L76.19699096679688,118.68876647949219 L78.546630859375,118.30805969238281 L80.58195495605469,117.77584075927734 L82.26033020019531,117.04912567138672 L83.57136535644531,116.15171813964844 L84.42457580566406,115.3342514038086 L84.86628723144531,114.77296447753906 M84.51885986328125,110.54693603515625 L84.46107482910156,110.38105010986328 L84.41377258300781,110.33753967285156 L84.40240478515625,110.64913940429688 L84.4552001953125,111.55474090576172 L84.55235290527344,113.07090759277344 L84.61862182617188,115.07422637939453 L84.60597229003906,117.34800720214844 L84.56398010253906,119.65280151367188 L84.52297973632812,121.73226928710938 L84.56575012207031,123.41512298583984 L84.72456359863281,124.58748626708984 L84.99000549316406,125.18624114990234 L85.38502502441406,125.22267150878906 L86.00567626953125,124.73914337158203 L86.88644409179688,123.78164672851562 L88.07926940917969,122.49845886230469 L89.53007507324219,121.07221221923828 L91.14739990234375,119.6837158203125 L92.848388671875,118.50135803222656 L94.568359375,117.65229034423828 L96.19708251953125,117.18750762939453 L97.6685791015625,117.164306640625 L98.89186096191406,117.61263275146484 L99.79449462890625,118.53185272216797 L100.37471008300781,119.86254119873047 L100.67839050292969,121.48576354980469 L100.80661010742188,123.20728302001953 L100.92436218261719,124.816650390625 L101.14424133300781,126.13610076904297 L101.5162353515625,127.03800201416016 L102.11152648925781,127.38237762451172 L102.91293334960938,127.13021087646484 L103.89936828613281,126.34996032714844 L104.80143737792969,125.4534683227539 L105.4254150390625,124.76539611816406 M107.67196655273438,121.3558349609375 L107.83953857421875,121.36990356445312 L108.10633850097656,121.57096862792969 L108.40278625488281,122.10474395751953 L108.619873046875,123.04600524902344 L108.71900939941406,124.29472351074219 L108.71501159667969,125.64250183105469 L108.67050170898438,126.73997497558594 L108.6514892578125,127.3382339477539 L108.67642211914062,127.33587646484375 L108.72283935546875,126.99568939208984 L108.76287841796875,126.60489654541016 M107.61483764648438,115.73570251464844 L107.53762817382812,115.45606994628906 L107.52035522460938,115.13319396972656 L107.55694580078125,114.86819458007812 L107.64126586914062,114.76213836669922 M121.19371032714844,118.20059967041016 L120.95330810546875,118.1744384765625 L120.42100524902344,118.17382049560547 L119.55705261230469,118.26541137695312 L118.41632080078125,118.50239562988281 L117.13166809082031,118.88736724853516 L115.85774230957031,119.39912414550781 L114.81646728515625,119.9970932006836 L114.19706726074219,120.63105010986328 L114.15554809570312,121.27276611328125 L114.75114440917969,121.88907623291016 L115.96968078613281,122.46001434326172 L117.6671142578125,122.99800872802734 L119.675537109375,123.5422592163086 L121.76298522949219,124.11407470703125 L123.66799926757812,124.6996841430664 L125.18614196777344,125.25080871582031 L126.15864562988281,125.71534729003906 L126.48388671875,126.06053924560547 L126.21051025390625,126.31967163085938 L125.40003967285156,126.51805114746094 L124.1063232421875,126.66634368896484 L122.4256591796875,126.73992919921875 L120.43080139160156,126.73490142822266 L118.24627685546875,126.6222915649414 L116.12271118164062,126.44000244140625 L114.2923583984375,126.21758270263672 L113.02397155761719,126.02687072753906 L112.36056518554688,125.89681243896484 M147.03614807128906,117.45283508300781 L147.07411193847656,117.48889923095703 L147.1182403564453,117.70167541503906 L147.1085662841797,118.23013305664062 L147.03529357910156,119.13323211669922 L146.91049194335938,120.36693572998047 L146.74215698242188,121.80232238769531 L146.5904541015625,123.28975677490234 L146.51409912109375,124.62226104736328 L146.49658203125,125.64332580566406 L146.57763671875,126.2220687866211 L146.6939239501953,126.42842102050781 L146.7832489013672,126.41204833984375 M148.25582885742188,109.36724090576172 L148.30931091308594,108.85542297363281 L148.3876495361328,108.21856689453125 L148.46351623535156,107.66464233398438 L148.50953674316406,107.40161895751953 M160.36302185058594,116.78297424316406 L160.0286865234375,116.60606384277344 L159.22109985351562,116.37005615234375 L157.8575439453125,116.17926025390625 L156.07064819335938,116.1609115600586 L154.17918395996094,116.34528350830078 L152.58993530273438,116.73956298828125 L151.5762939453125,117.3086166381836 L151.31576538085938,118.0221176147461 L151.8434295654297,118.87295532226562 L153.0685272216797,119.82862854003906 L154.83106994628906,120.85221099853516 L156.8798828125,121.90834045410156 L158.90313720703125,122.92591857910156 L160.6999053955078,123.86499786376953 L162.11793518066406,124.69651794433594 L163.0519561767578,125.40601348876953 L163.40524291992188,126.00403594970703 L163.0881805419922,126.50753021240234 L162.0677032470703,126.91036224365234 L160.36282348632812,127.22230529785156 L158.17117309570312,127.42979431152344 L155.73226928710938,127.52572631835938 L153.69265747070312,127.54135131835938 L152.39212036132812,127.51879119873047 M192.892578125,110.82249450683594 L192.92588806152344,110.92023468017578 L192.80499267578125,111.29164123535156 L192.34420776367188,112.12223052978516 L191.3642120361328,113.53264617919922 L189.8494873046875,115.48989868164062 L187.96597290039062,117.85425567626953 L186.00115966796875,120.41643524169922 L184.20335388183594,122.91421508789062 L182.75662231445312,125.13432312011719 L181.696533203125,126.94046783447266 L181.00836181640625,128.22813415527344 L180.73133850097656,128.7861328125 L180.8854217529297,128.51719665527344 L181.45693969726562,127.41334533691406 L182.14739990234375,126.06645202636719 L182.69822692871094,124.98995208740234 M191.6549835205078,110.28193664550781 L192.00794982910156,110.0738525390625 L192.46534729003906,109.88365173339844 L192.9138641357422,109.87931060791016 L193.23243713378906,110.25241088867188 L193.4513397216797,111.02857971191406 L193.67848205566406,112.16043090820312 L194.04083251953125,113.52769470214844 L194.6121826171875,115.04277801513672 L195.42147827148438,116.62185668945312 L196.4169158935547,118.21106719970703 L197.47198486328125,119.7647705078125 L198.45555114746094,121.2383041381836 L199.25015258789062,122.54100036621094 L199.82888793945312,123.59895324707031 L200.17323303222656,124.30553436279297 L200.32191467285156,124.66746520996094 M190.0315704345703,118.04426574707031 L190.1046905517578,118.0552749633789 L190.35667419433594,118.05601501464844 L190.90939331054688,118.04357147216797 L191.8992462158203,117.99767303466797 L193.33714294433594,117.90133666992188 L195.0579376220703,117.75678253173828 L196.5583953857422,117.61601257324219 L197.5380401611328,117.5068130493164 M205.28712463378906,114.62860107421875 L205.2065887451172,115.15442657470703 L205.10549926757812,116.13699340820312 L205.01766967773438,117.48994445800781 L204.96597290039062,118.92007446289062 L204.93128967285156,120.19615173339844 L204.89976501464844,121.1503677368164 L204.8779296875,121.74893188476562 L204.9123992919922,122.00732421875 L205.08245849609375,121.92257690429688 L205.42935180664062,121.45867919921875 L206.00253295898438,120.62517547607422 L206.78890991210938,119.4725112915039 L207.7423858642578,118.14452362060547 L208.80018615722656,116.80725860595703 L209.92864990234375,115.6285629272461 L211.04348754882812,114.73031616210938 L212.1434326171875,114.24317169189453 L213.16993713378906,114.22114562988281 L214.09588623046875,114.68975067138672 L214.8701934814453,115.60506439208984 L215.4664764404297,116.87677001953125 L215.84188842773438,118.36123657226562 L216.0377960205078,119.92102813720703 L216.0876922607422,121.3934555053711 L216.075439453125,122.62808990478516 L216.04681396484375,123.52460479736328 L216.02786254882812,124.0498046875 L216.02102661132812,124.27204132080078 M221.39364624023438,115.11914825439453 L221.2279815673828,115.52363586425781 L220.96466064453125,116.35416412353516 L220.67710876464844,117.60443878173828 L220.49655151367188,119.03913879394531 L220.51956176757812,120.427978515625 L220.82020568847656,121.58116912841797 L221.3988037109375,122.36780548095703 L222.24114990234375,122.693603515625 L223.29638671875,122.50700378417969 L224.48944091796875,121.74501037597656 L225.74098205566406,120.50664520263672 L226.95172119140625,118.98780059814453 L228.05845642089844,117.43547821044922 L228.98487854003906,116.03044128417969 L229.68673706054688,114.91978454589844 L230.15957641601562,114.05009460449219 L230.4775848388672,113.48558044433594 L230.68377685546875,113.36908721923828 L230.84512329101562,113.85626220703125 L230.93531799316406,114.99666595458984 L230.92884826660156,116.72245788574219 L230.81971740722656,118.604248046875 L230.66806030273438,120.3660888671875 L230.55726623535156,121.74543762207031 L230.581787109375,122.58492279052734 L230.7695770263672,122.84622955322266 L231.0186767578125,122.77470397949219 L231.22991943359375,122.541748046875 M239.351318359375,105.3387451171875 L239.47677612304688,105.21623992919922 L239.65313720703125,105.28558349609375 L239.82766723632812,105.81986236572266 L239.88357543945312,107.04637908935547 L239.732177734375,108.90808868408203 L239.3988037109375,111.16999816894531 L238.93927001953125,113.4801025390625 L238.4847412109375,115.51117706298828 L238.16741943359375,117.06498718261719 L238.01327514648438,118.07321166992188 L238.00473022460938,118.54956817626953 L238.200927734375,118.55296325683594 L238.67715454101562,118.14004516601562 L239.57794189453125,117.38414001464844 L240.97030639648438,116.459716796875 L242.76004028320312,115.58756256103516 L244.7476806640625,114.96883392333984 L246.70184326171875,114.73271179199219 L248.40371704101562,114.87468719482422 L249.70510864257812,115.33341979980469 L250.52105712890625,116.04232025146484 L250.79150390625,116.95059204101562 L250.48052978515625,117.96863555908203 L249.59158325195312,119.00875091552734 L248.15451049804688,119.93060302734375 L246.27529907226562,120.65032196044922 L244.16342163085938,121.10106658935547 L242.07351684570312,121.2359390258789 L240.26669311523438,121.04977416992188 L238.94094848632812,120.6040267944336 L238.15951538085938,120.1079330444336 L237.82391357421875,119.7400894165039 M255.44686889648438,106.4163589477539 L255.59677124023438,106.76909637451172 L255.82614135742188,107.56448364257812 L256.063720703125,108.9097671508789 L256.18646240234375,110.75860595703125 L256.13885498046875,112.95747375488281 L255.99661254882812,115.25675201416016 L255.8487548828125,117.3677749633789 L255.80862426757812,119.06318664550781 L255.91973876953125,120.24922180175781 L256.14593505859375,120.8944091796875 L256.465087890625,120.97797393798828 L256.9683532714844,120.4976577758789 L257.7416076660156,119.4576416015625 L258.8860778808594,117.97512817382812 L260.40478515625,116.28569793701172 L262.1515197753906,114.6103744506836 L263.9564514160156,113.15001678466797 L265.6947937011719,112.06002807617188 L267.242431640625,111.43980407714844 L268.53826904296875,111.35901641845703 L269.56036376953125,111.82731628417969 L270.2305603027344,112.77902221679688 L270.5465393066406,114.11266326904297 L270.56243896484375,115.662353515625 L270.3851318359375,117.22486114501953 L270.1662902832031,118.5973129272461 L270.02349853515625,119.55018615722656 L269.9655456542969,120.04991149902344 M282.0213317871094,113.82583618164062 L281.9026184082031,113.50160217285156 L281.5670471191406,113.02519989013672 L280.87689208984375,112.53401184082031 L279.7431335449219,112.2620620727539 L278.185302734375,112.33605194091797 L276.3123779296875,112.82135772705078 L274.32586669921875,113.66910552978516 L272.5027770996094,114.79456329345703 L271.04150390625,116.0541000366211 L270.1056823730469,117.3014907836914 L269.8021240234375,118.39640808105469 L270.11029052734375,119.2134017944336 L270.9552001953125,119.63580322265625 L272.2088623046875,119.61048126220703 L273.6662902832031,119.12142944335938 L275.1868896484375,118.21964263916016 L276.66424560546875,117.0272445678711 L278.0115966796875,115.73606872558594 L279.149658203125,114.54501342773438 L279.98785400390625,113.59500122070312 L280.4908752441406,112.94258117675781 L280.6849670410156,112.59315490722656 L280.6712341308594,112.56021118164062 L280.5871887207031,112.91210174560547 L280.52947998046875,113.70406341552734 L280.5630798339844,114.87675476074219 L280.7682189941406,116.28646850585938 L281.11029052734375,117.73632049560547 L281.5311279296875,119.02265167236328 L281.94122314453125,120.01802062988281 L282.2324523925781,120.64823150634766 L282.3746643066406,120.9453125 M285.7295837402344,112.48396301269531 L285.79742431640625,112.4194107055664 L285.8968811035156,112.44200897216797 L285.99249267578125,112.69503784179688 L286.04010009765625,113.31761932373047 L286.0703125,114.3473892211914 L286.1185607910156,115.6666259765625 L286.25115966796875,117.09858703613281 L286.5653381347656,118.46143341064453 L287.102783203125,119.5784912109375 L287.8704528808594,120.31928253173828 L288.8708801269531,120.60665893554688 L290.03350830078125,120.37965393066406 L291.3070983886719,119.67042541503906 L292.610595703125,118.5607681274414 L293.8616943359375,117.20140838623047 L295.0035400390625,115.7624740600586 L295.99908447265625,114.41926574707031 L296.81622314453125,113.30488586425781 L297.3915710449219,112.56053924560547 L297.7076110839844,112.17031860351562 M328.5982971191406,112.23275756835938 L328.5521545410156,111.8488540649414 L328.3719177246094,111.25780487060547 L327.9687194824219,110.5579833984375 L327.2550354003906,109.91570281982422 L326.14996337890625,109.38308715820312 L324.605712890625,109.02677154541016 L322.6788024902344,108.8944091796875 L320.4956359863281,109.03441619873047 L318.30218505859375,109.46704864501953 L316.3961181640625,110.16561126708984 L315.0224304199219,111.08380889892578 L314.3427429199219,112.16902160644531 L314.45611572265625,113.3519287109375 L315.3717346191406,114.55953979492188 L316.9847412109375,115.74347686767578 L319.1087646484375,116.87781524658203 L321.45196533203125,117.95934295654297 L323.6690368652344,118.98228454589844 L325.4740905761719,119.94075012207031 L326.6697692871094,120.81157684326172 L327.1243896484375,121.5716552734375 L326.7779846191406,122.2086410522461 L325.61322021484375,122.7311782836914 L323.62628173828125,123.13636779785156 L320.93133544921875,123.45945739746094 L317.7366027832031,123.68749237060547 L314.36346435546875,123.79350280761719 L311.1422424316406,123.76113891601562 L308.3794860839844,123.59663391113281 L306.2388916015625,123.34074401855469 L304.7724304199219,123.09593963623047 L304.0971984863281,122.88433837890625 L304.29443359375,122.70268249511719 L305.336669921875,122.51653289794922 L306.6451416015625,122.34339141845703 L307.7229309082031,122.20918273925781 M337.0419006347656,119.1412353515625 L336.9406433105469,119.41683959960938 L336.84539794921875,119.97616577148438 L336.7936096191406,120.80630493164062 L336.777587890625,121.76313018798828 L336.7107238769531,122.67223358154297 L336.5429382324219,123.41309356689453 L336.3387145996094,123.89266204833984 L336.1739196777344,124.13009643554688 M337.2630615234375,113.73584747314453 L337.375732421875,113.18070220947266 L337.5376892089844,112.42508697509766 L337.7042541503906,111.6692886352539 L337.8078918457031,111.17376708984375 L337.8348083496094,110.93146514892578 L337.7999267578125,110.87847900390625 L337.7471008300781,110.8931884765625 L337.705322265625,110.92948913574219 M343.84820556640625,116.61976623535156 L343.94940185546875,117.1379165649414 L344.0721435546875,118.12358093261719 L344.1409912109375,119.5351333618164 L344.10272216796875,121.12109375 L343.9505310058594,122.63897705078125 L343.7459411621094,123.87321472167969 L343.54193115234375,124.69649505615234 L343.37841796875,125.05606079101562 L343.2549743652344,124.93232727050781 L343.2244873046875,124.31484985351562 L343.3604736328125,123.20784759521484 L343.77490234375,121.72611999511719 L344.5385437011719,120.03239440917969 L345.6856994628906,118.34313201904297 L347.1481628417969,116.85929107666016 L348.8211975097656,115.74488830566406 L350.6005859375,115.09004211425781 L352.4063415527344,114.97539520263672 L354.168701171875,115.35331726074219 L355.79248046875,116.16474914550781 L357.1557922363281,117.32255554199219 L358.14654541015625,118.7701644897461 L358.7161865234375,120.42636108398438 L358.9500427246094,122.21097564697266 L358.9994812011719,123.92039489746094 L358.99951171875,125.38107299804688 L359.0145263671875,126.37775421142578 L359.04925537109375,126.89935302734375 M370.8594970703125,121.16758728027344 L371.1042175292969,120.54702758789062 L371.3850402832031,119.56896209716797 L371.5386962890625,118.38628387451172 L371.3587646484375,117.28514862060547 L370.7655029296875,116.38113403320312 L369.7190246582031,115.80367279052734 L368.2828369140625,115.69083404541016 L366.5946960449219,116.17179870605469 L364.90191650390625,117.26045227050781 L363.47576904296875,118.82164764404297 L362.5523681640625,120.5564193725586 L362.2371520996094,122.15608978271484 L362.54766845703125,123.38131713867188 L363.3985900878906,124.10692596435547 L364.6867980957031,124.29297637939453 L366.239501953125,123.98857879638672 L367.8955993652344,123.2497787475586 L369.4240417480469,122.19254302978516 L370.6554870605469,120.98698425292969 L371.48309326171875,119.84529113769531 L371.928955078125,118.91216278076172 L372.0658264160156,118.28376770019531 L372.0314025878906,117.98954772949219 L371.8823547363281,118.03111267089844 L371.67913818359375,118.4669418334961 L371.4623718261719,119.38562774658203 L371.25714111328125,120.80327606201172 L371.0624694824219,122.67093658447266 L370.92681884765625,124.87945556640625 L370.8286437988281,127.24906921386719 L370.7142639160156,129.62686157226562 L370.48114013671875,131.86306762695312 L369.9576416015625,133.81431579589844 L368.99468994140625,135.3636474609375 L367.6224365234375,136.47711181640625 L365.9288330078125,137.0479278564453 L364.1308288574219,137.0516815185547 L362.4921875,136.5292510986328 L361.30908203125,135.83346557617188 L360.650146484375,135.24998474121094 M379.8949279785156,105.51909637451172 L379.984375,105.92892456054688 L380.093017578125,106.79553985595703 L380.17236328125,108.16377258300781 L380.1562805175781,109.90827941894531 L379.993408203125,111.86143493652344 L379.71929931640625,113.84449768066406 L379.4073181152344,115.69584655761719 L379.13934326171875,117.24752807617188 L378.9836120605469,118.40288543701172 L378.9530944824219,119.114990234375 L378.9974670410156,119.37971496582031 L379.1517028808594,119.17618560791016 L379.51690673828125,118.50898742675781 L380.2105712890625,117.4059829711914 L381.277587890625,116.04607391357422 L382.66632080078125,114.68499755859375 L384.208251953125,113.56672668457031 L385.7909851074219,112.83157348632812 L387.3500671386719,112.55450439453125 L388.84228515625,112.72238159179688 L390.1617431640625,113.34449768066406 L391.21868896484375,114.38790130615234 L391.8551330566406,115.78036499023438 L392.0755310058594,117.43547058105469 L392.0055847167969,119.20038604736328 L391.82196044921875,120.87002563476562 L391.6565856933594,122.13208770751953 L391.59136962890625,122.85928344726562 M414.7216491699219,117.07719421386719 L414.863037109375,116.68109893798828 L415.026611328125,116.21375274658203 L415.075927734375,115.94085693359375 L414.8791809082031,116.1705322265625 L414.44195556640625,117.0099105834961 L413.8482971191406,118.3919448852539 L413.2571716308594,120.07621002197266 L412.82513427734375,121.79882049560547 L412.638916015625,123.31806945800781 L412.765380859375,124.42520141601562 L413.21392822265625,125.05497741699219 L413.9674987792969,125.15876770019531 L414.9638977050781,124.71371459960938 L416.1234436035156,123.78018951416016 L417.3398132324219,122.52777099609375 L418.4857482910156,121.16670989990234 L419.4066162109375,119.93721771240234 L420.0578308105469,118.98426055908203 L420.4417419433594,118.32465362548828 L420.64300537109375,117.95677947998047 L420.7635192871094,117.88574981689453 L420.8497619628906,118.14034271240234 L420.9076843261719,118.74435424804688 L420.98553466796875,119.67900848388672 L421.1280517578125,120.83552551269531 L421.4282531738281,122.09120178222656 L421.9645080566406,123.27538299560547 L422.7440490722656,124.23253631591797 L423.76080322265625,124.83973693847656 L424.9493103027344,125.01830291748047 L426.2101745605469,124.7343521118164 L427.4447937011719,124.04277038574219 L428.5218811035156,122.9990005493164 L429.31390380859375,121.71357727050781 L429.76885986328125,120.31947326660156 L429.8187255859375,118.91826629638672 L429.4846496582031,117.56682586669922 L428.88446044921875,116.35960388183594 L428.1673583984375,115.35040283203125 L427.5400695800781,114.63389587402344 L427.1564025878906,114.2504653930664 L427.0339050292969,114.17029571533203 L427.0732421875,114.24220275878906 L427.1660461425781,114.35177612304688 M435.4863586425781,116.9748306274414 L435.51019287109375,117.02239227294922 L435.5299377441406,117.24695587158203 L435.5050354003906,117.73214721679688 L435.38311767578125,118.5043716430664 L435.1587219238281,119.47637176513672 L434.89263916015625,120.4731674194336 L434.67303466796875,121.35589599609375 L434.5455322265625,122.0528793334961 L434.5166015625,122.49866485595703 L434.5689392089844,122.64354705810547 L434.7404479980469,122.42372131347656 L435.1178894042969,121.7667236328125 L435.7685241699219,120.70535278320312 L436.7511901855469,119.39112091064453 L438.0667724609375,118.03229522705078 L439.6484375,116.80944061279297 L441.40130615234375,115.85212707519531 L443.1818542480469,115.21154022216797 L444.833740234375,114.9018325805664 L446.25836181640625,114.90141296386719 L447.38592529296875,115.19988250732422 L448.1892395019531,115.7397232055664 L448.69122314453125,116.48185729980469 L448.9185791015625,117.40251922607422 L448.9314270019531,118.46983337402344 L448.7866516113281,119.61981964111328 L448.5267333984375,120.81460571289062 L448.2265625,121.93606567382812 L447.9590759277344,122.86719512939453 L447.7777099609375,123.51061248779297 L447.69659423828125,123.8506088256836 L447.68450927734375,123.95417022705078 M448.7109375,111.58069610595703 L448.76763916015625,111.3798828125 L448.8734436035156,111.0732650756836 L448.9893798828125,110.76746368408203 L449.0763854980469,110.56908416748047 M456.8155822753906,106.345947265625 L457.0158996582031,106.51451110839844 L457.253662109375,106.94728088378906 L457.39483642578125,107.74781036376953 L457.2782287597656,108.96006774902344 L456.9006042480469,110.57566833496094 L456.28173828125,112.52410125732422 L455.543212890625,114.68309783935547 L454.80279541015625,116.90936279296875 L454.1830749511719,119.00774383544922 L453.7735595703125,120.81556701660156 L453.5900573730469,122.08555603027344 L453.54937744140625,122.78211975097656 M450.872314453125,117.35232543945312 L450.9337158203125,117.2924575805664 L451.2857666015625,117.17938995361328 L452.1085205078125,116.99563598632812 L453.49957275390625,116.72789001464844 L455.411376953125,116.3851089477539 L457.6846923828125,115.98267364501953 L460.0806579589844,115.50920104980469 L462.4429931640625,114.99163818359375 L464.5857849121094,114.44013977050781 L466.36541748046875,113.86600494384766 L467.7330017089844,113.36021423339844 L468.6768493652344,113.01161193847656 L469.2249755859375,112.89328002929688 L469.474853515625,113.07815551757812 L469.470458984375,113.60971069335938 L469.2273254394531,114.48812103271484 L468.79351806640625,115.71504211425781 L468.2411804199219,117.18971252441406 L467.6864929199219,118.75187683105469 L467.2422180175781,120.20580291748047 L466.9858703613281,121.36933898925781 L466.91650390625,122.14488983154297 L466.95526123046875,122.55715942382812 L467.0215148925781,122.70472717285156 M468.43133544921875,106.66803741455078 L468.4732971191406,106.61524200439453 L468.5772399902344,106.55003356933594 L468.7028503417969,106.49372100830078 L468.809814453125,106.46758270263672 M475.3855285644531,113.94168090820312 L475.4360046386719,114.15858459472656 L475.47113037109375,114.66827392578125 L475.4537048339844,115.54161834716797 L475.3729248046875,116.75032043457031 L475.2533874511719,118.18986511230469 L475.0893249511719,119.66411590576172 L474.9162902832031,120.9778060913086 L474.7344970703125,121.9733657836914 L474.56610107421875,122.57445526123047 L474.4396057128906,122.77722930908203 L474.3797302246094,122.5921859741211 L474.3782043457031,122.00070190429688 L474.53118896484375,121.0261459350586 L474.90631103515625,119.72581481933594 L475.5720520019531,118.25357818603516 L476.5329284667969,116.77880859375 L477.7685852050781,115.47828674316406 L479.1853332519531,114.46614074707031 L480.7296142578125,113.84158325195312 L482.30145263671875,113.6502914428711 L483.78125,113.91116333007812 L485.0597229003906,114.55806732177734 L486.0652160644531,115.54888916015625 L486.73394775390625,116.78624725341797 L487.0399169921875,118.17892456054688 L487.0137023925781,119.61835479736328 L486.7232666015625,120.97705078125 L486.32049560546875,122.1004638671875 L485.9681091308594,122.91983795166016 L485.7734375,123.4101333618164 L485.7186584472656,123.633056640625 L485.747314453125,123.69490051269531 M493.8157958984375,119.0372543334961 L493.69525146484375,118.70547485351562 L493.49810791015625,118.18724060058594 L493.2257080078125,117.56526947021484 L492.87078857421875,117.00706481933594 L492.38140869140625,116.58931732177734 L491.719970703125,116.3873291015625 L490.9057922363281,116.45439147949219 L490.02410888671875,116.8089370727539 L489.2030029296875,117.42214965820312 L488.5772399902344,118.24253845214844 L488.27606201171875,119.1945571899414 L488.3844299316406,120.17882537841797 L488.9364318847656,121.09662628173828 L489.9071044921875,121.84147644042969 L491.2129821777344,122.34056854248047 L492.7435302734375,122.58081817626953 L494.35443115234375,122.5731201171875 L495.89202880859375,122.3258056640625 L497.215087890625,121.87702941894531 L498.22796630859375,121.295654296875 L498.8973388671875,120.66323852539062 L499.257568359375,120.0896224975586 L499.3389892578125,119.63156127929688 L499.2237548828125,119.30883026123047 L498.94989013671875,119.16124725341797 L498.57366943359375,119.24445343017578 L498.1483154296875,119.59109497070312 L497.76416015625,120.24907684326172 L497.496337890625,121.19425201416016 L497.46234130859375,122.39154815673828 L497.6644287109375,123.78194427490234 L498.08172607421875,125.30020904541016 L498.61383056640625,126.85945129394531 L499.18951416015625,128.4252166748047 L499.7252197265625,129.96340942382812 L500.1531982421875,131.48582458496094 L500.37347412109375,132.96987915039062 L500.29638671875,134.39915466308594 L499.82110595703125,135.71392822265625 L498.90032958984375,136.8754425048828 L497.5059814453125,137.8097686767578 L495.66461181640625,138.4783935546875 L493.47412109375,138.85519409179688 L491.04925537109375,138.8887481689453 L488.5864562988281,138.5521697998047 L486.3057556152344,137.8889617919922 L484.6043701171875,137.1744384765625 L483.619140625,136.63197326660156 M535.0084228515625,118.58065032958984 L534.9154663085938,118.25220489501953 L534.7230224609375,117.73493957519531 L534.3705444335938,117.11663818359375 L533.7958374023438,116.56793212890625 L532.9175415039062,116.15860748291016 L531.7110595703125,115.9422607421875 L530.1824951171875,115.92793273925781 L528.3866577148438,116.18694305419922 L526.379638671875,116.76298522949219 L524.2603759765625,117.67446899414062 L522.1717529296875,118.8716049194336 L520.2822875976562,120.26251983642578 L518.7745971679688,121.71322631835938 L517.8311767578125,123.12117767333984 L517.5199584960938,124.35401916503906 L517.8618774414062,125.2750244140625 L518.7855834960938,125.7647933959961 L520.1339721679688,125.74600219726562 L521.7532348632812,125.21202850341797 L523.5394897460938,124.22195434570312 L525.38232421875,122.8612060546875 L527.2186279296875,121.24671173095703 L528.9338989257812,119.57108306884766 L530.4144897460938,118.0593490600586 L531.5432739257812,116.88765716552734 L532.2747802734375,116.13507080078125 L532.6715698242188,115.8331069946289 L532.8262939453125,115.97293853759766 L532.7725830078125,116.60702514648438 L532.5491943359375,117.77991485595703 L532.1456909179688,119.39083862304688 L531.6240844726562,121.21842193603516 L531.155029296875,122.98678588867188 L530.8754272460938,124.43128204345703 L530.7833251953125,125.37203979492188 L530.8171997070312,125.84310150146484 M547.4652709960938,115.62660217285156 L547.3368530273438,115.2809066772461 L546.9235229492188,114.7930679321289 L546.038330078125,114.32699584960938 L544.6241455078125,114.14766693115234 L542.7827758789062,114.35356140136719 L540.7830200195312,114.93627166748047 L538.958984375,115.77392578125 L537.6349487304688,116.76045227050781 L537.015625,117.7940444946289 L537.2352294921875,118.85181427001953 L538.2908935546875,119.90089416503906 L540.0719604492188,120.95023345947266 L542.3088989257812,121.96495056152344 L544.6685180664062,122.91740417480469 L546.7838745117188,123.74356842041016 L548.307373046875,124.38838958740234 L548.9779052734375,124.80682373046875 L548.671142578125,125.03377532958984 L547.36767578125,125.10477447509766 L545.1809692382812,125.05420684814453 L542.362548828125,124.89612579345703 L539.2411499023438,124.63524627685547 L536.1883544921875,124.29673767089844 L533.6882934570312,123.90208435058594 L532.1358642578125,123.48542022705078 L531.6536865234375,123.0496826171875 L531.868896484375,122.68731689453125 L532.3223266601562,122.44795989990234 M559.9519653320312,115.15235900878906 L559.7603759765625,115.00978088378906 L559.2264404296875,114.8583984375 L558.2278442382812,114.77507781982422 L556.835205078125,114.85911560058594 L555.29345703125,115.1098403930664 L553.9215698242188,115.50547790527344 L552.9932250976562,116.0232925415039 L552.6194458007812,116.68415069580078 L552.7977294921875,117.47783660888672 L553.46875,118.3874282836914 L554.5491333007812,119.38675689697266 L555.902587890625,120.40251922607422 L557.3606567382812,121.37999725341797 L558.7012939453125,122.27560424804688 L559.7351684570312,123.03691864013672 L560.2704467773438,123.63517761230469 L560.1926879882812,124.09185791015625 L559.4515991210938,124.3817367553711 L558.1136474609375,124.51018524169922 L556.3244018554688,124.46442413330078 L554.336181640625,124.27688598632812 L552.3803100585938,123.99528503417969 L550.6544799804688,123.6988525390625 L549.3717651367188,123.39965057373047 L548.6767578125,123.10539245605469 L548.5942993164062,122.79061889648438 L548.871826171875,122.52670288085938 L549.2267456054688,122.34601593017578 M563.4829711914062,114.65614318847656 L563.583740234375,114.841552734375 L563.6790161132812,115.31566619873047 L563.698974609375,116.13463592529297 L563.61572265625,117.25122833251953 L563.5120849609375,118.52336883544922 L563.4287719726562,119.83609771728516 L563.3834228515625,121.12495422363281 L563.32958984375,122.30691528320312 L563.2069091796875,123.25592803955078 L563.0267333984375,123.8561019897461 L562.863525390625,124.10717010498047 L562.7557983398438,124.12358093261719 M563.795654296875,108.19050598144531 L563.8856201171875,108.14481353759766 L564.0144653320312,108.1656494140625 L564.1376342773438,108.23712921142578 L564.2109375,108.34337615966797 M576.6790771484375,116.99678802490234 L576.6251831054688,116.59491729736328 L576.4049072265625,115.965087890625 L575.9115600585938,115.24465942382812 L575.0678100585938,114.67478942871094 L573.8206787109375,114.40296173095703 L572.22021484375,114.52256774902344 L570.4183959960938,115.09097290039062 L568.6121826171875,116.06737518310547 L567.113037109375,117.33624267578125 L566.1971435546875,118.69480895996094 L565.979248046875,119.89690399169922 L566.4692993164062,120.74066925048828 L567.5391845703125,121.12211608886719 L568.9627075195312,121.00340270996094 L570.5226440429688,120.44683837890625 L572.0,119.59342956542969 L573.1932373046875,118.61077880859375 L574.04150390625,117.69418334960938 L574.5658569335938,116.96636199951172 L574.8135986328125,116.50030517578125 L574.8660888671875,116.34124755859375 L574.7967529296875,116.56893920898438 L574.6362915039062,117.27796936035156 L574.449462890625,118.56327819824219 L574.3021240234375,120.37975311279297 L574.2030639648438,122.58041381835938 L574.140380859375,124.95089721679688 L574.05859375,127.29447937011719 L573.8421020507812,129.43020629882812 L573.4053344726562,131.28289794921875 L572.6798095703125,132.76051330566406 L571.6115112304688,133.79498291015625 L570.185302734375,134.3555145263672 L568.4850463867188,134.47830200195312 L566.6746215820312,134.19479370117188 L565.0729370117188,133.52552795410156 L563.952880859375,132.49539184570312 L563.4551391601562,131.17247009277344 L563.4070434570312,129.9542236328125 L563.5617065429688,129.11790466308594 M581.6351928710938,113.14704132080078 L581.7139892578125,113.45672607421875 L581.8323974609375,114.17282104492188 L581.9258422851562,115.36502075195312 L581.9097900390625,116.91992950439453 L581.7267456054688,118.57879638671875 L581.3768310546875,120.07465362548828 L580.9445190429688,121.22737121582031 L580.5130004882812,121.92491149902344 L580.166259765625,122.14228820800781 L579.978271484375,121.90327453613281 L580.0003051757812,121.19381713867188 L580.2880249023438,120.10673522949219 L580.8529052734375,118.79376983642578 L581.654541015625,117.40449523925781 L582.6502685546875,116.0775146484375 L583.8326416015625,114.97196960449219 L585.1981811523438,114.141845703125 L586.7349243164062,113.68635559082031 L588.327880859375,113.64435577392578 L589.8056030273438,114.02941131591797 L590.9852905273438,114.81310272216797 L591.7607421875,115.96929931640625 L592.0982055664062,117.37188720703125 L592.02197265625,118.89070129394531 L591.6168823242188,120.29924011230469 L591.0324096679688,121.43605041503906 L590.4987182617188,122.16656494140625 L590.1500244140625,122.52037811279297 M597.5235595703125,116.03931427001953 L597.75,115.94189453125 L598.0831909179688,115.88025665283203 L598.4418334960938,115.97562408447266 L598.658935546875,116.37456512451172 L598.6281127929688,117.12733459472656 L598.2836303710938,118.19769287109375 L597.6397094726562,119.45435333251953 L596.7972412109375,120.72355651855469 L595.947998046875,121.84009552001953 L595.2679443359375,122.6954574584961 L594.8637084960938,123.19154357910156 L594.7721557617188,123.2328109741211 L594.94384765625,122.78594207763672 L595.3389282226562,121.82999420166016 L595.9495239257812,120.48971557617188 L596.767333984375,118.98844146728516 L597.7467041015625,117.5483169555664 L598.8438720703125,116.35088348388672 L599.9783325195312,115.56429290771484 L601.0816040039062,115.21085357666016 L602.0985107421875,115.31939697265625 L602.935546875,115.8714370727539 L603.4458618164062,116.79789733886719 L603.5814819335938,118.0039291381836 L603.361083984375,119.35935974121094 L602.9033813476562,120.6662368774414 L602.3711547851562,121.7959213256836 L601.9033203125,122.63957977294922 L601.5360717773438,123.10101318359375 L601.3630981445312,123.11978912353516 L601.467529296875,122.65077209472656 L601.9500122070312,121.70816802978516 L602.85693359375,120.43171691894531 L604.1715087890625,119.02700805664062 L605.74365234375,117.67293548583984 L607.4284057617188,116.5257568359375 L609.0810546875,115.70024871826172 L610.5867309570312,115.2724380493164 L611.842041015625,115.29843139648438 L612.7612915039062,115.83409118652344 L613.2462768554688,116.87818145751953 L613.2398071289062,118.36209106445312 L612.7659301757812,120.13327026367188 L611.9817504882812,121.95957946777344 L611.1301879882812,123.57721710205078 L610.4739379882812,124.80915069580078 L610.1195068359375,125.56314849853516 L610.0164184570312,125.90721130371094 M615.9585571289062,120.2662582397461 L616.1397094726562,120.22380065917969 L616.6261596679688,120.16316986083984 L617.5110473632812,120.09031677246094 L618.7606811523438,119.98810577392578 L620.1936645507812,119.75982666015625 L621.6236572265625,119.359375 L622.8480834960938,118.75267028808594 L623.7984619140625,117.99400329589844 L624.447509765625,117.18148803710938 L624.793212890625,116.42530059814453 L624.808349609375,115.77140808105469 L624.4476928710938,115.29488372802734 L623.6229858398438,115.03465270996094 L622.36279296875,115.07676696777344 L620.735595703125,115.48562622070312 L618.91162109375,116.29560852050781 L617.1878662109375,117.4645004272461 L615.866943359375,118.88819885253906 L615.2319946289062,120.3853759765625 L615.5294189453125,121.76713562011719 L616.721435546875,122.85438537597656 L618.5263671875,123.53194427490234 L620.24072265625,123.8420181274414 L621.3960571289062,123.91160583496094 M631.1604614257812,117.9310073852539 L631.1226806640625,118.31909942626953 L631.001220703125,119.04935455322266 L630.7565307617188,120.0619888305664 L630.3897094726562,121.13592529296875 L629.9566040039062,122.09254455566406 L629.539306640625,122.75704193115234 L629.214599609375,123.02803039550781 L629.0755615234375,122.8592529296875 L629.2166748046875,122.23973846435547 L629.715576171875,121.21375274658203 L630.5966186523438,119.93772888183594 L631.8005981445312,118.57183074951172 L633.2393188476562,117.28684997558594 L634.8318481445312,116.21971130371094 L636.5106201171875,115.48336029052734 L638.1834716796875,115.1444320678711 L639.7239990234375,115.26615905761719 L640.998779296875,115.82013702392578 L641.9386596679688,116.72942352294922 L642.5174560546875,117.87539672851562 L642.7325439453125,119.13780975341797 L642.6109619140625,120.38970184326172 L642.2061157226562,121.56157684326172 L641.6407470703125,122.52466583251953 L641.1110229492188,123.16802215576172 L640.7625732421875,123.4161605834961 L640.6124267578125,123.3843994140625 L640.6055297851562,123.22703552246094 M648.2889404296875,107.8880844116211 L648.4501953125,107.66780090332031 L648.6334838867188,107.50060272216797 L648.7477416992188,107.59426879882812 L648.7374267578125,108.17704010009766 L648.6954956054688,109.32864379882812 L648.6510620117188,110.97679138183594 L648.6395263671875,112.94605255126953 L648.6610717773438,115.06841278076172 L648.6510009765625,117.12284851074219 L648.6033935546875,118.9332275390625 L648.5534057617188,120.25066375732422 L648.5047607421875,120.99576568603516 M646.58837890625,120.81672668457031 L646.741943359375,120.60441589355469 L647.126220703125,120.2387466430664 L647.8283081054688,119.76847839355469 L648.8410034179688,119.29551696777344 L650.096923828125,118.87741088867188 L651.4888916015625,118.53993225097656 L652.8912963867188,118.25745391845703 L654.2335815429688,117.97998046875 L655.460693359375,117.6705093383789 L656.5264282226562,117.30650329589844 L657.2960815429688,116.97917938232422 L657.7388305664062,116.75286865234375 M669.9473876953125,116.23693084716797 L669.9448852539062,116.12354278564453 L669.793212890625,115.93883514404297 L669.326416015625,115.7010726928711 L668.390625,115.49249267578125 L666.994140625,115.40394592285156 L665.2864379882812,115.50475311279297 L663.5769653320312,115.84132385253906 L662.1604614257812,116.42476654052734 L661.2805786132812,117.17430114746094 L661.0513916015625,118.0376205444336 L661.5322265625,118.98785400390625 L662.6370239257812,119.9902572631836 L664.2025756835938,121.04115295410156 L665.962890625,122.14591217041016 L667.6377563476562,123.21870422363281 L668.9690551757812,124.21495819091797 L669.7785034179688,125.06864929199219 L669.9378662109375,125.74371337890625 L669.3861694335938,126.2460708618164 L668.0240478515625,126.60294342041016 L665.9457397460938,126.80584716796875 L663.3912353515625,126.88922119140625 L661.1271362304688,126.88787078857422 L659.6297607421875,126.85485076904297 M692.4826049804688,116.04845428466797 L692.4559326171875,116.0074234008789 L692.4525756835938,116.03276062011719 L692.4879760742188,116.22429656982422 L692.5556030273438,116.70624542236328 L692.6212768554688,117.53758239746094 L692.65771484375,118.67778778076172 L692.6793212890625,120.01753997802734 L692.73681640625,121.37283325195312 L692.8493041992188,122.55359649658203 L693.024169921875,123.41105651855469 L693.2531127929688,123.82007598876953 L693.5950317382812,123.70398712158203 L694.16357421875,123.05400848388672 L695.0240478515625,121.9078140258789 L696.1368408203125,120.47840118408203 L697.3556518554688,119.02503204345703 L698.4651489257812,117.79480743408203 L699.3753662109375,116.97045135498047 L700.0636596679688,116.62548065185547 L700.5859985351562,116.76583862304688 L700.9639892578125,117.42858123779297 L701.1891479492188,118.57170867919922 L701.2515258789062,120.08765411376953 L701.2166748046875,121.72071838378906 L701.1300659179688,123.20657348632812 L701.094482421875,124.32136535644531 L701.1361083984375,124.93751525878906 L701.3411254882812,124.99405670166016 L701.7827758789062,124.506591796875 L702.5792846679688,123.46232604980469 L703.7396240234375,121.99699401855469 L705.2316284179688,120.29502868652344 L706.8616333007812,118.58023071289062 L708.4586181640625,117.05296325683594 L709.6674194335938,115.97380828857422 L710.383056640625,115.36885833740234 M715.5545654296875,115.60970306396484 L715.6132202148438,115.9057388305664 L715.6239624023438,116.52879333496094 L715.5223999023438,117.53340148925781 L715.2572021484375,118.8528823852539 L714.8589477539062,120.39439392089844 L714.3849487304688,121.98579406738281 L713.9181518554688,123.47147369384766 L713.5587768554688,124.62542724609375 L713.385986328125,125.28619384765625 L713.4312744140625,125.38324737548828 L713.591796875,125.1519546508789 L713.7539672851562,124.83502960205078 M714.6856079101562,108.64130401611328 L714.8994140625,108.1666259765625 L715.2893676757812,107.58639526367188 L715.7125244140625,107.08908081054688 L716.0263671875,106.8631362915039 M727.6829833984375,105.0 L727.8059692382812,105.28910064697266 L727.9458618164062,105.98949432373047 L728.0088500976562,107.19831848144531 L727.8801879882812,108.9014663696289 L727.5153198242188,111.0189437866211 L726.9326171875,113.39090728759766 L726.157958984375,115.88057708740234 L725.3221435546875,118.34380340576172 L724.55322265625,120.56855773925781 L723.9595947265625,122.39459228515625 L723.5993041992188,123.62419128417969 L723.4478759765625,124.25137329101562 M722.707763671875,115.58808898925781 L722.7803955078125,115.54459381103516 L723.1324462890625,115.53099822998047 L723.9730834960938,115.59884643554688 L725.4313354492188,115.72017669677734 L727.3921508789062,115.8045883178711 L729.5337524414062,115.72811889648438 L731.2735595703125,115.54443359375 L732.322265625,115.34521484375 M737.713134765625,107.6729507446289 L737.7642211914062,107.7159423828125 L737.857421875,108.0180435180664 L737.9169921875,108.7564926147461 L737.7927856445312,110.03318786621094 L737.3279418945312,111.78732299804688 L736.4451293945312,113.89130401611328 L735.220947265625,116.1969985961914 L733.844482421875,118.52481079101562 L732.5499267578125,120.67130279541016 L731.5126953125,122.44738006591797 L730.8605346679688,123.69217681884766 L730.6621704101562,124.3213882446289 L730.9536743164062,124.33379364013672 L731.7433471679688,123.77262115478516 L733.0326538085938,122.7213363647461 L734.7318115234375,121.37306213378906 L736.7286376953125,119.95045471191406 L738.88916015625,118.71918487548828 L741.0302734375,117.87577819824219 L743.0242919921875,117.5195083618164 L744.7599487304688,117.63450622558594 L746.1397094726562,118.19762420654297 L747.1096801757812,119.11785125732422 L747.6619873046875,120.34191131591797 L747.8272094726562,121.72586822509766 L747.763916015625,123.09518432617188 L747.6236572265625,124.14199829101562 L747.5177612304688,124.75743865966797 M765.1461791992188,106.85820770263672 L765.2498168945312,106.8004379272461 L765.451416015625,106.88939666748047 L765.7015380859375,107.28823852539062 L765.906982421875,108.13336181640625 L765.9674682617188,109.43688201904297 L765.8187866210938,111.1446304321289 L765.4026489257812,113.12873840332031 L764.75390625,115.2364501953125 L763.927978515625,117.30477142333984 L763.1019287109375,119.1991958618164 L762.4160766601562,120.80330657958984 L761.980712890625,122.02196502685547 L761.7523803710938,122.7761459350586 L761.6949462890625,123.01604461669922 L761.76904296875,122.74919891357422 L762.068115234375,122.06148529052734 L762.60986328125,121.0318832397461 L763.4531860351562,119.78279113769531 L764.509765625,118.4301986694336 L765.6943359375,117.11690521240234 L766.91552734375,115.96990966796875 L768.1257934570312,115.11007690429688 L769.2653198242188,114.595947265625 L770.3888549804688,114.50314331054688 L771.4844360351562,114.85269165039062 L772.5213012695312,115.67292022705078 L773.4505004882812,116.93705749511719 L774.1671142578125,118.54231262207031 L774.603515625,120.31266784667969 L774.7614135742188,122.07238006591797 L774.674560546875,123.64460754394531 L774.494140625,124.85396575927734 L774.3987426757812,125.58191680908203 L774.509765625,125.7806167602539 L774.7529907226562,125.645751953125 L775.001708984375,125.40552520751953 M783.23095703125,115.15796661376953 L783.2872314453125,115.1585693359375 L783.369140625,115.35706329345703 L783.4351196289062,115.90481567382812 L783.4277954101562,116.90998077392578 L783.3192138671875,118.29710388183594 L783.0648193359375,119.87659454345703 L782.704345703125,121.44474792480469 L782.285400390625,122.77467346191406 L781.8734130859375,123.678466796875 L781.5234985351562,124.0894546508789 L781.2877197265625,124.1359634399414 L781.158447265625,124.0079574584961 M784.2366333007812,107.75584411621094 L784.25244140625,107.39476013183594 L784.3193359375,106.92694854736328 L784.4094848632812,106.50768280029297 L784.4953002929688,106.2922134399414 M794.3673095703125,119.0547866821289 L794.3040771484375,118.97855377197266 L794.0961303710938,118.76274871826172 L793.611572265625,118.37681579589844 L792.7496948242188,117.86822509765625 L791.5345458984375,117.34095764160156 L790.0980834960938,116.91134643554688 L788.70751953125,116.67134094238281 L787.70703125,116.70430755615234 L787.3074951171875,117.05255889892578 L787.578369140625,117.74209594726562 L788.46435546875,118.7364730834961 L789.7457885742188,119.92621612548828 L791.1498413085938,121.18609619140625 L792.4168090820312,122.38484954833984 L793.2869873046875,123.40650177001953 L793.5950927734375,124.18982696533203 L793.3096313476562,124.71835327148438 L792.4805297851562,124.99129486083984 L791.22705078125,125.03785705566406 L789.71337890625,124.86241149902344 L788.1470947265625,124.52833557128906 L786.73828125,124.1236572265625 L785.7376708984375,123.7867660522461 L785.2020874023438,123.58543395996094 M819.3942260742188,121.70342254638672 L819.300048828125,121.3209228515625 L819.0336303710938,120.6993408203125 L818.5304565429688,119.93939208984375 L817.7526245117188,119.2511978149414 L816.70654296875,118.74671936035156 L815.423583984375,118.53673553466797 L813.9927368164062,118.70625305175781 L812.5279541015625,119.30210876464844 L811.198974609375,120.29100036621094 L810.2030639648438,121.58285522460938 L809.7684936523438,122.97909545898438 L810.0596313476562,124.230224609375 L811.1484375,125.14237976074219 L812.9501953125,125.5528564453125 L815.2140502929688,125.3772201538086 L817.61181640625,124.68763732910156 L819.8095703125,123.60226440429688 L821.4796142578125,122.26226043701172 L822.4401245117188,120.87728118896484 L822.6550903320312,119.61726379394531 L822.2607421875,118.6167984008789 L821.5259399414062,117.9644775390625 L820.8335571289062,117.63697814941406 L820.3771362304688,117.52556610107422 M827.830322265625,116.29129028320312 L827.866455078125,116.15860748291016 L827.9107666015625,116.08977508544922 L827.9243774414062,116.25176239013672 L827.8268432617188,116.80857849121094 L827.56201171875,117.7657699584961 L827.1487426757812,119.02943420410156 L826.6752319335938,120.4024429321289 L826.2714233398438,121.70024871826172 L826.05078125,122.79061126708984 L826.0640869140625,123.55966186523438 L826.3345336914062,123.92041778564453 L826.8745727539062,123.8106460571289 L827.6929931640625,123.19367980957031 L828.7888793945312,122.13876342773438 L830.0563354492188,120.88282775878906 L831.3475952148438,119.67342376708984 L832.4904174804688,118.69685363769531 L833.4005737304688,118.0382308959961 L834.04638671875,117.70896911621094 L834.4937133789062,117.71473693847656 L834.7266235351562,118.13419342041016 L834.7660522460938,118.99773406982422 L834.593505859375,120.16223907470703 L834.2999877929688,121.39263153076172 L833.958984375,122.4356918334961 L833.76611328125,123.05789184570312 L833.8593139648438,123.16081237792969 L834.4102783203125,122.75099182128906 L835.486328125,121.83853912353516 L837.0751953125,120.53736114501953 L838.99951171875,119.08760070800781 L841.0946044921875,117.68992614746094 L843.1107177734375,116.53248596191406 L844.8294067382812,115.71298217773438 L846.0157470703125,115.2305679321289 L846.6430053710938,114.99947357177734 M848.7070922851562,115.63896942138672 L848.7718505859375,115.52873229980469 L848.8558349609375,115.44366455078125 L848.91796875,115.52205657958984 L848.929443359375,115.93114471435547 L848.8724975585938,116.73989868164062 L848.70703125,117.88097381591797 L848.4501342773438,119.19532775878906 L848.1509399414062,120.4627914428711 L847.874267578125,121.50055694580078 L847.7132568359375,122.21109771728516 L847.7012329101562,122.56178283691406 L847.8328857421875,122.51663970947266 L848.1224365234375,122.08879852294922 L848.5752563476562,121.26728820800781 L849.2369384765625,120.14629364013672 L850.1358642578125,118.89440155029297 L851.26953125,117.68102264404297 L852.594482421875,116.58731079101562 L854.0650634765625,115.73052215576172 L855.535400390625,115.14532470703125 L856.9305419921875,114.91804504394531 L858.1243896484375,115.1224365234375 L859.020263671875,115.78359985351562 L859.5257568359375,116.83036804199219 L859.6717529296875,118.2219467163086 L859.4716186523438,119.81944274902344 L859.06591796875,121.47486877441406 L858.617919921875,122.91719818115234 L858.2975463867188,123.89424133300781 L858.19677734375,124.24673461914062 L858.2764892578125,124.1702651977539 L858.4114379882812,123.92084503173828 M874.5809936523438,108.28753662109375 L874.6736450195312,108.29573059082031 L874.7871704101562,108.48858642578125 L874.8837890625,108.98982238769531 L874.889404296875,109.90656280517578 L874.7308959960938,111.1872329711914 L874.405029296875,112.74968719482422 L873.9330444335938,114.50132751464844 L873.3941040039062,116.36491394042969 L872.8933715820312,118.21866607666016 L872.4983520507812,119.97972106933594 L872.2000122070312,121.56150817871094 L871.9490966796875,122.85974884033203 L871.6422729492188,123.772705078125 L871.2777099609375,124.26374053955078 L870.938720703125,124.41046142578125 L870.7011108398438,124.3614501953125 M866.4071044921875,117.65873718261719 L866.5775756835938,117.47750091552734 L867.1693725585938,117.19197082519531 L868.3812255859375,116.83096313476562 L870.2323608398438,116.4651870727539 L872.4944458007812,116.13003540039062 L874.7870483398438,115.87081909179688 L876.7737426757812,115.70833587646484 L878.2633056640625,115.63479614257812 L879.2510375976562,115.59513092041016 L879.8764038085938,115.53787231445312 L880.2412109375,115.4686508178711 L880.4281616210938,115.40841674804688 M882.1295776367188,115.29823303222656 L882.1173095703125,115.49472045898438 L882.0598754882812,115.95103454589844 L881.9420776367188,116.70149230957031 L881.7713623046875,117.71997833251953 L881.57763671875,118.91600799560547 L881.317626953125,120.12596130371094 L881.036865234375,121.23950958251953 L880.774658203125,122.10987091064453 L880.5962524414062,122.59129333496094 L880.58056640625,122.66068267822266 L880.6781616210938,122.484375 L880.7883911132812,122.23692321777344 M882.1646118164062,108.05389404296875 L882.2195434570312,107.90228271484375 L882.3687744140625,107.80667877197266 L882.5538940429688,107.78726196289062 L882.71630859375,107.86418151855469 M889.3976440429688,114.38237762451172 L889.4299926757812,114.70233917236328 L889.45458984375,115.39298248291016 L889.3850708007812,116.4931640625 L889.1553955078125,117.94734191894531 L888.7182006835938,119.62992858886719 L888.130615234375,121.37156677246094 L887.4998779296875,122.93817901611328 L886.9524536132812,124.17959594726562 L886.6047973632812,124.95287322998047 L886.5396728515625,125.24290466308594 L886.7623901367188,125.04475402832031 L887.3378295898438,124.3862075805664 L888.2650146484375,123.2560806274414 L889.55029296875,121.81668853759766 L891.1802368164062,120.22564697265625 L892.9931030273438,118.70297241210938 L894.7576293945312,117.43099975585938 L896.2840576171875,116.5035629272461 L897.3966064453125,115.89808654785156 L898.0975341796875,115.64198303222656 L898.49462890625,115.67699432373047 L898.7216186523438,115.93946075439453 L898.8595581054688,116.26499938964844 L898.9514770507812,116.52312469482422 M903.8860473632812,122.52872467041016 L904.185791015625,122.53583526611328 L904.9268798828125,122.46398162841797 L906.1756591796875,122.23909759521484 L907.7998657226562,121.81340789794922 L909.496337890625,121.21147155761719 L910.9967651367188,120.4837417602539 L912.0953979492188,119.70501708984375 L912.74462890625,118.90504455566406 L912.931640625,118.12078857421875 L912.6507568359375,117.39617919921875 L911.8399047851562,116.82054901123047 L910.4857177734375,116.49555969238281 L908.7003784179688,116.531982421875 L906.6820678710938,116.96654510498047 L904.711669921875,117.79976654052734 L903.0245361328125,118.95603942871094 L901.808837890625,120.36872863769531 L901.1697387695312,121.9049072265625 L901.2030029296875,123.4239501953125 L902.0399780273438,124.71247863769531 L903.7032470703125,125.59447479248047 L905.99853515625,125.97003173828125 L908.1599731445312,125.99800109863281 L909.6559448242188,125.86764526367188 M922.3005981445312,121.28240203857422 L922.2805786132812,120.86624145507812 L922.2398681640625,120.182373046875 L922.1361083984375,119.31564331054688 L921.8902587890625,118.45993041992188 L921.3638916015625,117.70343017578125 L920.4710693359375,117.18621826171875 L919.160400390625,116.99642181396484 L917.5302124023438,117.21865844726562 L915.7964477539062,117.86890411376953 L914.2409057617188,118.87254333496094 L913.1437377929688,120.08644104003906 L912.7224731445312,121.36431884765625 L913.0017700195312,122.51931762695312 L913.9498901367188,123.39250946044922 L915.40966796875,123.86305236816406 L917.1650390625,123.82230377197266 L919.0552368164062,123.22901916503906 L920.9478759765625,122.08076477050781 L922.6730346679688,120.42552947998047 L924.1710205078125,118.376708984375 L925.3890991210938,116.12283325195312 L926.3001708984375,113.83165740966797 L926.9564208984375,111.68505859375 L927.4306030273438,109.81388854980469 L927.7483520507812,108.31844329833984 L927.993896484375,107.24642944335938 L928.2257690429688,106.6648941040039 L928.4417114257812,106.58666229248047 L928.568359375,107.06428527832031 L928.4949340820312,108.15451049804688 L928.09375,109.85487365722656 L927.3341064453125,112.06587982177734 L926.2788696289062,114.64628601074219 L925.0894165039062,117.34774780273438 L923.9609985351562,119.9643325805664 L923.0899047851562,122.25141143798828 L922.5577392578125,123.97112274169922 L922.345458984375,124.99063873291016 L922.3261108398438,125.4182357788086 L922.3734130859375,125.46505737304688 M942.2862548828125,108.36906433105469 L942.431640625,108.37532043457031 L942.6615600585938,108.56129455566406 L942.9249877929688,109.09481048583984 L943.0968017578125,110.09036254882812 L943.0729370117188,111.54087829589844 L942.8057250976562,113.36128997802734 L942.3112182617188,115.41405487060547 L941.6387939453125,117.52769470214844 L940.8735961914062,119.5521469116211 L940.079345703125,121.3315658569336 L939.346435546875,122.7537841796875 L938.74267578125,123.79135131835938 L938.3477783203125,124.46234130859375 L938.1890258789062,124.74104309082031 L938.2687377929688,124.59378051757812 L938.5794677734375,123.95897674560547 L939.1898193359375,122.82579040527344 L940.1393432617188,121.33209991455078 L941.47216796875,119.68436431884766 L943.1511840820312,118.06385040283203 L945.0802001953125,116.65289306640625 L947.116455078125,115.59862518310547 L949.1387329101562,115.03373718261719 L951.0045776367188,115.08975982666016 L952.58984375,115.77040100097656 L953.7958984375,116.97544860839844 L954.5591430664062,118.54557800292969 L954.8389892578125,120.34428405761719 L954.678466796875,122.2164535522461 L954.1873779296875,124.02839660644531 L953.6426391601562,125.42437744140625 L953.241943359375,126.26180267333984 M968.9717407226562,119.25556182861328 L969.1257934570312,118.80619049072266 L969.2974243164062,118.12418365478516 L969.3546142578125,117.34839630126953 L969.1229858398438,116.68604278564453 L968.504638671875,116.20997619628906 L967.4829711914062,116.00652313232422 L966.1139526367188,116.14007568359375 L964.5130004882812,116.6692886352539 L962.8372802734375,117.6513442993164 L961.2793579101562,119.02107238769531 L960.0109252929688,120.6842041015625 L959.169921875,122.47748565673828 L958.83642578125,124.20497131347656 L959.1098022460938,125.64152526855469 L959.9857788085938,126.63497161865234 L961.4373168945312,127.04391479492188 L963.3322143554688,126.83397674560547 L965.4848022460938,126.0333480834961 L967.5868530273438,124.73861694335938 L969.4375610351562,123.10016632080078 L970.795166015625,121.31232452392578 L971.58203125,119.57830047607422 L971.8557739257812,118.05696105957031 L971.7955322265625,116.87507629394531 L971.5516967773438,116.12135314941406 L971.2987060546875,115.88665008544922 L971.0966186523438,116.25762939453125 L970.9653930664062,117.28598022460938 L970.9039916992188,118.85960388183594 L970.8995361328125,120.7766342163086 L970.9319458007812,122.76055145263672 L970.94140625,124.52083587646484 L970.923583984375,125.86849212646484 L970.8744506835938,126.7182388305664 L970.818115234375,127.11698913574219 L970.7800903320312,127.22480010986328 M977.8828735351562,115.84169006347656 L977.9182739257812,116.29566192626953 L977.9546508789062,117.18402099609375 L977.9374389648438,118.51348876953125 L977.76953125,120.11653137207031 L977.37060546875,121.83740234375 L976.7478637695312,123.50110626220703 L976.03564453125,124.96562194824219 L975.4015502929688,126.09478759765625 L974.9772338867188,126.77108764648438 L974.8201904296875,126.92105102539062 L974.9127197265625,126.56232452392578 L975.22998046875,125.70232391357422 L975.7459106445312,124.4233627319336 L976.439208984375,122.84232330322266 L977.2828979492188,121.07364654541016 L978.2877197265625,119.2716064453125 L979.5048828125,117.61394500732422 L980.95849609375,116.23338317871094 L982.620361328125,115.25611877441406 L984.3893432617188,114.77279663085938 L986.0934448242188,114.846923828125 L987.5060424804688,115.48629760742188 L988.4732055664062,116.62419128417969 L988.875732421875,118.18196868896484 L988.75048828125,119.96185302734375 L988.2410888671875,121.74163818359375 L987.6761474609375,123.13473510742188 L987.257568359375,123.97116088867188 M998.6048583984375,123.01056671142578 L998.8673095703125,122.83549499511719 L999.2083740234375,122.41690826416016 L999.4992065429688,121.71285247802734 L999.577392578125,120.80524444580078 L999.3812255859375,119.87997436523438 L998.8545532226562,119.1092758178711 L997.93994140625,118.65135192871094 L996.6690063476562,118.60648345947266 L995.143798828125,119.01280212402344 L993.58154296875,119.86666107177734 L992.2206420898438,121.12948608398438 L991.234619140625,122.613037109375 L990.7211303710938,124.12908935546875 L990.6774291992188,125.43798828125 L991.0375366210938,126.31242370605469 L991.7435302734375,126.58773803710938 L992.7737426757812,126.217041015625 L994.0567626953125,125.18569946289062 L995.538330078125,123.60540008544922 L997.0618896484375,121.59166717529297 L998.4789428710938,119.29740905761719 L999.6905517578125,116.9079360961914 L1000.684326171875,114.68321228027344 L1001.4358520507812,112.8341064453125 L1001.9788208007812,111.50106048583984 L1002.2892456054688,110.73731231689453 L1002.4129028320312,110.5614013671875 L1002.4176025390625,110.99400329589844 L1002.3536376953125,112.07299041748047 L1002.214599609375,113.74847412109375 L1001.9930419921875,115.83607482910156 L1001.6905517578125,118.15621948242188 L1001.4027099609375,120.45954895019531 L1001.23193359375,122.55233764648438 L1001.1853637695312,124.09709167480469 L1001.21728515625,124.99205780029297 M1015.5949096679688,120.13894653320312 L1015.5653686523438,119.86563110351562 L1015.4754028320312,119.39794921875 L1015.1904907226562,118.78911590576172 L1014.5813598632812,118.19664001464844 L1013.5283813476562,117.73090362548828 L1012.0762329101562,117.4913101196289 L1010.4642944335938,117.4931640625 L1009.0393676757812,117.7342529296875 L1008.0846557617188,118.1473617553711 L1007.8513793945312,118.6688003540039 L1008.3710327148438,119.25010681152344 L1009.5390014648438,119.84876251220703 L1011.1199340820312,120.42676544189453 L1012.8186645507812,120.99915313720703 L1014.3191528320312,121.55332946777344 L1015.4649047851562,122.10195922851562 L1016.1430053710938,122.67205810546875 L1016.2738647460938,123.2314682006836 L1015.7931518554688,123.7596435546875 L1014.6377563476562,124.23616027832031 L1012.8793334960938,124.6148681640625 L1010.8053588867188,124.88814544677734 L1009.0382690429688,125.05887603759766 L1007.9171752929688,125.13347625732422 M1020.0715942382812,125.31963348388672 L1020.1033325195312,125.30516815185547 L1020.1082153320312,125.277099609375 L1020.0442504882812,125.24137115478516 L1019.8829956054688,125.23194885253906 L1019.6254272460938,125.27384948730469 L1019.3432006835938,125.36631774902344 L1019.1281127929688,125.48070526123047 L1019.0289916992188,125.5831527709961 L1019.0852661132812,125.65629577636719 L1019.2216186523438,125.70171356201172 L1019.3482055664062,125.73130798339844 M999.4404907226562,119.14868927001953 L999.5097045898438,119.1867446899414 L999.6126708984375,119.18595886230469 L999.7317504882812,119.05924224853516 L999.858642578125,118.71475219726562 L1000.0773315429688,118.12862396240234 L1000.447265625,117.27532958984375 L1001.0440063476562,116.20482635498047 L1001.9034423828125,115.00537109375 L1002.9448852539062,113.76022338867188 L1004.0650024414062,112.57511138916016 L1005.1188354492188,111.53946685791016 L1005.9756469726562,110.67677307128906 L1006.5640258789062,110.02330017089844 L1006.8750610351562,109.58385467529297 L1006.8540649414062,109.34957122802734 L1006.5132446289062,109.33485412597656 L1005.8179321289062,109.54309844970703 L1004.8400268554688,109.95823669433594 L1003.7348022460938,110.5443344116211 L1002.7355346679688,111.21231079101562 L1001.9594116210938,111.84538269042969 L1001.5943603515625,112.34860229492188 L1001.5272827148438,112.66064453125 L1001.6148071289062,112.80280303955078 " fill="none" stroke="black" stroke-linecap="round" stroke-width="2" /></svg>