<?xml version="1.0" encoding="utf-8" ?>
<svg baseProfile="full" height="100%" version="1.1" viewBox="0,0,1000,240" width="100%" xmlns="http://www.w3.org/2000/svg" xmlns:ev="http://www.w3.org/2001/xml-events" xmlns:xlink="http://www.w3.org/1999/xlink"><defs /><rect fill="white" height="240" width="1000" x="0" y="0" /><path d="M0,0 M130.49671936035156,105.3016357421875 L130.5260772705078,105.63850402832031 L130.56063842773438,106.36178588867188 L130.58590698242188,107.55648803710938 L130.58937072753906,109.21417999267578 L130.57830810546875,111.30354309082031 L130.5780792236328,113.73284149169922 L130.59408569335938,116.36229705810547 L130.65664672851562,119.00072479248047 L130.7905731201172,121.40459442138672 L131.01583862304688,123.37662506103516 L131.25291442871094,124.69425964355469 L131.4410858154297,125.36991119384766 M138.14283752441406,105.0 L138.04348754882812,105.67127227783203 L137.89859008789062,106.93299102783203 L137.7421875,108.78656768798828 L137.6212158203125,111.04743957519531 L137.55819702148438,113.61508178710938 L137.5582733154297,116.33171081542969 L137.62283325195312,119.02482604980469 L137.74197387695312,121.3919906616211 L137.87046813964844,123.14685821533203 L137.9457244873047,124.11579895019531 L137.96261596679688,124.4455795288086 L137.93582153320312,124.40989685058594 M131.10336303710938,116.86309814453125 L131.42051696777344,117.0094223022461 L132.1538848876953,117.23554229736328 L133.38897705078125,117.47405242919922 L135.0801544189453,117.59476470947266 L137.11334228515625,117.49855041503906 L139.32391357421875,117.12698364257812 L141.52151489257812,116.48100280761719 L143.53158569335938,115.65291595458984 L145.16873168945312,114.77777099609375 L146.3255615234375,113.9962387084961 L146.9622802734375,113.45113372802734 L147.13429260253906,113.2742919921875 L146.94476318359375,113.55711364746094 L146.52755737304688,114.38896179199219 L146.0123748779297,115.75011444091797 L145.54803466796875,117.50334167480469 L145.2572021484375,119.43511199951172 L145.2450714111328,121.29928588867188 L145.55384826660156,122.88978576660156 L146.190673828125,123.98568725585938 L147.08187866210938,124.4383544921875 L148.10189819335938,124.2110366821289 L148.9628143310547,123.65476989746094 L149.51123046875,123.1055679321289 M145.31222534179688,106.71896362304688 L145.3011932373047,106.6905517578125 L145.336669921875,106.65279388427734 L145.39987182617188,106.61840057373047 L145.47201538085938,106.60010528564453 M153.84080505371094,122.24829864501953 L153.85739135742188,122.67007446289062 L153.83596801757812,123.47640228271484 L153.7079315185547,124.6602783203125 L153.36509704589844,126.11512756347656 L152.76724243164062,127.7158203125 L151.96383666992188,129.30311584472656 L151.2197265625,130.55197143554688 L150.71266174316406,131.30923461914062 M170.5195770263672,108.24244689941406 L170.5244140625,108.69255828857422 L170.50680541992188,109.64295959472656 L170.43869018554688,111.15283203125 L170.31724548339844,113.13128662109375 L170.15570068359375,115.4682846069336 L169.97930908203125,117.9917221069336 L169.82537841796875,120.5352783203125 L169.73287963867188,122.86444091796875 L169.71868896484375,124.72122955322266 L169.80027770996094,125.9388198852539 L169.91673278808594,126.54341888427734 L170.01629638671875,126.71415710449219 M164.51535034179688,117.47224426269531 L164.72006225585938,117.62580871582031 L165.27151489257812,117.85674285888672 L166.28399658203125,118.08879852294922 L167.79443359375,118.11199188232422 L169.66220092773438,117.79766845703125 L171.66717529296875,117.12377166748047 L173.30105590820312,116.38190460205078 L174.31793212890625,115.8142318725586 M176.17626953125,108.51548767089844 L176.15069580078125,108.88888549804688 L176.10440063476562,109.74617004394531 L176.0445556640625,111.17169189453125 L175.99697875976562,113.06587982177734 L175.98422241210938,115.22256469726562 L176.0273895263672,117.38938903808594 L176.1385498046875,119.34185791015625 L176.30694580078125,120.90880584716797 L176.54501342773438,121.9494400024414 L176.88323974609375,122.36641693115234 L177.36111450195312,122.11649322509766 L178.02674865722656,121.25222778320312 L178.88204956054688,119.94947814941406 L179.84808349609375,118.48540496826172 L180.8079071044922,117.12841796875 L181.62832641601562,116.08015441894531 L182.2181396484375,115.44950866699219 L182.5537872314453,115.27955627441406 L182.673095703125,115.58456420898438 L182.64480590820312,116.37989044189453 L182.54449462890625,117.59660339355469 L182.47129821777344,119.07006072998047 L182.55438232421875,120.57911682128906 L182.89678955078125,121.87525939941406 L183.56088256835938,122.7302474975586 L184.54873657226562,123.00953674316406 L185.7764892578125,122.6545639038086 L187.1243896484375,121.70404815673828 L188.46478271484375,120.34063720703125 L189.6324005126953,118.81803131103516 L190.51544189453125,117.39664459228516 L191.06784057617188,116.29851531982422 L191.31353759765625,115.68219757080078 L191.34005737304688,115.61050415039062 L191.24362182617188,116.09284210205078 L191.087646484375,117.08139038085938 L190.95932006835938,118.44282531738281 L190.91525268554688,119.99322509765625 L191.02793884277344,121.48045349121094 L191.3133544921875,122.63304901123047 L191.72946166992188,123.25879669189453 L192.11944580078125,123.44330596923828 L192.38916015625,123.37206268310547 M193.34417724609375,110.99861145019531 L193.39117431640625,111.0321273803711 L193.53616333007812,111.14796447753906 L193.72128295898438,111.29969787597656 L193.88864135742188,111.44088745117188 M202.906005859375,113.45651245117188 L202.62570190429688,113.4343032836914 L202.05026245117188,113.47489166259766 L201.20021057128906,113.64104461669922 L200.25216674804688,113.9897689819336 L199.44085693359375,114.51705169677734 L199.00643920898438,115.2190933227539 L199.101318359375,116.08827209472656 L199.73756408691406,117.10633850097656 L200.8209991455078,118.23057556152344 L202.15234375,119.39553833007812 L203.48867797851562,120.506591796875 L204.5804901123047,121.49636840820312 L205.22549438476562,122.33280944824219 L205.28761291503906,123.0074691772461 L204.7515869140625,123.53105163574219 L203.67115783691406,123.90412902832031 L202.23709106445312,124.12165832519531 L200.7069091796875,124.20075988769531 L199.48843383789062,124.19682312011719 L198.75828552246094,124.16284942626953 M219.11952209472656,114.50440216064453 L219.068603515625,114.85875701904297 L218.96649169921875,115.57263946533203 L218.80819702148438,116.67298126220703 L218.60926818847656,118.0534439086914 L218.40023803710938,119.60968780517578 L218.2316131591797,121.18070220947266 L218.14425659179688,122.62287139892578 L218.19583129882812,123.72077178955078 L218.39859008789062,124.29695892333984 L218.73373413085938,124.26768493652344 L219.06976318359375,123.90567779541016 L219.31472778320312,123.48906707763672 M221.23731994628906,108.82788848876953 L221.16969299316406,108.68718719482422 L221.09738159179688,108.53803253173828 L221.04226684570312,108.42604064941406 L221.02618408203125,108.39681243896484 M229.42201232910156,113.02547454833984 L228.89736938476562,113.15608215332031 L228.01083374023438,113.43161010742188 L226.90118408203125,113.87704467773438 L225.8832244873047,114.48251342773438 L225.18653869628906,115.23809051513672 L225.02572631835938,116.1256103515625 L225.47972106933594,117.12525939941406 L226.51181030273438,118.20513153076172 L227.9368896484375,119.30567932128906 L229.44725036621094,120.37112426757812 L230.69769287109375,121.33975982666016 L231.39993286132812,122.17190551757812 L231.37252807617188,122.86022186279297 L230.58966064453125,123.42813110351562 L229.1488494873047,123.88412475585938 L227.27200317382812,124.21034240722656 L225.29107666015625,124.36873626708984 L223.53118896484375,124.3465576171875 L222.3090057373047,124.22557830810547 L221.6790771484375,124.09791564941406 M242.5279083251953,117.97361755371094 L242.81680297851562,117.00138854980469 L243.35824584960938,115.3541030883789 L244.1244354248047,113.21174621582031 L244.99270629882812,111.0150146484375 L245.8644256591797,109.0123062133789 L246.64083862304688,107.38516998291016 L247.29232788085938,106.22062683105469 L247.80210876464844,105.57437896728516 L248.20156860351562,105.4721908569336 L248.53822326660156,105.93612670898438 L248.81900024414062,107.0088119506836 L249.0172119140625,108.69354248046875 L249.1138153076172,110.92143249511719 L249.0930633544922,113.51776123046875 L249.00131225585938,116.2280044555664 L248.8805389404297,118.72737884521484 L248.73577880859375,120.72669219970703 L248.57498168945312,122.04843139648438 L248.433349609375,122.71735382080078 L248.33038330078125,122.92667388916016 M243.61502075195312,114.98516082763672 L243.7130889892578,115.04206085205078 L244.05772399902344,115.1373291015625 L244.7860565185547,115.24815368652344 L245.96678161621094,115.32007598876953 L247.53526306152344,115.30097198486328 L249.33920288085938,115.13159942626953 L251.22088623046875,114.7850112915039 L252.9940643310547,114.28536987304688 L254.50799560546875,113.70148468017578 L255.6601104736328,113.13848114013672 L256.3885192871094,112.71723175048828 L256.7054748535156,112.55083465576172 L256.71160888671875,112.7236099243164 L256.4860534667969,113.29881286621094 L256.13177490234375,114.28214263916016 L255.74710083007812,115.60047912597656 L255.43238830566406,117.08960723876953 L255.26385498046875,118.5454330444336 L255.29550170898438,119.75369262695312 L255.51918029785156,120.54412078857422 L255.92959594726562,120.81047821044922 L256.53057861328125,120.50741577148438 L257.3393859863281,119.6447525024414 L258.33966064453125,118.36285400390625 L259.4675598144531,116.89262390136719 L260.59698486328125,115.48573303222656 L261.6043701171875,114.35880279541016 L262.39642333984375,113.64105224609375 L262.9288024902344,113.37104797363281 L263.2186279296875,113.5917739868164 L263.296875,114.30630493164062 L263.206298828125,115.46952819824219 L263.04107666015625,116.96249389648438 L262.9134826660156,118.59626770019531 L262.9332275390625,120.13394927978516 L263.24658203125,121.31436157226562 L263.88043212890625,121.94064331054688 L264.7809143066406,121.96187591552734 L265.6398010253906,121.64608764648438 L266.24090576171875,121.2815933227539 M269.2850341796875,114.06119537353516 L269.2244873046875,114.39491271972656 L269.11859130859375,115.08877563476562 L268.98077392578125,116.15541076660156 L268.8747863769531,117.44886016845703 L268.8980712890625,118.79296875 L269.1293640136719,119.97068786621094 L269.62725830078125,120.78502655029297 L270.420654296875,121.09138488769531 L271.4686279296875,120.81024169921875 L272.71221923828125,119.96585845947266 L274.04547119140625,118.70973205566406 L275.31585693359375,117.29031372070312 L276.3778076171875,115.96510314941406 L277.135009765625,114.93834686279297 L277.56488037109375,114.34322357177734 L277.7300109863281,114.24913787841797 L277.70782470703125,114.68047332763672 L277.577392578125,115.6446762084961 L277.40679931640625,117.0523681640625 L277.3262634277344,118.6920394897461 L277.44903564453125,120.28053283691406 L277.830322265625,121.55199432373047 L278.29302978515625,122.33989715576172 L278.67071533203125,122.69343566894531 M284.7432861328125,106.81568145751953 L284.7153015136719,106.98837280273438 L284.6604919433594,107.51863098144531 L284.552978515625,108.55437469482422 L284.3609313964844,110.10846710205078 L284.06475830078125,112.06513977050781 L283.6880798339844,114.23643493652344 L283.33050537109375,116.39884948730469 L283.10711669921875,118.36811828613281 L283.0901184082031,119.97518920898438 L283.294189453125,121.08354949951172 L283.68402099609375,121.63418579101562 L284.20556640625,121.63084411621094 L284.8592529296875,121.14215850830078 L285.653564453125,120.30667877197266 L286.57733154296875,119.29670715332031 L287.61212158203125,118.29595947265625 L288.7106018066406,117.47406005859375 L289.7937316894531,116.95699310302734 L290.8040771484375,116.8252944946289 L291.67901611328125,117.11090087890625 L292.3398132324219,117.77684020996094 L292.7114562988281,118.74955749511719 L292.7154541015625,119.92218017578125 L292.2669677734375,121.16600036621094 L291.3367004394531,122.35807800292969 L289.96551513671875,123.3853988647461 L288.29571533203125,124.14944458007812 L286.564453125,124.52490234375 L285.048095703125,124.44801330566406 L283.9453430175781,123.92742156982422 L283.32366943359375,123.27320861816406 L283.0810546875,122.7406005859375 M295.8285827636719,108.40791320800781 L295.9990234375,108.57427978515625 L296.1816711425781,109.05455780029297 L296.2674560546875,109.99099731445312 L296.15997314453125,111.43195343017578 L295.912841796875,113.30158233642578 L295.5970153808594,115.4321060180664 L295.31524658203125,117.5885238647461 L295.12969970703125,119.52461242675781 L295.0581970214844,121.04864501953125 L295.1170959472656,122.02964782714844 L295.3310546875,122.3954849243164 L295.75115966796875,122.14795684814453 L296.4582824707031,121.34642791748047 L297.4639587402344,120.10895538330078 L298.70953369140625,118.6436538696289 L300.0694885253906,117.1789779663086 L301.36761474609375,115.90760040283203 L302.4830322265625,114.98039245605469 L303.35699462890625,114.4942398071289 L303.9602966308594,114.50012969970703 L304.30352783203125,115.01305389404297 L304.41455078125,116.0014419555664 L304.30194091796875,117.34955596923828 L304.086669921875,118.87384796142578 L303.9202880859375,120.34886169433594 L303.9536437988281,121.5749740600586 L304.13238525390625,122.38187408447266 L304.35369873046875,122.78253936767578 M312.638916015625,114.84378814697266 L312.38372802734375,114.62281036376953 L311.8636474609375,114.4217758178711 L311.0520935058594,114.42112731933594 L310.03118896484375,114.82979583740234 L308.9161376953125,115.66949462890625 L307.8636474609375,116.86573028564453 L307.0468444824219,118.25720977783203 L306.60076904296875,119.65052795410156 L306.6051025390625,120.8353271484375 L307.0754089355469,121.64505004882812 L307.97308349609375,121.95941925048828 L309.19476318359375,121.72660064697266 L310.6081848144531,120.97460174560547 L312.03753662109375,119.80235290527344 L313.3013916015625,118.39556121826172 L314.2669677734375,116.9931411743164 L314.896484375,115.8076400756836 L315.2044677734375,114.98727416992188 L315.25323486328125,114.6021728515625 L315.1123962402344,114.67866516113281 L314.82781982421875,115.24357604980469 L314.46917724609375,116.30130767822266 L314.13519287109375,117.76425170898438 L313.92266845703125,119.46954345703125 L313.90643310546875,121.19037628173828 L314.1327209472656,122.7018051147461 L314.60565185546875,123.81401062011719 L315.30755615234375,124.39725494384766 L316.20245361328125,124.37281799316406 L317.248291015625,123.74386596679688 L318.3723449707031,122.58909606933594 L319.49725341796875,121.07291412353516 L320.548095703125,119.40418243408203 L321.43365478515625,117.82172393798828 L322.09234619140625,116.51872253417969 L322.5069274902344,115.59286499023438 L322.69500732421875,115.07286071777344 L322.7048645019531,114.95379638671875 L322.5982971191406,115.23316955566406 L322.4029541015625,115.93283081054688 L322.16943359375,117.03324127197266 L321.9713134765625,118.41670989990234 L321.91717529296875,119.92403411865234 L322.1078796386719,121.36866760253906 L322.60345458984375,122.5749740600586 L323.383056640625,123.40606689453125 L324.3853759765625,123.76506042480469 L325.5114440917969,123.59194946289062 L326.6675109863281,122.89620971679688 L327.7568359375,121.75846099853516 L328.6900634765625,120.30426025390625 L329.3858947753906,118.69132232666016 L329.80072021484375,117.07565307617188 L329.92266845703125,115.59977722167969 L329.8040466308594,114.36918640136719 L329.56536865234375,113.48091125488281 L329.3561096191406,112.97611236572266 L329.29608154296875,112.84048461914062 L329.36083984375,112.9178695678711 L329.4721984863281,113.05712890625 M354.43402099609375,111.09251403808594 L354.202392578125,110.73359680175781 L353.716064453125,110.20238494873047 L352.92047119140625,109.62936401367188 L351.8053283691406,109.22235870361328 L350.38226318359375,109.07145690917969 L348.7345886230469,109.22616577148438 L347.0330810546875,109.68521118164062 L345.51629638671875,110.45048522949219 L344.44091796875,111.4884262084961 L343.9674987792969,112.73745727539062 L344.18182373046875,114.11968231201172 L345.06182861328125,115.56243896484375 L346.51397705078125,117.00205993652344 L348.34759521484375,118.39569854736328 L350.32562255859375,119.70480346679688 L352.1365051269531,120.88981628417969 L353.4970703125,121.91204833984375 L354.1668701171875,122.76106262207031 L354.0086669921875,123.4378662109375 L352.9715576171875,123.95063781738281 L351.16351318359375,124.31835174560547 L348.78216552734375,124.53573608398438 L346.1341857910156,124.6067123413086 L343.5760498046875,124.51106262207031 L341.4430236816406,124.24689483642578 L339.9400634765625,123.84381103515625 L339.1123046875,123.45487213134766 L338.7943420410156,123.17583465576172 M358.1690979003906,117.82762908935547 L358.05267333984375,118.30767059326172 L357.85693359375,119.17770385742188 L357.6094665527344,120.3759994506836 L357.3853759765625,121.69961547851562 L357.2354736328125,123.00553894042969 L357.1894836425781,124.15753936767578 L357.2088317871094,124.9859848022461 L357.2535705566406,125.45388793945312 M359.67327880859375,110.19283294677734 L359.65679931640625,110.03278350830078 L359.6817626953125,109.91593933105469 L359.7343444824219,109.87064361572266 L359.8006591796875,109.92522430419922 M364.4815673828125,117.97225189208984 L364.4546813964844,118.44522094726562 L364.3572082519531,119.31017303466797 L364.15081787109375,120.51534271240234 L363.8433532714844,121.8556900024414 L363.5105285644531,123.17015075683594 L363.23638916015625,124.29985046386719 L363.1033630371094,125.1187744140625 L363.1453857421875,125.5139389038086 L363.3758239746094,125.4010009765625 L363.81256103515625,124.753173828125 L364.4906921386719,123.63053894042969 L365.40606689453125,122.19552612304688 L366.52197265625,120.66144561767578 L367.7317199707031,119.23306274414062 L368.9235534667969,118.0648422241211 L370.001220703125,117.2496337890625 L370.9150085449219,116.85945892333984 L371.6449279785156,116.9540023803711 L372.1880798339844,117.54991912841797 L372.5212707519531,118.60265350341797 L372.6521911621094,119.98137664794922 L372.62420654296875,121.48757934570312 L372.5316162109375,122.93220520019531 L372.5685119628906,124.09002685546875 L372.8805236816406,124.79647827148438 L373.5280456542969,124.99534606933594 L374.24847412109375,124.87256622314453 L374.8092956542969,124.64289855957031 M382.9546203613281,118.46021270751953 L382.8100280761719,118.21427917480469 L382.4556884765625,117.91893005371094 L381.818603515625,117.73323059082031 L380.884521484375,117.8770751953125 L379.7258605957031,118.42880249023438 L378.51995849609375,119.3650131225586 L377.48223876953125,120.53697204589844 L376.81402587890625,121.75001525878906 L376.6397399902344,122.78680419921875 L376.974365234375,123.48251342773438 L377.7704772949219,123.7322769165039 L378.9430847167969,123.51078796386719 L380.35858154296875,122.87680053710938 L381.83209228515625,121.9600601196289 L383.15704345703125,120.9438247680664 L384.18096923828125,120.00361633300781 L384.8403625488281,119.26506805419922 L385.17169189453125,118.8236312866211 L385.26666259765625,118.76403045654297 L385.2041320800781,119.16123962402344 L385.0294189453125,120.0865249633789 L384.78955078125,121.54285430908203 L384.5163879394531,123.46507263183594 L384.2418518066406,125.75421142578125 L383.9720458984375,128.2710723876953 L383.6662292480469,130.83900451660156 L383.2840576171875,133.26051330566406 L382.7960510253906,135.31947326660156 L382.1971435546875,136.82666015625 L381.52386474609375,137.657958984375 L380.8298034667969,137.78028869628906 L380.2274169921875,137.1174774169922 L379.85302734375,135.7255401611328 L379.7983703613281,133.78646850585938 L379.9496765136719,131.968017578125 L380.15899658203125,130.7063751220703 M391.3577880859375,110.937744140625 L391.3570556640625,111.27955627441406 L391.2841491699219,112.07024383544922 L391.09405517578125,113.38735961914062 L390.7763671875,115.13450622558594 L390.4040832519531,117.12510681152344 L390.08087158203125,119.12228393554688 L389.9041748046875,120.90868377685547 L389.9384460449219,122.30791473388672 L390.2301025390625,123.18841552734375 L390.8003234863281,123.4676513671875 L391.6636657714844,123.15337371826172 L392.8043212890625,122.33982849121094 L394.1408996582031,121.21749877929688 L395.5231628417969,120.00936889648438 L396.79669189453125,118.94053649902344 L397.82611083984375,118.15629577636719 L398.5301513671875,117.74605560302734 L398.90606689453125,117.76090240478516 L398.9960021972656,118.21365356445312 L398.8656005859375,119.11658477783203 L398.6362609863281,120.39376068115234 L398.4336242675781,121.86797332763672 L398.3131408691406,123.11898803710938 L398.27978515625,123.9202880859375 M414.24755859375,117.02149963378906 L414.1794128417969,116.845458984375 L414.05291748046875,116.7552490234375 L413.8349609375,116.95439147949219 L413.49273681640625,117.65550231933594 L413.0082092285156,118.85887145996094 L412.45477294921875,120.4239273071289 L411.9548034667969,122.09461975097656 L411.67254638671875,123.61285400390625 L411.7232666015625,124.72480010986328 L412.14947509765625,125.26512145996094 L412.9447326660156,125.15283966064453 L414.04852294921875,124.40701293945312 L415.322265625,123.16419982910156 L416.5931396484375,121.69020080566406 L417.6549987792969,120.26995086669922 L418.3874206542969,119.13423156738281 L418.76611328125,118.42105102539062 L418.8447570800781,118.19286346435547 L418.7163391113281,118.4765396118164 L418.47564697265625,119.29744720458984 L418.2080993652344,120.60448455810547 L418.0560302734375,122.2045669555664 L418.1361389160156,123.82440948486328 L418.5353698730469,125.17853546142578 L419.2781066894531,126.03559875488281 L420.2991638183594,126.27748107910156 L421.4813537597656,125.90304565429688 L422.69036865234375,124.97314453125 L423.7783508300781,123.64257049560547 L424.6562805175781,122.10291290283203 L425.27362060546875,120.5337905883789 L425.6310729980469,119.07038116455078 L425.7820129394531,117.82440948486328 L425.8030090332031,116.84862518310547 L425.7681579589844,116.214599609375 L425.73785400390625,115.89556884765625 M430.01165771484375,118.09171295166016 L429.91632080078125,118.51891326904297 L429.734130859375,119.33076477050781 L429.4619445800781,120.5184555053711 L429.1400451660156,121.92060852050781 L428.8180236816406,123.3874740600586 L428.57537841796875,124.74073791503906 L428.437255859375,125.80526733398438 L428.4350280761719,126.43411254882812 L428.5633850097656,126.51685333251953 L428.81854248046875,126.00138092041016 L429.2024841308594,124.91819763183594 L429.7094421386719,123.41064453125 L430.31597900390625,121.69871520996094 L431.0175476074219,120.01805114746094 L431.8018493652344,118.5507583618164 L432.67034912109375,117.403564453125 L433.62384033203125,116.61158752441406 L434.64154052734375,116.19666290283203 L435.7070617675781,116.15419006347656 L436.81048583984375,116.44977569580078 L437.9541931152344,116.99188232421875 L439.1310729980469,117.6575698852539 L440.33319091796875,118.30806732177734 L441.5039367675781,118.85208892822266 L442.56561279296875,119.223876953125 L443.4399719238281,119.43386840820312 L444.07672119140625,119.54000091552734 L444.4353942871094,119.65480041503906 L444.5183410644531,119.91769409179688 L444.3229064941406,120.46180725097656 L443.87237548828125,121.33997344970703 L443.24859619140625,122.53543853759766 L442.58966064453125,123.90267944335938 L442.04400634765625,125.24109649658203 L441.70758056640625,126.25604248046875 L441.56927490234375,126.83750915527344 M445.15423583984375,113.84619903564453 L445.1534423828125,113.67154693603516 L445.21771240234375,113.45523834228516 L445.31787109375,113.26773834228516 L445.42462158203125,113.17951202392578 M452.4960632324219,110.82181549072266 L452.3164367675781,111.47066497802734 L451.9704284667969,112.6860122680664 L451.4587707519531,114.45072174072266 L450.8643798828125,116.5713882446289 L450.26373291015625,118.91357421875 L449.7375793457031,121.29576110839844 L449.32940673828125,123.54920959472656 L449.0889892578125,125.41590118408203 L449.01434326171875,126.67902374267578 L449.0924072265625,127.25643157958984 L449.2292175292969,127.34085083007812 L449.3505554199219,127.19453430175781 M447.63421630859375,119.96285247802734 L447.97259521484375,119.90451049804688 L448.7463073730469,119.82767486572266 L450.0480041503906,119.74472045898438 L451.7970275878906,119.66541290283203 L453.8442077636719,119.57584381103516 L455.9722900390625,119.46468353271484 L457.9453430175781,119.33433532714844 L459.57196044921875,119.2045669555664 L460.72711181640625,119.1046371459961 L461.3476867675781,119.09675598144531 L461.4652404785156,119.27009582519531 L461.1488952636719,119.7261962890625 L460.4684753417969,120.53964233398438 L459.5536193847656,121.68321228027344 L458.5732116699219,123.04914093017578 L457.6997375488281,124.47682189941406 L457.07708740234375,125.78706359863281 L456.78369140625,126.8397445678711 L456.84832763671875,127.43452453613281 L457.2470397949219,127.43356323242188 L457.9158935546875,126.813720703125 L458.58447265625,125.97285461425781 L459.0654296875,125.26322937011719 M462.2115478515625,112.57428741455078 L462.2129211425781,112.45775604248047 L462.2263488769531,112.3483657836914 L462.2457580566406,112.27740478515625 L462.2651672363281,112.2761459350586 M466.6671142578125,116.95838165283203 L466.5924072265625,117.39688110351562 L466.4117126464844,118.22862243652344 L466.1015625,119.42923736572266 L465.7010192871094,120.8152847290039 L465.30816650390625,122.22984313964844 L465.0221252441406,123.51471710205078 L464.93505859375,124.56196594238281 L465.0763244628906,125.27085876464844 L465.4443054199219,125.55059814453125 L466.03912353515625,125.34580993652344 L466.8693542480469,124.66572570800781 L467.9064025878906,123.60490417480469 L469.1109619140625,122.35279846191406 L470.3910827636719,121.10804748535156 L471.6162414550781,120.02957153320312 L472.6822204589844,119.24917602539062 L473.5033264160156,118.85722351074219 L474.02886962890625,118.9144058227539 L474.27288818359375,119.45425415039062 L474.2759704589844,120.45994567871094 L474.0801696777344,121.82453918457031 L473.79241943359375,123.39116668701172 L473.51434326171875,124.97901153564453 L473.4249572753906,126.34219360351562 L473.6585998535156,127.27176666259766 L474.2733459472656,127.68339538574219 L474.9806213378906,127.71481323242188 L475.54669189453125,127.57325744628906 M483.4594421386719,120.19204711914062 L483.1828308105469,119.8272933959961 L482.61602783203125,119.37593078613281 L481.7335510253906,119.02812957763672 L480.6238708496094,119.01545715332031 L479.4364929199219,119.38187408447266 L478.3611145019531,120.07217407226562 L477.5899353027344,120.95792388916016 L477.27386474609375,121.89706420898438 L477.4975280761719,122.72549438476562 L478.2421569824219,123.28074645996094 L479.4259033203125,123.47283935546875 L480.8807678222656,123.26838684082031 L482.4047546386719,122.72261047363281 L483.78594970703125,121.9595718383789 L484.8801574707031,121.15145111083984 L485.6150817871094,120.43342590332031 L486.0048522949219,119.92118072509766 L486.1105651855469,119.67900848388672 L486.0274353027344,119.75537109375 L485.82623291015625,120.2074203491211 L485.5742492675781,121.0936279296875 L485.3208923339844,122.39773559570312 L485.0973815917969,124.07640838623047 L484.8918151855469,126.0367431640625 L484.67266845703125,128.17588806152344 L484.3672790527344,130.38890075683594 L483.89093017578125,132.5662841796875 L483.1802673339844,134.56393432617188 L482.2421875,136.26168823242188 L481.1217041015625,137.56016540527344 L479.928955078125,138.39382934570312 L478.7999572753906,138.7322998046875 L477.8688659667969,138.5665283203125 L477.2526550292969,137.90887451171875 L477.1601257324219,136.7433624267578 L477.6855773925781,135.16360473632812 L478.80694580078125,133.33493041992188 L480.02764892578125,131.76620483398438 L480.9551086425781,130.74835205078125 M507.6903076171875,119.91604614257812 L507.5105285644531,119.68998718261719 L507.0942077636719,119.3842544555664 L506.35723876953125,119.12530517578125 L505.2876281738281,119.09764099121094 L503.9293518066406,119.41100311279297 L502.3786926269531,120.093994140625 L500.8228454589844,121.11431121826172 L499.47857666015625,122.34898376464844 L498.53564453125,123.63640594482422 L498.1161804199219,124.7844009399414 L498.2546691894531,125.6333999633789 L498.8904113769531,126.0595703125 L499.9400329589844,126.00113677978516 L501.2791442871094,125.44017028808594 L502.762451171875,124.44963836669922 L504.2181396484375,123.14873504638672 L505.489990234375,121.73214721679688 L506.4610290527344,120.41905975341797 L507.0881652832031,119.36771392822266 L507.40631103515625,118.69823455810547 L507.47064208984375,118.47113800048828 L507.3282470703125,118.70027923583984 L507.0303039550781,119.4135513305664 L506.646484375,120.5865478515625 L506.2690124511719,122.0643081665039 L506.0442810058594,123.65340423583984 L506.08807373046875,125.09605407714844 L506.47674560546875,126.16248321533203 L507.2452697753906,126.70213317871094 L508.3997802734375,126.63521575927734 L509.89239501953125,125.92918395996094 L511.6475524902344,124.68254089355469 L513.54736328125,123.07321166992188 L515.4303588867188,121.36715698242188 L517.1134033203125,119.82575988769531 L518.4619140625,118.65275573730469 L519.4024047851562,117.94801330566406 L519.954345703125,117.7567367553711 L520.2294921875,118.06598663330078 L520.3438720703125,118.86041259765625 L520.362060546875,120.080322265625 L520.302734375,121.61184692382812 L520.1275634765625,123.29103088378906 L519.792724609375,124.94740295410156 L519.281005859375,126.40646362304688 L518.5997314453125,127.54108428955078 L517.793701171875,128.2662811279297 L516.950927734375,128.55841064453125 L516.1788940429688,128.43206787109375 L515.6119384765625,127.94908905029297 L515.383056640625,127.18893432617188 L515.591796875,126.24266052246094 L516.2965087890625,125.19217681884766 L517.4903564453125,124.1352310180664 L519.08642578125,123.14168548583984 L520.9332885742188,122.26142883300781 L522.8438720703125,121.51911163330078 L524.6314697265625,120.92768096923828 L526.1707763671875,120.45773315429688 L527.386962890625,120.07654571533203 L528.25341796875,119.75264739990234 L528.767578125,119.45391845703125 L528.951416015625,119.17157745361328 L528.8446655273438,118.94444274902344 L528.5244750976562,118.8148193359375 L528.059326171875,118.84544372558594 L527.519287109375,119.10342407226562 L526.9815063476562,119.61320495605469 L526.538330078125,120.37879943847656 L526.2825927734375,121.36275482177734 L526.2946166992188,122.51223754882812 L526.56640625,123.76435089111328 L527.0040283203125,125.041259765625 L527.4769897460938,126.24826049804688 L527.8220825195312,127.30213165283203 L527.9180297851562,128.1105194091797 L527.7163696289062,128.64820861816406 L527.2001953125,128.91558837890625 L526.42041015625,128.93243408203125 L525.5186767578125,128.7136993408203 L524.6473999023438,128.30078125 L523.9674072265625,127.75398254394531 L523.5657958984375,127.26141357421875 L523.400146484375,126.93336486816406 M534.8079833984375,120.40648651123047 L534.7330322265625,120.63773345947266 L534.5647583007812,121.17906951904297 L534.2891845703125,122.08419799804688 L533.925537109375,123.27811431884766 L533.5263671875,124.62425994873047 L533.12841796875,125.9804458618164 L532.8043823242188,127.21654510498047 L532.6883544921875,128.07069396972656 L532.880126953125,128.3089141845703 L533.410400390625,127.7913818359375 L534.0360717773438,126.92288208007812 L534.5267333984375,126.12602996826172 M538.0439453125,114.13642120361328 L537.8916015625,113.87745666503906 L537.7154541015625,113.59131622314453 L537.5707397460938,113.36779022216797 M545.0667724609375,119.84817504882812 L544.8326416015625,119.72470092773438 L544.3111572265625,119.58755493164062 L543.45361328125,119.55320739746094 L542.3489379882812,119.75660705566406 L541.1595458984375,120.25433349609375 L540.1060791015625,121.0126953125 L539.37255859375,121.91708374023438 L539.0772705078125,122.80728149414062 L539.259765625,123.53361511230469 L539.908203125,123.95512390136719 L540.961181640625,123.98777770996094 L542.301025390625,123.59874725341797 L543.7457275390625,122.83094787597656 L545.0865478515625,121.81716918945312 L546.1395263671875,120.7636947631836 L546.8077392578125,119.8479995727539 L547.11669921875,119.21139526367188 L547.1622314453125,118.92146301269531 L547.0709228515625,119.01873016357422 L546.9456787109375,119.5595932006836 L546.8121948242188,120.61036682128906 L546.6453247070312,122.15349578857422 L546.405029296875,124.12200164794922 L546.0323486328125,126.38746643066406 L545.5048828125,128.7977752685547 L544.831298828125,131.1909942626953 L544.0284423828125,133.43704223632812 L543.113525390625,135.34637451171875 L542.1488037109375,136.76524353027344 L541.200439453125,137.62391662597656 L540.4599609375,138.00563049316406 L540.0145263671875,138.0793914794922 M554.2968139648438,119.2239761352539 L554.227783203125,119.4062728881836 L554.0275268554688,119.9178237915039 L553.64990234375,120.86259460449219 L553.1220703125,122.18788146972656 L552.5283203125,123.69312286376953 L551.9976806640625,125.12928771972656 L551.6594848632812,126.2723617553711 L551.5987548828125,126.95005798339844 L551.8736572265625,127.06080627441406 L552.515380859375,126.56649780273438 L553.51025390625,125.52487182617188 L554.779541015625,124.117431640625 L556.1923828125,122.6085433959961 L557.5870971679688,121.25556182861328 L558.80859375,120.2585220336914 L559.736328125,119.72866821289062 L560.3142700195312,119.72660064697266 L560.5079345703125,120.27234649658203 L560.3270263671875,121.33316802978516 L559.8817749023438,122.79441833496094 L559.3365478515625,124.42383575439453 L558.8798217773438,125.94214630126953 L558.61669921875,127.04220581054688 L558.5321044921875,127.63831329345703 M564.944580078125,119.17225646972656 L564.9180908203125,119.30401611328125 L564.822265625,119.708251953125 L564.611328125,120.49840545654297 L564.26708984375,121.67133331298828 L563.8272705078125,123.09615325927734 L563.3524780273438,124.55609130859375 L562.9417724609375,125.83815002441406 L562.6774291992188,126.75782012939453 L562.6320190429688,127.18384552001953 L562.8518676757812,127.04170989990234 L563.3812866210938,126.34790802001953 L564.2098999023438,125.1890869140625 L565.2867431640625,123.76979064941406 L566.489501953125,122.3276138305664 L567.66357421875,121.0675277709961 L568.6458740234375,120.13386535644531 L569.3417358398438,119.61839294433594 L569.7147216796875,119.55918884277344 L569.7989501953125,119.98163604736328 L569.6622314453125,120.8672103881836 L569.37548828125,122.08794403076172 L569.0236206054688,123.43949890136719 L568.6812133789062,124.69810485839844 L568.4239501953125,125.6659927368164 L568.3396606445312,126.20643615722656 L568.498291015625,126.26268005371094 L568.9454345703125,125.8129653930664 L569.7156982421875,124.89222717285156 L570.7529296875,123.62268829345703 L571.9580078125,122.17939758300781 L573.2123413085938,120.75212097167969 L574.3719482421875,119.51591491699219 L575.3359985351562,118.61341857910156 L576.060302734375,118.1392822265625 L576.504150390625,118.1709976196289 L576.6781005859375,118.72820281982422 L576.6256713867188,119.75605010986328 L576.400634765625,121.1069564819336 L576.1171264648438,122.59778594970703 L575.9034423828125,124.01860046386719 L575.8887939453125,125.20683288574219 L576.20361328125,126.03985595703125 L576.9183349609375,126.44378662109375 L578.0345458984375,126.37173461914062 L579.4891357421875,125.82869720458984 L581.1270751953125,124.86119842529297 L582.7635498046875,123.59053039550781 L584.2050170898438,122.17386627197266 L585.2840576171875,120.79469299316406 L585.9154052734375,119.60336303710938 L586.082275390625,118.72035217285156 L585.8231201171875,118.23352813720703 L585.222900390625,118.20191955566406 L584.3916625976562,118.65735626220703 L583.4686279296875,119.5864486694336 L582.6296997070312,120.88179016113281 L582.0416259765625,122.38923645019531 L581.843017578125,123.92082214355469 L582.1209716796875,125.27184295654297 L582.9124755859375,126.27191162109375 L584.183349609375,126.79075622558594 L585.84521484375,126.74561309814453 L587.7481689453125,126.15592956542969 L589.6956787109375,125.1273422241211 L591.4830932617188,123.8334732055664 L592.9476928710938,122.4935531616211 L593.9970703125,121.3053970336914 L594.626708984375,120.39058685302734 L594.9050903320312,119.83916473388672 L594.926025390625,119.69950103759766 L594.76708984375,119.99775695800781 L594.4771728515625,120.74557495117188 L594.116455078125,121.88285827636719 L593.7509765625,123.23186492919922 L593.4542236328125,124.59044647216797 L593.30126953125,125.75779724121094 L593.3509521484375,126.57254791259766 L593.642333984375,126.93712615966797 L594.2169799804688,126.81157684326172 L595.0726318359375,126.19425964355469 L596.13818359375,125.17887115478516 L597.2850341796875,123.9518051147461 L598.365966796875,122.73847198486328 L599.2476806640625,121.73181915283203 L599.8533935546875,121.0765151977539 L600.1639404296875,120.83848571777344 L600.2161254882812,121.03148651123047 L600.0701293945312,121.64666748046875 L599.8096923828125,122.62151336669922 L599.534423828125,123.82828521728516 L599.3566284179688,125.10089111328125 L599.3936767578125,126.2515640258789 L599.757568359375,127.10218811035156 L600.502685546875,127.5137710571289 L601.6106567382812,127.38584899902344 L603.0029296875,126.68379211425781 L604.5477294921875,125.42686462402344 L606.1055908203125,123.70387268066406 L607.5736083984375,121.64366912841797 L608.889892578125,119.38272094726562 L610.0159912109375,117.07232666015625 L610.922119140625,114.8932876586914 L611.5695190429688,113.01141357421875 L611.9572143554688,111.57308959960938 L612.1180419921875,110.67725372314453 L612.1023559570312,110.35926055908203 L611.943115234375,110.62003326416016 L611.644775390625,111.45896911621094 L611.1881103515625,112.83926391601562 L610.6063842773438,114.6664047241211 L609.9566650390625,116.80840301513672 L609.3133544921875,119.10201263427734 L608.75146484375,121.35646057128906 L608.3276977539062,123.37432861328125 L608.058349609375,125.02246856689453 L607.948486328125,126.12970733642578 L607.9627685546875,126.62276458740234 L608.0446166992188,126.53909301757812 L608.1321411132812,126.17617797851562 L608.1912841796875,125.79124450683594 M605.187255859375,117.57604217529297 L605.5889892578125,117.640625 L606.4317626953125,117.78168487548828 L607.398681640625,117.9459457397461 L608.1727294921875,118.08011627197266 M620.3397827148438,116.64275360107422 L620.0936889648438,116.54074096679688 L619.5476684570312,116.4686508178711 L618.6566772460938,116.54163360595703 L617.5146484375,116.86779022216797 L616.3120727539062,117.45835876464844 L615.3125610351562,118.25360107421875 L614.7667236328125,119.1579360961914 L614.8560791015625,120.08876037597656 L615.632568359375,120.98748779296875 L616.9909057617188,121.818359375 L618.6875,122.5748291015625 L620.3983154296875,123.2652359008789 L621.779296875,123.90434265136719 L622.550048828125,124.49641418457031 L622.55322265625,125.03599548339844 L621.74267578125,125.52162170410156 L620.2826538085938,125.94803619384766 L618.4868774414062,126.32014465332031 L616.9409790039062,126.59674072265625 L615.9627685546875,126.76139068603516 M634.3934326171875,116.7060317993164 L634.1021728515625,117.27226257324219 L633.6463012695312,118.30350494384766 L633.1046142578125,119.73123931884766 L632.6419067382812,121.31456756591797 L632.359619140625,122.86978912353516 L632.338623046875,124.194091796875 L632.629638671875,125.14002990722656 L633.2591552734375,125.59768676757812 L634.21240234375,125.49862670898438 L635.436279296875,124.8706283569336 L636.8365478515625,123.82752227783203 L638.2415771484375,122.54633331298828 L639.4777221679688,121.26022338867188 L640.3983154296875,120.1809310913086 L640.9398193359375,119.46036529541016 L641.1148071289062,119.1809310913086 L640.9954223632812,119.37029266357422 L640.6607055664062,119.9970703125 L640.2401733398438,120.97624969482422 L639.8946533203125,122.15023040771484 L639.7942504882812,123.33202362060547 L640.0617065429688,124.31543731689453 L640.7319946289062,124.9459228515625 L641.7607421875,125.12432098388672 L643.0494384765625,124.8172378540039 L644.4740600585938,124.05003356933594 L645.9039306640625,122.91875457763672 L647.199462890625,121.53365325927734 L648.2353515625,120.07594299316406 L648.9568481445312,118.72720336914062 L649.3606567382812,117.7387924194336 L649.5259399414062,117.18354797363281 M652.8182373046875,116.77906799316406 L652.68505859375,117.29813385009766 L652.4108276367188,118.2494888305664 L651.9697875976562,119.58162689208984 L651.40478515625,121.09544372558594 L650.7931518554688,122.61998748779297 L650.2442626953125,123.98234558105469 L649.8644409179688,124.97119903564453 L649.6752319335938,125.52518463134766 M654.3595581054688,112.01702880859375 L654.390625,111.94941711425781 L654.4671630859375,111.89017486572266 L654.559326171875,111.85572052001953 L654.6373291015625,111.86246490478516 M661.3461303710938,109.030517578125 L661.2686157226562,109.24026489257812 L661.0599365234375,109.78101348876953 L660.6504516601562,110.76754760742188 L660.0183715820312,112.2060775756836 L659.1934814453125,114.02140045166016 L658.2533569335938,116.07939910888672 L657.3176879882812,118.2293701171875 L656.5643920898438,120.29249572753906 L656.109619140625,122.06767272949219 L656.001220703125,123.38520050048828 L656.106689453125,124.16697692871094 L656.26806640625,124.49722290039062 M655.7986450195312,115.7017822265625 L656.1865844726562,115.67469787597656 L657.015625,115.62532806396484 L657.9729614257812,115.57173156738281 L658.7456665039062,115.53196716308594 M668.5134887695312,108.54840087890625 L668.4520874023438,108.82704162597656 L668.2638549804688,109.5015869140625 L667.8735961914062,110.66960144042969 L667.2532348632812,112.28720092773438 L666.4241943359375,114.23493957519531 L665.4638671875,116.35114288330078 L664.5018920898438,118.43881225585938 L663.6578979492188,120.31697845458984 L663.01953125,121.80909729003906 L662.67626953125,122.77424621582031 L662.6783447265625,123.14661407470703 L663.0518798828125,122.93833923339844 L663.8217163085938,122.2087631225586 L664.9453735351562,121.08628845214844 L666.281494140625,119.7620620727539 L667.68505859375,118.44703674316406 L668.9786987304688,117.32459259033203 L670.0313110351562,116.52493286132812 L670.7908935546875,116.1215591430664 L671.2474365234375,116.13285064697266 L671.3889770507812,116.578125 L671.244873046875,117.4404067993164 L670.8407592773438,118.65049743652344 L670.3018798828125,120.09040832519531 L669.7892456054688,121.58012390136719 L669.4713134765625,122.91387176513672 L669.36279296875,123.86349487304688 L669.39501953125,124.3765640258789 M687.9356079101562,110.51541137695312 L687.9566040039062,110.80103302001953 L687.8947143554688,111.44227600097656 L687.6650390625,112.51813507080078 L687.1882934570312,113.98468780517578 L686.4761962890625,115.75276947021484 L685.5916748046875,117.6766128540039 L684.6625366210938,119.58441925048828 L683.835693359375,121.29708099365234 L683.2158813476562,122.67524719238281 L682.8453369140625,123.612548828125 L682.7324829101562,124.05412292480469 L682.861328125,123.96515655517578 L683.2691040039062,123.351806640625 L684.0001220703125,122.26014709472656 L685.0408325195312,120.82888793945312 L686.3377685546875,119.24532318115234 L687.791748046875,117.71603393554688 L689.26318359375,116.41888427734375 L690.6407470703125,115.51544952392578 L691.8098754882812,115.09820556640625 L692.6640014648438,115.21136474609375 L693.1373901367188,115.8326644897461 L693.2216796875,116.89009857177734 L692.9530029296875,118.26233673095703 L692.4522094726562,119.80039978027344 L691.8868408203125,121.33293914794922 L691.442138671875,122.66931915283203 L691.283935546875,123.63070678710938 L691.5411376953125,124.09005737304688 L692.2557373046875,123.98397827148438 L693.3977661132812,123.3238296508789 L694.8909912109375,122.22127532958984 L696.6022338867188,120.83586883544922 L698.3423461914062,119.37552642822266 L699.9185791015625,118.03944396972656 L701.1541748046875,116.97755432128906 L701.9349975585938,116.29035949707031 L702.2625122070312,116.038330078125 L702.2092895507812,116.24037170410156 L701.8460693359375,116.91119384765625 L701.281005859375,118.01040649414062 L700.6455688476562,119.41112518310547 L700.0748291015625,120.94712829589844 L699.763427734375,122.36595153808594 L699.8372802734375,123.42972564697266 L700.2969360351562,124.00315856933594 L700.8746948242188,124.176025390625 L701.3455810546875,124.1202392578125 M705.1311645507812,109.79615020751953 L705.0355834960938,109.82884216308594 L704.9879760742188,109.969970703125 L704.9952392578125,110.16140747070312 L705.06396484375,110.34498596191406 M717.5718383789062,113.89249420166016 L717.4678955078125,113.8697280883789 L717.0556030273438,113.84319305419922 L716.1864013671875,113.84384155273438 L714.8560791015625,113.93631744384766 L713.2500610351562,114.16468811035156 L711.6432495117188,114.56354522705078 L710.3115234375,115.13070678710938 L709.4475708007812,115.84577941894531 L709.15576171875,116.66993713378906 L709.4505004882812,117.5792465209961 L710.2567138671875,118.53128051757812 L711.4160766601562,119.50667572021484 L712.7029418945312,120.47227478027344 L713.865478515625,121.40818786621094 L714.662841796875,122.26620483398438 L714.9050903320312,123.0130615234375 L714.4939575195312,123.61981201171875 L713.4263305664062,124.09426879882812 L711.8272094726562,124.4434814453125 L709.9386596679688,124.66180419921875 L708.0442504882812,124.71068572998047 L706.585693359375,124.653076171875 L705.73388671875,124.55259704589844 M731.7998657226562,116.34841918945312 L731.388916015625,116.63189697265625 L730.6638793945312,117.2709732055664 L729.6881103515625,118.3128662109375 L728.676513671875,119.65754699707031 L727.8229370117188,121.14476776123047 L727.3147583007812,122.56474304199219 L727.2877197265625,123.72779846191406 L727.8184814453125,124.50792694091797 L728.869384765625,124.80011749267578 L730.3275756835938,124.54967498779297 L732.0182495117188,123.76295471191406 L733.6974487304688,122.5069580078125 L735.1207275390625,120.9142074584961 L736.078369140625,119.18595123291016 L736.4299926757812,117.51923370361328 L736.1602783203125,116.10499572753906 L735.365478515625,115.08659362792969 L734.2205810546875,114.56221771240234 L732.9544067382812,114.55623626708984 L731.8695678710938,115.0379638671875 L731.214599609375,115.86039733886719 L731.1154174804688,116.82244110107422 L731.3605346679688,117.61819458007812 L731.6900024414062,118.10304260253906 M741.816650390625,115.58954620361328 L741.4645385742188,115.86051177978516 L740.8626708984375,116.4504623413086 L740.087158203125,117.40919494628906 L739.3240966796875,118.67318725585938 L738.7011108398438,120.11843872070312 L738.3228149414062,121.56404876708984 L738.243896484375,122.81887817382812 L738.5226440429688,123.70478820800781 L739.1893920898438,124.08042907714844 L740.2374877929688,123.8778076171875 L741.6027221679688,123.10477447509766 L743.1434326171875,121.87984466552734 L744.6563110351562,120.42286682128906 L745.9481201171875,118.9941177368164 L746.878662109375,117.81519317626953 L747.3927001953125,117.03057861328125 L747.5172119140625,116.71613311767578 L747.327392578125,116.9133071899414 L746.906494140625,117.64832305908203 L746.3829345703125,118.8856430053711 L745.923828125,120.47257995605469 L745.7094116210938,122.1620101928711 L745.89208984375,123.68558502197266 L746.5479736328125,124.82456970214844 L747.6380615234375,125.44254302978516 L749.0529174804688,125.48406219482422 L750.6331176757812,124.94678497314453 L752.2002563476562,123.89066314697266 L753.5896606445312,122.43743133544922 L754.673095703125,120.77519226074219 L755.3704223632812,119.10163116455078 L755.669677734375,117.59500885009766 L755.6421508789062,116.38397979736328 L755.4144897460938,115.53045654296875 L755.1608276367188,115.03591918945312 L754.9871826171875,114.82354736328125 M761.1659545898438,115.0103759765625 L761.0916137695312,115.00013732910156 L760.9223022460938,115.14507293701172 L760.6195678710938,115.59041595458984 L760.1671142578125,116.42149353027344 L759.5460205078125,117.58454895019531 L758.8168334960938,118.97186279296875 L758.0740356445312,120.41085815429688 L757.424560546875,121.75640106201172 L756.9719848632812,122.87688446044922 L756.7840576171875,123.62339782714844 L756.8798828125,123.87556457519531 L757.3002319335938,123.58897399902344 L758.066162109375,122.77400207519531 L759.1442260742188,121.56096649169922 L760.4902954101562,120.1414566040039 L762.0247192382812,118.70836639404297 L763.6180419921875,117.42816162109375 L765.1326904296875,116.43138122558594 L766.4443359375,115.78553009033203 L767.43310546875,115.53809356689453 L768.0582885742188,115.7049789428711 L768.3440551757812,116.28763580322266 L768.2947998046875,117.24040985107422 L767.9371948242188,118.5064697265625 L767.37548828125,119.94857788085938 L766.7427368164062,121.35663604736328 L766.192138671875,122.52593994140625 L765.8591918945312,123.30069732666016 L765.76025390625,123.59044647216797 L765.871826171875,123.434326171875 L766.1888427734375,122.88378143310547 L766.7537841796875,121.92894744873047 L767.552490234375,120.6651611328125 L768.5272827148438,119.22398376464844 L769.3887939453125,117.98814392089844 L769.9569702148438,117.19627380371094 M782.8983764648438,106.43965148925781 L782.7669677734375,106.72443389892578 L782.4691772460938,107.34432220458984 L781.943603515625,108.3619155883789 L781.183837890625,109.7405014038086 L780.2216186523438,111.4205322265625 L779.1237182617188,113.30150604248047 L778.0040283203125,115.27687072753906 L777.0082397460938,117.20697784423828 L776.240234375,118.92161560058594 L775.7604370117188,120.27950286865234 L775.5394287109375,121.15447235107422 L775.480712890625,121.58036041259766 M775.2648315429688,113.7472152709961 L775.5672607421875,113.69536590576172 L776.3197021484375,113.64292907714844 L777.6047973632812,113.6213150024414 L779.3645629882812,113.65158081054688 L781.3590087890625,113.70011138916016 L783.3385620117188,113.7292251586914 L784.8651733398438,113.72681427001953 L785.7762451171875,113.70533752441406 M788.2313842773438,113.6388168334961 L788.1198120117188,113.89580535888672 L787.8737182617188,114.49526977539062 L787.4567260742188,115.5007095336914 L786.8831176757812,116.83885955810547 L786.2090454101562,118.33708953857422 L785.5499267578125,119.79778289794922 L785.033447265625,120.98369598388672 L784.7496337890625,121.73316192626953 L784.71630859375,121.998779296875 L784.8187866210938,121.94853973388672 L784.9458618164062,121.7811279296875 M790.9749755859375,108.28450012207031 L790.9849243164062,108.07090759277344 L791.0095825195312,107.84917449951172 L791.0391845703125,107.6863784790039 L791.0638427734375,107.64958190917969 M792.7967529296875,115.09969329833984 L792.5867919921875,115.97355651855469 L792.2453002929688,117.32331848144531 L791.8116455078125,118.90432739257812 L791.3839111328125,120.28347778320312 L791.0134887695312,121.34883117675781 L790.7552490234375,122.0389404296875 L790.6185302734375,122.34326934814453 L790.6187744140625,122.20244598388672 L790.7510986328125,121.56964111328125 L791.04296875,120.45289611816406 L791.5418090820312,118.99016571044922 L792.2867431640625,117.35745239257812 L793.2825927734375,115.73077392578125 L794.5111083984375,114.26718139648438 L795.8956298828125,113.07743072509766 L797.3597412109375,112.2352066040039 L798.802978515625,111.79395294189453 L800.1217651367188,111.73613739013672 L801.2439575195312,111.99861907958984 L802.1271362304688,112.47264099121094 L802.75634765625,113.0344009399414 L803.1369018554688,113.5026626586914 L803.3159790039062,113.79402923583984 M804.2997436523438,116.98645782470703 L804.6040649414062,117.0752944946289 L805.2685546875,117.1263427734375 L806.3399658203125,117.04560089111328 L807.7243041992188,116.74041748046875 L809.254150390625,116.2227554321289 L810.7398681640625,115.52168273925781 L812.00732421875,114.70879364013672 L812.890625,113.84700775146484 L813.26416015625,113.03165435791016 L813.0397338867188,112.37348937988281 L812.1888427734375,112.01695251464844 L810.7950439453125,112.07311248779297 L809.052734375,112.61597442626953 L807.2119750976562,113.6164779663086 L805.5581665039062,114.98921203613281 L804.3265991210938,116.58509063720703 L803.675537109375,118.25035858154297 L803.6691284179688,119.83296966552734 L804.40087890625,121.16374206542969 L805.8208618164062,122.09280395507812 L807.771240234375,122.5531997680664 L809.5932006835938,122.65773010253906 L810.8541870117188,122.58317565917969 M820.9168090820312,117.04288482666016 L820.563232421875,116.85609436035156 L819.8619384765625,116.70236206054688 L818.790771484375,116.74150085449219 L817.4865112304688,117.14024353027344 L816.1201171875,117.89451599121094 L814.9198608398438,118.89189147949219 L814.0942993164062,119.94356536865234 L813.8060913085938,120.86638641357422 L814.1055908203125,121.47086334228516 L814.9810791015625,121.61478424072266 L816.3428344726562,121.19313049316406 L818.052001953125,120.15821838378906 L819.938720703125,118.5525894165039 L821.8256225585938,116.52188873291016 L823.5213012695312,114.28138732910156 L824.9044799804688,112.10982513427734 L825.9092407226562,110.24313354492188 L826.560302734375,108.81118774414062 L826.9050903320312,107.87529754638672 L826.9906616210938,107.46056365966797 L826.8356323242188,107.58162689208984 L826.4490356445312,108.30113220214844 L825.8531494140625,109.62814331054688 L825.140625,111.45636749267578 L824.4100341796875,113.61074829101562 L823.7617797851562,115.88090515136719 L823.3480224609375,118.06617736816406 L823.2542724609375,119.9962158203125 L823.50390625,121.53709411621094 L823.9002685546875,122.54442596435547 L824.2525634765625,123.04767608642578 M843.0267944335938,108.70150756835938 L842.9256591796875,108.80472564697266 L842.7254028320312,109.1398696899414 L842.3845825195312,109.83341979980469 L841.8603515625,110.94269561767578 L841.1049194335938,112.44982147216797 L840.1499633789062,114.2741928100586 L839.073486328125,116.27218627929688 L838.032470703125,118.2546615600586 L837.15283203125,120.01490020751953 L836.498291015625,121.37635040283203 L836.099365234375,122.24337005615234 L835.9798583984375,122.56767272949219 L836.15966796875,122.3418197631836 L836.6843872070312,121.58008575439453 L837.5593872070312,120.3272933959961 L838.7562866210938,118.72567749023438 L840.2244262695312,116.98213958740234 L841.8656616210938,115.31511688232422 L843.5515747070312,113.92237854003906 L845.1250610351562,112.93453979492188 L846.4334716796875,112.40170288085938 L847.3670043945312,112.35592651367188 L847.8632202148438,112.78727722167969 L847.898681640625,113.6792984008789 L847.4994506835938,114.97117614746094 L846.7393798828125,116.53924560546875 L845.7587280273438,118.21539306640625 L844.7772216796875,119.79048156738281 L843.9935302734375,121.0522689819336 L843.54150390625,121.88783264160156 L843.3826293945312,122.30944061279297 L843.3954467773438,122.43501281738281 M855.2495727539062,114.29985046386719 L855.2242431640625,114.16699981689453 L855.1031494140625,114.01969909667969 L854.8049926757812,113.9676284790039 L854.262451171875,114.166748046875 L853.4524536132812,114.70744323730469 L852.4343872070312,115.61538696289062 L851.3430786132812,116.82762908935547 L850.3362426757812,118.20933532714844 L849.5638427734375,119.57591247558594 L849.14501953125,120.74662017822266 L849.1397094726562,121.56214141845703 L849.5797119140625,121.91742706298828 L850.4498291015625,121.7553939819336 L851.6804809570312,121.07386016845703 L853.1240844726562,119.95095825195312 L854.6044311523438,118.5540771484375 L855.9256591796875,117.09972381591797 L856.9689331054688,115.80472564697266 L857.6672973632812,114.82319641113281 L858.0067138671875,114.2452392578125 L857.9847412109375,114.10828399658203 L857.6243286132812,114.44287109375 L856.9622192382812,115.2670669555664 L856.1224975585938,116.51884460449219 L855.2808837890625,118.04708099365234 L854.6235961914062,119.6322021484375 L854.3092651367188,121.03458404541016 L854.5029296875,121.99406433105469 L855.232177734375,122.37525939941406 L856.4055786132812,122.16178894042969 L857.5711669921875,121.67328643798828 L858.402099609375,121.2083969116211 M863.7344360351562,114.64671325683594 L863.6431274414062,114.86046600341797 L863.4166259765625,115.37828063964844 L863.01171875,116.25513458251953 L862.4246215820312,117.40293884277344 L861.6964111328125,118.65472412109375 L860.9244995117188,119.85169219970703 L860.2301025390625,120.84211730957031 L859.73046875,121.50315856933594 L859.5342407226562,121.73275756835938 L859.6982421875,121.43900299072266 L860.250732421875,120.61282348632812 L861.18603515625,119.35369873046875 L862.4498901367188,117.85797119140625 L863.9049682617188,116.36432647705078 L865.3905639648438,115.09488677978516 L866.733642578125,114.19227600097656 L867.81103515625,113.73187255859375 L868.5736694335938,113.73075866699219 L869.0174560546875,114.19898986816406 L869.1202392578125,115.11843872070312 L868.8887329101562,116.4119644165039 L868.3568115234375,117.93103790283203 L867.6807250976562,119.47056579589844 L867.078857421875,120.80047607421875 L866.7512817382812,121.77904510498047 L866.683837890625,122.3530502319336 L866.7687377929688,122.59697723388672 M879.373291015625,116.63308715820312 L879.4644165039062,116.32192993164062 L879.4420776367188,115.88280487060547 L879.169189453125,115.43572235107422 L878.5254516601562,115.16746520996094 L877.5361938476562,115.16759490966797 L876.2770385742188,115.51913452148438 L874.8870849609375,116.23802947998047 L873.4976196289062,117.29554748535156 L872.2962036132812,118.58324432373047 L871.4542236328125,119.92877960205078 L871.11474609375,121.16299438476562 L871.3399658203125,122.11847686767578 L872.1312866210938,122.65276336669922 L873.399658203125,122.6546401977539 L875.0234985351562,122.08259582519531 L876.840576171875,120.94900512695312 L878.7086791992188,119.34992980957031 L880.4926147460938,117.4118423461914 L882.08447265625,115.3097152709961 L883.3862915039062,113.24868774414062 L884.3474731445312,111.43766784667969 L884.9453735351562,110.0264892578125 L885.2131958007812,109.1335220336914 L885.189453125,108.81119537353516 L884.893798828125,109.08982849121094 L884.3206787109375,109.99732208251953 L883.4984741210938,111.50285339355469 L882.4845581054688,113.48394775390625 L881.3848876953125,115.75689697265625 L880.34375,118.07974243164062 L879.4855346679688,120.23465728759766 L878.924072265625,121.99420928955078 L878.736572265625,123.19477844238281 L878.9105834960938,123.7686538696289 L879.2355346679688,123.88601684570312 L879.5354614257812,123.77677917480469 M890.8993530273438,115.37079620361328 L890.8602294921875,115.09957122802734 L890.6498413085938,114.74874877929688 L890.1708984375,114.44868469238281 L889.3970336914062,114.37544250488281 L888.4141845703125,114.56130981445312 L887.38671875,114.9985122680664 L886.5090942382812,115.63211822509766 L885.936767578125,116.42779541015625 L885.76904296875,117.34794616699219 L886.0242309570312,118.37185668945312 L886.58935546875,119.46607208251953 L887.2786865234375,120.56853485107422 L887.8409423828125,121.5871353149414 L888.0377197265625,122.42705535888672 L887.7237548828125,122.99616241455078 L886.8706665039062,123.25897979736328 L885.5459594726562,123.23517608642578 L883.9180908203125,122.98029327392578 L882.1939697265625,122.5629653930664 L880.6922607421875,122.01074981689453 L879.7098388671875,121.33606719970703 L879.4048461914062,120.56462097167969 L879.5599365234375,119.89054870605469 L879.876708984375,119.43904113769531 M893.6445922851562,121.25279235839844 L893.702392578125,121.34220886230469 L893.7626342773438,121.43840789794922 L893.7911987304688,121.50567626953125 L893.7716064453125,121.50834655761719 L893.7451171875,121.48099517822266 L893.7312622070312,121.443115234375 L893.736572265625,121.4168472290039 L893.75341796875,121.40082550048828 M899.6116943359375,124.54261779785156 L899.6328125,124.56909942626953 L899.64404296875,124.56745147705078 L899.6261596679688,124.51368713378906 L899.5791625976562,124.40020751953125 L899.5159912109375,124.25740051269531 L899.468017578125,124.13097381591797 L899.4441528320312,124.04768371582031 L899.4393310546875,124.0065689086914 " fill="none" stroke="black" stroke-linecap="round" stroke-width="2" /></svg>