<?xml version="1.0" encoding="utf-8" ?>
<svg baseProfile="full" height="100%" version="1.1" viewBox="0,0,1000,240" width="100%" xmlns="http://www.w3.org/2000/svg" xmlns:ev="http://www.w3.org/2001/xml-events" xmlns:xlink="http://www.w3.org/1999/xlink"><defs /><rect fill="white" height="240" width="1000" x="0" y="0" /><path d="M0,0 M80.07111358642578,110.74598693847656 L80.05267333984375,110.67674255371094 L80.04421997070312,110.60147094726562 L80.04122161865234,110.61943817138672 L80.00953674316406,110.86763000488281 L79.89805603027344,111.47372436523438 L79.68234252929688,112.50601196289062 L79.36314392089844,113.94462585449219 L78.99307250976562,115.71766662597656 L78.61014556884766,117.73990631103516 L78.23333740234375,119.91647338867188 L77.88983154296875,122.16981506347656 L77.60562896728516,124.39419555664062 L77.39494323730469,126.45480346679688 L77.29776000976562,128.2274169921875 L77.3067398071289,129.6239013671875 L77.4161376953125,130.53807067871094 L77.60594940185547,130.9298095703125 L77.85292053222656,130.82579040527344 L78.07069396972656,130.48037719726562 L78.22354888916016,130.13189697265625 M87.730224609375,110.32176971435547 L87.75707244873047,110.68421173095703 L87.77954864501953,111.47769165039062 L87.75332641601562,112.7630615234375 L87.64559936523438,114.45729064941406 L87.41802978515625,116.43782043457031 L87.10215759277344,118.565673828125 L86.75799560546875,120.7200698852539 L86.44282531738281,122.80648803710938 L86.20213317871094,124.69281768798828 L86.06829833984375,126.25669860839844 L86.00665283203125,127.3208236694336 L85.9942626953125,127.880615234375 M77.3974380493164,122.19738006591797 L77.59640502929688,122.2138671875 L78.12293243408203,122.2034683227539 L79.11978912353516,122.13954162597656 L80.62832641601562,121.99418640136719 L82.60084533691406,121.76998138427734 L84.92060852050781,121.47199249267578 L87.41394805908203,121.12319946289062 L89.89228820800781,120.74044799804688 L92.16598510742188,120.35736846923828 L94.06900024414062,119.99547576904297 L95.50938415527344,119.67887115478516 L96.48861694335938,119.42227172851562 L97.05535888671875,119.26374053955078 L97.29542541503906,119.25411224365234 L97.26786804199219,119.46924591064453 L97.03250122070312,119.97822570800781 L96.65034484863281,120.81820678710938 L96.2046890258789,121.94731903076172 L95.76921844482422,123.2782211303711 L95.41999816894531,124.69330596923828 L95.1881103515625,126.0599365234375 L95.0899429321289,127.26534271240234 L95.09445190429688,128.23855590820312 L95.16854095458984,128.84495544433594 L95.26882934570312,129.01121520996094 L95.38008117675781,128.73057556152344 L95.46922302246094,128.2584228515625 L95.53021240234375,127.82899475097656 M95.64891052246094,111.25247192382812 L95.72067260742188,111.16085815429688 L95.87594604492188,111.06346130371094 L96.05572509765625,110.98989868164062 L96.20105743408203,110.96981811523438 M104.30279541015625,127.57876586914062 L104.29147338867188,127.88130950927734 L104.21176147460938,128.54022216796875 L103.99581909179688,129.5977783203125 L103.56344604492188,131.00071716308594 L102.93008422851562,132.63278198242188 L102.15628051757812,134.31814575195312 L101.47718811035156,135.66722106933594 L101.03652954101562,136.50521850585938 M121.44612121582031,112.84222412109375 L121.47969818115234,112.78941345214844 L121.50645446777344,112.86128997802734 L121.5064926147461,113.2317886352539 L121.41575622558594,114.06993103027344 L121.19075012207031,115.41734313964844 L120.81211853027344,117.20592498779297 L120.2991943359375,119.29389953613281 L119.71240997314453,121.53382110595703 L119.18644714355469,123.7753677368164 L118.7928695678711,125.85957336425781 L118.57212829589844,127.63796997070312 L118.49542236328125,128.9333038330078 L118.48806762695312,129.64599609375 L118.47052001953125,129.79661560058594 L118.44214630126953,129.63197326660156 L118.40389251708984,129.38853454589844 M114.5359878540039,121.24362182617188 L114.6817398071289,121.25582122802734 L115.10956573486328,121.30506134033203 L115.93333435058594,121.39399719238281 L117.15621185302734,121.49163818359375 L118.6801528930664,121.5505599975586 L120.38084411621094,121.51473236083984 L122.11793518066406,121.354736328125 L123.82426452636719,120.9902572631836 L125.43063354492188,120.37763214111328 L126.8600082397461,119.52003479003906 L127.90789031982422,118.69671630859375 L128.51690673828125,118.10440063476562 M129.64242553710938,111.1407241821289 L129.763671875,111.28519439697266 L129.93948364257812,111.68006896972656 L130.1102294921875,112.43267822265625 L130.18896484375,113.57123565673828 L130.1278533935547,115.0627670288086 L129.91012573242188,116.8318099975586 L129.57089233398438,118.78501892089844 L129.17161560058594,120.79503631591797 L128.79061889648438,122.70655822753906 L128.50445556640625,124.33726501464844 L128.34124755859375,125.5596694946289 L128.28866577148438,126.31132507324219 L128.33670043945312,126.5866928100586 L128.4742431640625,126.39911651611328 L128.72833251953125,125.75647735595703 L129.1524658203125,124.67842864990234 L129.77700805664062,123.27523803710938 L130.59547424316406,121.71568298339844 L131.58203125,120.18559265136719 L132.6841583251953,118.8487777709961 L133.8424072265625,117.8156967163086 L134.99183654785156,117.15109252929688 L136.06124877929688,116.91915893554688 L136.9677734375,117.16146850585938 L137.64344787597656,117.88626098632812 L138.07089233398438,119.05253601074219 L138.25216674804688,120.56371307373047 L138.23068237304688,122.26899719238281 L138.0956268310547,123.98548126220703 L137.92926025390625,125.53199005126953 L137.7935791015625,126.7711181640625 L137.7662353515625,127.59903717041016 L137.88656616210938,127.94581604003906 L138.21131896972656,127.77678680419922 L138.78179931640625,127.07628631591797 L139.5830078125,125.88943481445312 L140.55026245117188,124.35637664794922 L141.58763122558594,122.67776489257812 L142.55783081054688,121.08085632324219 L143.35159301757812,119.7569580078125 L143.89797973632812,118.813720703125 L144.18063354492188,118.3065185546875 L144.25820922851562,118.26140594482422 L144.1965789794922,118.70181274414062 L144.038818359375,119.63584899902344 L143.8150634765625,120.99691009521484 L143.57998657226562,122.62348175048828 L143.39602661132812,124.30696868896484 L143.3218994140625,125.80974578857422 L143.36236572265625,126.97781372070312 L143.45262145996094,127.71354675292969 L143.5279541015625,128.06712341308594 M144.08770751953125,111.8197250366211 L144.0518798828125,111.56234741210938 L144.03990173339844,111.28728485107422 L144.05178833007812,111.10399627685547 L144.10350036621094,111.13018035888672 L144.172607421875,111.29219055175781 L144.2632598876953,111.53890228271484 L144.34738159179688,111.75731658935547 L144.42092895507812,111.91123962402344 M158.07568359375,118.05394744873047 L157.93496704101562,117.94092559814453 L157.5201416015625,117.77998352050781 L156.70346069335938,117.63664245605469 L155.453857421875,117.6218032836914 L153.88406372070312,117.79395294189453 L152.210205078125,118.16024017333984 L150.6838836669922,118.67042541503906 L149.56088256835938,119.2564468383789 L149.02005004882812,119.85606384277344 L149.12713623046875,120.4532241821289 L149.85263061523438,121.0494613647461 L151.08770751953125,121.66069793701172 L152.6466064453125,122.30695343017578 L154.34957885742188,123.00310516357422 L156.02120971679688,123.74224090576172 L157.49081420898438,124.50955200195312 L158.6259765625,125.26546478271484 L159.34738159179688,125.96821594238281 L159.59878540039062,126.58960723876953 L159.35952758789062,127.1152572631836 L158.63320922851562,127.53050231933594 L157.447509765625,127.82066345214844 L155.89468383789062,127.96536254882812 L154.11996459960938,127.94783020019531 L152.33859252929688,127.78756713867188 L150.7607879638672,127.5414047241211 L149.64553833007812,127.31187438964844 L149.0399169921875,127.16132354736328 M174.0294189453125,118.547119140625 L174.01727294921875,118.72467803955078 L173.9571533203125,119.13739776611328 L173.82077026367188,119.83895874023438 L173.59738159179688,120.82198333740234 L173.31298828125,122.0353012084961 L173.02786254882812,123.4057846069336 L172.78509521484375,124.8191146850586 L172.6455078125,126.1142349243164 L172.63482666015625,127.11236572265625 L172.74935913085938,127.71353149414062 L172.90573120117188,127.9599838256836 L173.04144287109375,127.98802185058594 M174.76541137695312,110.72515106201172 L174.74325561523438,110.58113861083984 L174.73593139648438,110.45606994628906 L174.74317932128906,110.38433837890625 L174.76480102539062,110.40034484863281 M184.62515258789062,117.46759796142578 L184.34402465820312,117.36666107177734 L183.78482055664062,117.25868225097656 L182.92376708984375,117.21160125732422 L181.87521362304688,117.30511474609375 L180.78961181640625,117.54290008544922 L179.83822631835938,117.90658569335938 L179.183837890625,118.3808364868164 L178.94744873046875,118.96166229248047 L179.1649169921875,119.63768005371094 L179.8565673828125,120.38831329345703 L180.979248046875,121.17245483398438 L182.4261474609375,121.9615478515625 L184.0325927734375,122.75408935546875 L185.58663940429688,123.54373931884766 L186.88107299804688,124.31013488769531 L187.76608276367188,125.00878143310547 L188.14013671875,125.59331512451172 L187.96151733398438,126.03704833984375 L187.19692993164062,126.33283233642578 L185.86349487304688,126.48152160644531 L184.04464721679688,126.47920227050781 L181.894775390625,126.31700134277344 L179.63623046875,126.0022201538086 L177.53094482421875,125.5234146118164 L175.80471801757812,124.90216064453125 L174.60821533203125,124.20049285888672 L173.95159912109375,123.6005859375 L173.70188903808594,123.21034240722656 M212.857177734375,108.65587615966797 L212.89993286132812,108.57351684570312 L212.91085815429688,108.5496597290039 L212.79391479492188,108.7119140625 L212.44525146484375,109.21847534179688 L211.800048828125,110.13875579833984 L210.8690185546875,111.45952606201172 L209.67147827148438,113.1165771484375 L208.2528076171875,115.04011535644531 L206.661376953125,117.13320922851562 L204.96478271484375,119.3041763305664 L203.26254272460938,121.42024230957031 L201.69448852539062,123.30953979492188 L200.39541625976562,124.80992889404297 L199.45480346679688,125.84777069091797 L198.89227294921875,126.43817138671875 L198.71096801757812,126.5860366821289 L198.86737060546875,126.3318862915039 L199.31591796875,125.70317077636719 L199.830322265625,124.98866271972656 L200.23556518554688,124.42546081542969 M210.87628173828125,109.41419982910156 L211.02468872070312,109.45604705810547 L211.2685546875,109.63280487060547 L211.57028198242188,110.04480743408203 L211.84747314453125,110.7743148803711 L212.05978393554688,111.85380554199219 L212.20452880859375,113.2750015258789 L212.28289794921875,114.98455810546875 L212.32644653320312,116.87687683105469 L212.35238647460938,118.82240295410156 L212.37454223632812,120.6870346069336 L212.397705078125,122.3581771850586 L212.41616821289062,123.72628784179688 L212.40771484375,124.71218872070312 L212.36184692382812,125.27606201171875 L212.29605102539062,125.49922180175781 L212.238525390625,125.5193099975586 M206.13003540039062,118.55425262451172 L206.28594970703125,118.48018646240234 L206.719970703125,118.36679077148438 L207.541748046875,118.23793029785156 L208.81936645507812,118.11796569824219 L210.45361328125,117.99290466308594 L212.24771118164062,117.85134887695312 L213.73202514648438,117.72097778320312 L214.66165161132812,117.62422180175781 M219.34918212890625,116.29268646240234 L219.388671875,116.42081451416016 L219.41754150390625,116.77151489257812 L219.38043212890625,117.43998718261719 L219.21286010742188,118.44895935058594 L218.90963745117188,119.74649047851562 L218.50152587890625,121.21570587158203 L218.06448364257812,122.7107162475586 L217.6748046875,124.05986022949219 L217.38201904296875,125.13872528076172 L217.19525146484375,125.85623931884766 L217.11782836914062,126.16685485839844 L217.13778686523438,126.0509262084961 L217.28280639648438,125.49051666259766 L217.58981323242188,124.49010467529297 L218.09173583984375,123.14382934570312 L218.81619262695312,121.59321594238281 L219.75454711914062,120.01039123535156 L220.88177490234375,118.54548645019531 L222.16912841796875,117.29998016357422 L223.55789184570312,116.34487915039062 L224.98403930664062,115.74767303466797 L226.37625122070312,115.54462432861328 L227.62399291992188,115.7482681274414 L228.63973999023438,116.34661102294922 L229.34542846679688,117.31499481201172 L229.69943237304688,118.59798431396484 L229.72747802734375,120.1142807006836 L229.50616455078125,121.73236846923828 L229.15728759765625,123.27147674560547 L228.82168579101562,124.5634536743164 L228.5914306640625,125.43894958496094 L228.48626708984375,125.88818359375 M233.94207763671875,116.8359603881836 L234.0068359375,116.8988265991211 L234.08071899414062,117.16329193115234 L234.11581420898438,117.76533508300781 L234.07000732421875,118.76496887207031 L233.93731689453125,120.0883560180664 L233.8013916015625,121.5770492553711 L233.7459716796875,123.03356170654297 L233.86434936523438,124.26090240478516 L234.23419189453125,125.12053680419922 L234.89004516601562,125.51517486572266 L235.80581665039062,125.40210723876953 L236.94546508789062,124.79048919677734 L238.20925903320312,123.74649810791016 L239.50299072265625,122.39161682128906 L240.74163818359375,120.89503479003906 L241.83609008789062,119.44855499267578 L242.71246337890625,118.23297882080078 L243.34500122070312,117.34705352783203 L243.72763061523438,116.83263397216797 L243.9013671875,116.70185852050781 L243.91232299804688,116.96179962158203 L243.79296875,117.63969421386719 L243.5498046875,118.73055267333984 L243.22872924804688,120.186279296875 L242.87484741210938,121.8602523803711 L242.56015014648438,123.55757904052734 L242.345458984375,124.89044952392578 L242.2421875,125.69664001464844 M250.47415161132812,108.46714782714844 L250.55816650390625,108.48182678222656 L250.6708984375,108.65631866455078 L250.75857543945312,109.1232681274414 L250.73910522460938,109.97254180908203 L250.59112548828125,111.1928482055664 L250.31118774414062,112.72492218017578 L249.91995239257812,114.4670639038086 L249.46383666992188,116.32676696777344 L248.98159790039062,118.21342468261719 L248.50662231445312,120.00457000732422 L248.08865356445312,121.57125091552734 L247.75601196289062,122.8060073852539 L247.50851440429688,123.62696075439453 L247.34921264648438,124.01892852783203 L247.27294921875,124.00093841552734 L247.29299926757812,123.58354187011719 L247.46044921875,122.79022216796875 L247.85476684570312,121.6813735961914 L248.52786254882812,120.3686294555664 L249.5029296875,119.00740814208984 L250.74737548828125,117.7494888305664 L252.17990112304688,116.71630096435547 L253.69564819335938,115.99385070800781 L255.19979858398438,115.64110565185547 L256.5898132324219,115.70760345458984 L257.78643798828125,116.20396423339844 L258.72265625,117.10248565673828 L259.3334045410156,118.3228530883789 L259.5628967285156,119.73724365234375 L259.3929138183594,121.18769073486328 L258.8243713378906,122.53369903564453 L257.9070129394531,123.66636657714844 L256.6996154785156,124.53189849853516 L255.26144409179688,125.10517883300781 L253.66241455078125,125.38090515136719 L252.00274658203125,125.36331939697266 L250.39724731445312,125.08063507080078 L248.97659301757812,124.59428405761719 L247.82125854492188,123.9820327758789 L247.0347900390625,123.26973724365234 L246.66851806640625,122.48196411132812 L246.72927856445312,121.64126586914062 L247.00796508789062,120.93070983886719 L247.30767822265625,120.46375274658203 M264.2985534667969,107.86599731445312 L264.20281982421875,108.0243148803711 L264.0642395019531,108.48238372802734 L263.892333984375,109.35311126708984 L263.6934509277344,110.65420532226562 L263.4278564453125,112.30860137939453 L263.06951904296875,114.2064208984375 L262.6404113769531,116.23184204101562 L262.2160949707031,118.2814712524414 L261.86102294921875,120.20845794677734 L261.6199645996094,121.85711669921875 L261.4896240234375,123.11117553710938 L261.45697021484375,123.90181732177734 L261.50982666015625,124.2056884765625 L261.6802978515625,124.03837585449219 L261.9993591308594,123.4009780883789 L262.51092529296875,122.3348388671875 L263.2294006347656,120.97392272949219 L264.1540222167969,119.48090362548828 L265.23565673828125,118.02023315429688 L266.4404602050781,116.73623657226562 L267.72052001953125,115.72615051269531 L269.022705078125,115.04953002929688 L270.2732849121094,114.77818298339844 L271.37713623046875,114.9393539428711 L272.2164001464844,115.53466796875 L272.7287292480469,116.52543640136719 L272.9078674316406,117.83975982666016 L272.81427001953125,119.36943054199219 L272.56591796875,120.96678161621094 L272.28680419921875,122.4568099975586 L272.0729675292969,123.56684875488281 L271.9609375,124.20230102539062 M281.0791320800781,116.84174346923828 L281.0061340332031,116.58195495605469 L280.8419494628906,116.2260971069336 L280.5501708984375,115.88898468017578 L280.11053466796875,115.74443054199219 L279.4945373535156,115.85708618164062 L278.7181396484375,116.26231384277344 L277.82916259765625,116.95438385009766 L276.924560546875,117.91043090820312 L276.1205139160156,119.0720443725586 L275.53155517578125,120.35289001464844 L275.2244873046875,121.6306381225586 L275.2521667480469,122.78026580810547 L275.61517333984375,123.6801528930664 L276.29864501953125,124.2309799194336 L277.2342834472656,124.37410736083984 L278.3399353027344,124.08338928222656 L279.51654052734375,123.37616729736328 L280.6917419433594,122.32845306396484 L281.783935546875,121.04032897949219 L282.7208557128906,119.64883422851562 L283.4279479980469,118.2987289428711 L283.87420654296875,117.11377716064453 L284.0885009765625,116.17713928222656 L284.1504211425781,115.52696228027344 L284.1331481933594,115.16495513916016 L284.07012939453125,115.11091613769531 L283.977783203125,115.40065002441406 L283.8450927734375,116.07919311523438 L283.6933288574219,117.13895416259766 L283.5657043457031,118.49561309814453 L283.5190124511719,120.01704406738281 L283.6479797363281,121.56891632080078 L284.02081298828125,123.00992584228516 L284.626708984375,124.22870635986328 L285.2435302734375,125.07432556152344 L285.6965637207031,125.52718353271484 M290.97222900390625,116.82611083984375 L291.0452575683594,116.69407653808594 L291.1767883300781,116.60603332519531 L291.3362121582031,116.69490814208984 L291.4635925292969,117.11212158203125 L291.4993591308594,117.8989028930664 L291.44586181640625,119.02393341064453 L291.3605651855469,120.38549041748047 L291.334716796875,121.83113861083984 L291.447265625,123.17092895507812 L291.7177429199219,124.24337005615234 L292.1090393066406,124.94405364990234 L292.57159423828125,125.21571350097656 L293.0894775390625,125.03968811035156 L293.69097900390625,124.41703796386719 L294.4147644042969,123.39444732666016 L295.25286865234375,122.05696868896484 L296.1578369140625,120.5346908569336 L297.049072265625,118.96530151367188 L297.8651428222656,117.47671508789062 L298.59063720703125,116.17276763916016 L299.2208251953125,115.13448333740234 L299.757568359375,114.37850189208984 L300.1446533203125,113.91984558105469 L300.36700439453125,113.70183563232422 M325.1202392578125,109.50961303710938 L324.8875427246094,109.01668548583984 L324.4609069824219,108.27436828613281 L323.8303527832031,107.43534088134766 L323.0000915527344,106.73967742919922 L321.9389343261719,106.26567077636719 L320.61199951171875,106.04663848876953 L319.0595703125,106.07645416259766 L317.41424560546875,106.36497497558594 L315.88555908203125,106.90856170654297 L314.657958984375,107.67423248291016 L313.90643310546875,108.6422348022461 L313.70172119140625,109.76502990722656 L314.0882263183594,110.99559020996094 L315.0579833984375,112.27978515625 L316.578125,113.57363891601562 L318.5367736816406,114.842041015625 L320.7591247558594,116.09375 L322.9819641113281,117.32537841796875 L324.9638366699219,118.55136108398438 L326.4869079589844,119.76587677001953 L327.4377746582031,120.9522476196289 L327.8006591796875,122.06187438964844 L327.6098937988281,123.04944610595703 L326.9000549316406,123.8412094116211 L325.7256774902344,124.39872741699219 L324.0981750488281,124.6894302368164 L322.0707092285156,124.72569274902344 L319.74749755859375,124.51771545410156 L317.28167724609375,124.10195922851562 L314.85284423828125,123.50446319580078 L312.65203857421875,122.78035736083984 L310.83807373046875,121.92620086669922 L309.5444641113281,120.99408721923828 L308.8177185058594,120.03889465332031 L308.5396728515625,119.26705932617188 L308.5231628417969,118.78145599365234 M330.4318542480469,115.99087524414062 L330.4618225097656,116.20572662353516 L330.46905517578125,116.66674041748047 L330.42041015625,117.41985321044922 L330.2757263183594,118.4342041015625 L330.0455017089844,119.67918395996094 L329.73858642578125,121.09671783447266 L329.4010925292969,122.60514831542969 L329.09002685546875,124.06554412841797 L328.86944580078125,125.31099700927734 L328.76629638671875,126.1969223022461 L328.757080078125,126.68891906738281 L328.7872009277344,126.87325286865234 M331.8342590332031,107.89446258544922 L331.8476867675781,107.8995132446289 L331.8957214355469,107.96331787109375 L331.958740234375,108.05829620361328 L332.0169677734375,108.1568832397461 M336.640380859375,115.58506774902344 L336.651611328125,115.86114501953125 L336.6275939941406,116.42606353759766 L336.5257263183594,117.31527709960938 L336.2967224121094,118.47093963623047 L335.9284973144531,119.82821655273438 L335.4579162597656,121.29954528808594 L334.96478271484375,122.77448272705078 L334.53741455078125,124.11717987060547 L334.2436218261719,125.21968841552734 L334.0907287597656,125.9854736328125 L334.0621337890625,126.3447036743164 L334.14276123046875,126.2522964477539 L334.32952880859375,125.66535949707031 L334.6546630859375,124.59757995605469 L335.1553955078125,123.16407775878906 L335.8553771972656,121.51983642578125 L336.7803039550781,119.83817291259766 L337.9221496582031,118.2643814086914 L339.2329406738281,116.91105651855469 L340.629150390625,115.87069702148438 L342.0267639160156,115.24048614501953 L343.3392639160156,115.0823974609375 L344.5154724121094,115.41405487060547 L345.5112609863281,116.19149017333984 L346.2830810546875,117.34876251220703 L346.7765808105469,118.77327728271484 L346.991943359375,120.3440170288086 L346.97930908203125,121.94574737548828 L346.8522033691406,123.44664764404297 L346.7370910644531,124.7253646850586 L346.68670654296875,125.62100219726562 L346.6911926269531,126.10704803466797 M356.4145202636719,120.80984497070312 L356.3574523925781,120.3803939819336 L356.218505859375,119.72200012207031 L355.9617004394531,118.9421157836914 L355.55438232421875,118.23905181884766 L354.96673583984375,117.68402099609375 L354.1725158691406,117.33914947509766 L353.1914978027344,117.2608413696289 L352.0892333984375,117.52594757080078 L350.974365234375,118.15054321289062 L349.9661560058594,119.09662628173828 L349.19915771484375,120.27729034423828 L348.7603454589844,121.5595703125 L348.734130859375,122.80744934082031 L349.1549377441406,123.87422943115234 L350.00604248046875,124.62963104248047 L351.1885070800781,124.98247528076172 L352.60028076171875,124.9024887084961 L354.0793151855469,124.41398620605469 L355.4903564453125,123.60513305664062 L356.70794677734375,122.5870132446289 L357.6535339355469,121.49617004394531 L358.2720642089844,120.45882415771484 L358.60479736328125,119.56612396240234 L358.70220947265625,118.87615203857422 L358.6459655761719,118.43645477294922 L358.5113525390625,118.2912826538086 L358.3662109375,118.49575805664062 L358.2487487792969,119.101806640625 L358.2032470703125,120.10588836669922 L358.2463684082031,121.45548248291016 L358.377685546875,123.06853485107422 L358.5826416015625,124.85982513427734 L358.814453125,126.74857330322266 L359.0033264160156,128.66583251953125 L359.07830810546875,130.5179901123047 L358.9755859375,132.20770263671875 L358.666259765625,133.646484375 L358.1479187011719,134.77464294433594 L357.4181213378906,135.55616760253906 L356.49407958984375,135.96888732910156 L355.40740966796875,136.0030517578125 L354.2172546386719,135.6646270751953 L353.0145263671875,135.00726318359375 L351.8906555175781,134.0409698486328 L350.9266052246094,132.83148193359375 L350.1850280761719,131.47201538085938 L349.7135314941406,130.31243896484375 L349.4840087890625,129.54861450195312 M365.26263427734375,108.81690216064453 L365.2983093261719,108.90144348144531 L365.37225341796875,109.21786499023438 L365.4596862792969,109.89708709716797 L365.50396728515625,110.99980163574219 L365.4402160644531,112.48831939697266 L365.2445373535156,114.26632690429688 L364.9366455078125,116.22074890136719 L364.60223388671875,118.22935485839844 L364.32525634765625,120.15293884277344 L364.15875244140625,121.83012390136719 L364.0979919433594,123.13349914550781 L364.1272888183594,123.9749984741211 L364.219482421875,124.31500244140625 L364.4010925292969,124.158447265625 L364.7339172363281,123.54499053955078 L365.2877197265625,122.54298400878906 L366.0845947265625,121.29423522949219 L367.1286315917969,119.95734405517578 L368.3684997558594,118.66034698486328 L369.7601623535156,117.5254898071289 L371.26629638671875,116.64053344726562 L372.8510437011719,116.07343292236328 L374.43682861328125,115.89517974853516 L375.93682861328125,116.14337158203125 L377.2285461425781,116.80259704589844 L378.2191467285156,117.84498596191406 L378.84722900390625,119.18677520751953 L379.1072998046875,120.7375259399414 L379.0659484863281,122.35619354248047 L378.8413391113281,123.88115692138672 L378.5918273925781,125.02360534667969 L378.4230651855469,125.68819427490234 M392.8374328613281,116.68331146240234 L392.947998046875,116.40144348144531 L393.10125732421875,116.02883911132812 L393.2480163574219,115.68299865722656 L393.3046569824219,115.5440673828125 L393.2290344238281,115.67622375488281 L392.988037109375,116.14549255371094 L392.5820007324219,116.99552154541016 L392.0696105957031,118.19450378417969 L391.5429992675781,119.64351654052734 L391.1045227050781,121.20774841308594 L390.83734130859375,122.71896362304688 L390.79345703125,124.03265380859375 L391.0001220703125,125.04171752929688 L391.4779052734375,125.65509033203125 L392.23565673828125,125.82057189941406 L393.247314453125,125.54267120361328 L394.4252624511719,124.84291076660156 L395.6436462402344,123.8233642578125 L396.7616882324219,122.64342498779297 L397.66845703125,121.48342895507812 L398.32452392578125,120.48511505126953 L398.7420654296875,119.7322006225586 L398.9654541015625,119.22691345214844 L399.0469055175781,118.98644256591797 L399.0335693359375,119.04326629638672 L398.9779357910156,119.44620513916016 L398.9273376464844,120.2151870727539 L398.9376220703125,121.30033874511719 L399.0721740722656,122.56108856201172 L399.37847900390625,123.83695220947266 L399.8882751464844,124.97250366210938 L400.6238708496094,125.84695434570312 L401.5749206542969,126.3881607055664 L402.71246337890625,126.54572296142578 L403.9830627441406,126.28225708007812 L405.2924499511719,125.60224151611328 L406.5205383300781,124.56173706054688 L407.5523376464844,123.25355529785156 L408.2867126464844,121.80604553222656 L408.6698913574219,120.33375549316406 L408.698486328125,118.93113708496094 L408.4103088378906,117.67385864257812 L407.88287353515625,116.61813354492188 L407.22650146484375,115.80574798583984 L406.5719909667969,115.26219177246094 L406.0438537597656,114.96772766113281 L405.7135925292969,114.85597229003906 L405.5680847167969,114.84578704833984 M413.0726623535156,116.8615951538086 L413.0634460449219,117.00678253173828 L413.0594482421875,117.3504638671875 L413.0581359863281,117.94659423828125 L413.0436096191406,118.77947235107422 L412.9969787597656,119.79905700683594 L412.9006652832031,120.91242218017578 L412.7637634277344,122.01797485351562 L412.630126953125,123.01476287841797 L412.53521728515625,123.8265380859375 L412.4859924316406,124.37999725341797 L412.4831848144531,124.62052917480469 L412.5099182128906,124.48869323730469 L412.5731506347656,123.94718170166016 L412.70721435546875,123.00743865966797 L412.9241027832031,121.76025390625 L413.2232666015625,120.3338851928711 L413.6078186035156,118.87720489501953 L414.0769348144531,117.49706268310547 L414.6580810546875,116.26631927490234 L415.3943176269531,115.24234771728516 L416.2925109863281,114.4669189453125 L417.36114501953125,113.98126983642578 L418.57171630859375,113.79855346679688 L419.8672790527344,113.88402557373047 L421.1795654296875,114.15841674804688 L422.4526062011719,114.5320816040039 L423.6402893066406,114.90603637695312 L424.73291015625,115.21652221679688 L425.71502685546875,115.4315414428711 L426.57867431640625,115.55928039550781 L427.30279541015625,115.61383819580078 L427.8862609863281,115.62147521972656 L428.34136962890625,115.60594940185547 L428.6908264160156,115.58880615234375 L428.9486999511719,115.61700439453125 L429.1270751953125,115.74994659423828 L429.20697021484375,116.03752136230469 L429.18841552734375,116.51935577392578 L429.076416015625,117.21055603027344 L428.886474609375,118.09796905517578 L428.6469421386719,119.15662384033203 L428.38848876953125,120.33831024169922 L428.1263732910156,121.58318328857422 L427.8780517578125,122.79859924316406 L427.6543273925781,123.86300659179688 L427.45892333984375,124.66980743408203 L427.3187561035156,125.15779113769531 L427.2391662597656,125.36874389648438 M428.2233581542969,108.37093353271484 L428.3173522949219,108.32852935791016 L428.5319519042969,108.32107543945312 L428.7851257324219,108.34564971923828 L428.99493408203125,108.39936065673828 M437.8148498535156,108.2614517211914 L437.8254699707031,108.47078704833984 L437.7975158691406,108.95502471923828 L437.6723327636719,109.7878646850586 L437.4061279296875,110.96088409423828 L437.0133972167969,112.44149017333984 L436.5484924316406,114.1690444946289 L436.09197998046875,116.07648468017578 L435.70361328125,118.0836410522461 L435.3956298828125,120.08335876464844 L435.1660461425781,121.93770599365234 L435.00311279296875,123.53361511230469 L434.9049072265625,124.72798156738281 L434.871826171875,125.42782592773438 L434.88787841796875,125.62860107421875 L434.92071533203125,125.52561950683594 L434.95086669921875,125.3223876953125 M431.8612365722656,117.16443634033203 L432.0283203125,117.05350494384766 L432.4928894042969,116.907958984375 L433.37274169921875,116.76077270507812 L434.6964111328125,116.6583023071289 L436.4035339355469,116.5907211303711 L438.3543701171875,116.54549407958984 L440.388916015625,116.50845336914062 L442.35986328125,116.48735809326172 L444.1285705566406,116.49050903320312 L445.5908203125,116.54678344726562 L446.6947937011719,116.70458984375 L447.4130859375,117.01419830322266 L447.7615661621094,117.5368423461914 L447.7756652832031,118.30774688720703 L447.5109558105469,119.31044006347656 L447.0446472167969,120.48404693603516 L446.49407958984375,121.72254943847656 L445.98223876953125,122.9216537475586 L445.6154479980469,123.95105743408203 L445.43902587890625,124.69129180908203 L445.4453430175781,125.0711441040039 L445.53692626953125,125.1701889038086 L445.63140869140625,125.11325073242188 M447.9625549316406,109.5865707397461 L447.9953308105469,109.54216766357422 L448.074951171875,109.49901580810547 L448.1706237792969,109.46983337402344 L448.25140380859375,109.46733093261719 M453.9656982421875,115.1444320678711 L453.9963073730469,115.22650909423828 L454.02716064453125,115.4815673828125 L454.0306396484375,116.01638793945312 L453.9619140625,116.88446807861328 L453.8013610839844,118.05430603027344 L453.5538024902344,119.44465637207031 L453.2479248046875,120.90606689453125 L452.950927734375,122.27802276611328 L452.71875,123.43940734863281 L452.5774841308594,124.3050308227539 L452.53375244140625,124.80623626708984 L452.58392333984375,124.90763092041016 L452.7347412109375,124.58019256591797 L453.0244140625,123.81668090820312 L453.4736022949219,122.68659973144531 L454.09521484375,121.32112121582031 L454.8944091796875,119.85315704345703 L455.8684387207031,118.41007995605469 L457.01702880859375,117.10186767578125 L458.3249816894531,116.01272583007812 L459.73907470703125,115.23095703125 L461.1617431640625,114.82131958007812 L462.4950256347656,114.81712341308594 L463.6473083496094,115.22252655029297 L464.56109619140625,116.016357421875 L465.2049865722656,117.1455307006836 L465.58038330078125,118.50619506835938 L465.7214050292969,119.95343017578125 L465.7257995605469,121.32571411132812 L465.7042541503906,122.47958374023438 L465.7069396972656,123.26436614990234 L465.73870849609375,123.6780776977539 M475.599853515625,117.4519271850586 L475.55828857421875,117.06365203857422 L475.3888854980469,116.45928192138672 L474.9935607910156,115.76300811767578 L474.2901611328125,115.20112609863281 L473.272705078125,114.90608978271484 L471.9952087402344,114.9571304321289 L470.5925598144531,115.37448120117188 L469.2840576171875,116.13768005371094 L468.28741455078125,117.1640396118164 L467.75543212890625,118.32579040527344 L467.7583312988281,119.47398376464844 L468.2951354980469,120.45793914794922 L469.299072265625,121.14103698730469 L470.67755126953125,121.44352722167969 L472.30078125,121.34715270996094 L473.9820861816406,120.89710235595703 L475.5098876953125,120.18721008300781 L476.7353515625,119.35800170898438 L477.5746765136719,118.52745056152344 L478.0389404296875,117.81102752685547 L478.2163391113281,117.29341125488281 L478.2127380371094,117.02766418457031 L478.1083679199219,117.06490325927734 L477.97430419921875,117.48058319091797 L477.8421325683594,118.31295776367188 L477.7381896972656,119.57557678222656 L477.6752014160156,121.22891235351562 L477.6523742675781,123.18479919433594 L477.64703369140625,125.35035705566406 L477.6119079589844,127.6312255859375 L477.4729919433594,129.9141082763672 L477.1687316894531,132.07810974121094 L476.6264343261719,133.97866821289062 L475.8099060058594,135.48806762695312 L474.72637939453125,136.52674865722656 L473.4090270996094,137.04513549804688 L471.91650390625,137.04360961914062 L470.3542785644531,136.58384704589844 L468.81951904296875,135.749267578125 L467.4264221191406,134.63327026367188 L466.2874450683594,133.37939453125 L465.4649353027344,132.1257781982422 L464.9756774902344,131.1409149169922 L464.76165771484375,130.54953002929688 M501.8723449707031,118.37447357177734 L501.7273864746094,118.00392150878906 L501.4677734375,117.41725158691406 L501.070556640625,116.69293975830078 L500.526123046875,115.98638153076172 L499.79278564453125,115.36334991455078 L498.8426208496094,114.88766479492188 L497.6716003417969,114.62181091308594 L496.3280029296875,114.66268920898438 L494.87554931640625,115.06367492675781 L493.4037780761719,115.84599304199219 L492.031494140625,116.99385070800781 L490.8841857910156,118.4163589477539 L490.0770568847656,119.98274230957031 L489.7037353515625,121.5259780883789 L489.802490234375,122.8596420288086 L490.353515625,123.84614562988281 L491.31658935546875,124.40254211425781 L492.6289978027344,124.47185516357422 L494.20538330078125,124.06044006347656 L495.9356994628906,123.21711730957031 L497.6868896484375,122.03948974609375 L499.2979431152344,120.67401885986328 L500.65496826171875,119.28833770751953 L501.70172119140625,118.02348327636719 L502.4361572265625,117.00059509277344 L502.89617919921875,116.29409790039062 L503.13818359375,115.9493408203125 L503.1883850097656,115.98893737792969 L503.0683898925781,116.42999267578125 L502.80078125,117.26766204833984 L502.42047119140625,118.45232391357422 L502.00860595703125,119.88487243652344 L501.66650390625,121.42817687988281 L501.4788513183594,122.9306869506836 L501.48681640625,124.26718139648438 L501.726318359375,125.29117584228516 L502.1817932128906,125.8888168334961 L502.8316345214844,126.03280639648438 L503.4564514160156,125.89908599853516 L503.90631103515625,125.6847915649414 M515.2535400390625,115.5533218383789 L515.1610107421875,115.16366577148438 L514.8672485351562,114.61001586914062 L514.2597045898438,114.05278015136719 L513.2838134765625,113.72022247314453 L511.9847412109375,113.6601791381836 L510.5346984863281,113.8691177368164 L509.1654357910156,114.27677917480469 L508.1339416503906,114.8443603515625 L507.62017822265625,115.53960418701172 L507.6961364746094,116.32862091064453 L508.3392028808594,117.16206359863281 L509.47467041015625,118.01556396484375 L510.96893310546875,118.86050415039062 L512.6712646484375,119.70280456542969 L514.378173828125,120.54049682617188 L515.8822021484375,121.35714721679688 L517.0177001953125,122.11949920654297 L517.690673828125,122.80642700195312 L517.861083984375,123.3875732421875 L517.5385131835938,123.86042785644531 L516.7385864257812,124.21202850341797 L515.5113525390625,124.44307708740234 L513.9461669921875,124.55601501464844 L512.2030029296875,124.52890014648438 L510.5068054199219,124.34992980957031 L509.0784606933594,124.0396728515625 L508.1181640625,123.71708679199219 L507.6360168457031,123.4800033569336 M526.7262573242188,115.13983154296875 L526.7066650390625,114.84117126464844 L526.5362548828125,114.39175415039062 L526.090576171875,113.90570068359375 L525.2847290039062,113.55103302001953 L524.1658935546875,113.41197204589844 L522.8978881835938,113.51020050048828 L521.7042236328125,113.83636474609375 L520.8245239257812,114.37490844726562 L520.4410400390625,115.10374450683594 L520.6549072265625,115.9758071899414 L521.4783935546875,116.97201538085938 L522.8248291015625,118.04466247558594 L524.5103759765625,119.15574645996094 L526.307861328125,120.25916290283203 L527.9661865234375,121.30107116699219 L529.2880859375,122.2149887084961 L530.14892578125,122.96205139160156 L530.5008544921875,123.50167846679688 L530.3250732421875,123.81973266601562 L529.6454467773438,123.9220199584961 L528.4849853515625,123.83163452148438 L526.9139404296875,123.56724548339844 L525.0677490234375,123.16876983642578 L523.1566162109375,122.65547180175781 L521.3994140625,122.06413269042969 L520.0074462890625,121.47000885009766 L519.0668334960938,120.95954895019531 L518.674560546875,120.60094451904297 L518.8368530273438,120.4337387084961 L519.5047607421875,120.40058135986328 L520.3035278320312,120.42577362060547 L520.94873046875,120.45721435546875 M535.8137817382812,115.62757873535156 L535.9089965820312,115.78821563720703 L536.0421752929688,116.18099975585938 L536.1634521484375,116.87973022460938 L536.1976318359375,117.87638854980469 L536.11328125,119.11186981201172 L535.9241943359375,120.4893569946289 L535.66552734375,121.91326904296875 L535.414794921875,123.2343978881836 L535.2470092773438,124.29976654052734 L535.211181640625,124.97647094726562 L535.2647705078125,125.28292083740234 L535.3500366210938,125.33415985107422 M537.3582763671875,108.20967102050781 L537.3560791015625,107.91643524169922 L537.3966674804688,107.60427856445312 L537.46142578125,107.36873626708984 L537.53173828125,107.30535125732422 M548.089599609375,118.00711822509766 L548.0848388671875,117.67497253417969 L548.022705078125,117.10536193847656 L547.8358154296875,116.35063934326172 L547.4459228515625,115.56876373291016 L546.8126220703125,114.87815856933594 L545.8926391601562,114.39070892333984 L544.7108764648438,114.19847869873047 L543.3429565429688,114.38616180419922 L541.9129638671875,114.9610595703125 L540.58935546875,115.87659454345703 L539.5552978515625,117.0334701538086 L538.9385986328125,118.28981018066406 L538.8245849609375,119.49703216552734 L539.2354125976562,120.52237701416016 L540.1231079101562,121.2378158569336 L541.4088134765625,121.56764221191406 L542.9630126953125,121.4908676147461 L544.634521484375,121.03903198242188 L546.2568969726562,120.2855453491211 L547.6854248046875,119.34808349609375 L548.798095703125,118.36507415771484 L549.5537109375,117.47607421875 L549.967529296875,116.78689575195312 L550.1187744140625,116.36791229248047 L550.0989990234375,116.2653579711914 L549.9898681640625,116.52950286865234 L549.828857421875,117.22612762451172 L549.6468505859375,118.37703704833984 L549.459228515625,119.92523956298828 L549.293701171875,121.7673568725586 L549.1571044921875,123.77954864501953 L549.0233154296875,125.82572174072266 L548.8419189453125,127.81755065917969 L548.5555419921875,129.66038513183594 L548.1119384765625,131.25912475585938 L547.4967041015625,132.55160522460938 L546.7053833007812,133.4930419921875 L545.7578125,134.0417938232422 L544.7197875976562,134.224853515625 L543.66552734375,134.00335693359375 L542.6917114257812,133.39669799804688 L541.8857421875,132.48353576660156 L541.339599609375,131.59674072265625 L541.0509033203125,130.96014404296875 M555.720947265625,113.65753173828125 L555.82958984375,113.7745590209961 L555.9642333984375,114.06640625 L556.0687255859375,114.60108184814453 L556.068359375,115.39667510986328 L555.943603515625,116.4313735961914 L555.7142333984375,117.6511459350586 L555.4271240234375,118.98088836669922 L555.1329345703125,120.32366180419922 L554.8887939453125,121.5736312866211 L554.7115478515625,122.62358093261719 L554.5802001953125,123.36862182617188 L554.4808349609375,123.73921966552734 L554.4281005859375,123.69515991210938 L554.452880859375,123.224609375 L554.623046875,122.36052703857422 L554.97900390625,121.18781280517578 L555.5255126953125,119.82072448730469 L556.259521484375,118.3968276977539 L557.17822265625,117.04092407226562 L558.2369384765625,115.86608123779297 L559.3951416015625,114.96380615234375 L560.5838623046875,114.40607452392578 L561.728759765625,114.24342346191406 L562.775146484375,114.50032043457031 L563.6917724609375,115.16584777832031 L564.453125,116.19502258300781 L565.0377197265625,117.49125671386719 L565.4443359375,118.94639587402344 L565.7015380859375,120.4154052734375 L565.8525390625,121.76016998291016 L565.9337158203125,122.75180053710938 L565.979248046875,123.32111358642578 M570.02978515625,115.02503204345703 L570.1187744140625,115.09288787841797 L570.2498779296875,115.31971740722656 L570.384765625,115.7922592163086 L570.44677734375,116.53892517089844 L570.3909912109375,117.51703643798828 L570.2393798828125,118.64482879638672 L570.0235595703125,119.8093490600586 L569.7877197265625,120.8897933959961 L569.5938720703125,121.78401184082031 L569.4686279296875,122.38336181640625 L569.4404296875,122.60904693603516 L569.5423583984375,122.41708374023438 L569.7808837890625,121.79779052734375 L570.1708984375,120.79944610595703 L570.7369384765625,119.5333023071289 L571.4871826171875,118.12674713134766 L572.422607421875,116.71284484863281 L573.5086669921875,115.4050521850586 L574.6734619140625,114.29023742675781 L575.842529296875,113.44863891601562 L576.94091796875,112.94277954101562 L577.91552734375,112.8258056640625 L578.74267578125,113.11077880859375 L579.4058837890625,113.7999038696289 L579.895263671875,114.8412857055664 L580.2100830078125,116.15313720703125 L580.3544921875,117.5961685180664 L580.3426513671875,119.02667236328125 L580.23095703125,120.28400421142578 L580.0731201171875,121.2630615234375 L579.9373779296875,121.87606048583984 L579.885498046875,122.08282470703125 L579.9779052734375,121.8585205078125 L580.2545166015625,121.22602844238281 L580.7620849609375,120.24609375 L581.4884033203125,119.02243041992188 L582.40625,117.67828369140625 L583.46435546875,116.34571075439453 L584.6116943359375,115.1404800415039 L585.7904052734375,114.17134094238281 L586.948974609375,113.52470397949219 L588.031494140625,113.25370025634766 L588.9859619140625,113.39036560058594 L589.768310546875,113.9317626953125 L590.343994140625,114.8397216796875 L590.7000732421875,116.03642272949219 L590.8564453125,117.3931884765625 L590.888427734375,118.77037811279297 L590.866943359375,120.02468872070312 L590.8616943359375,121.04424285888672 L590.881103515625,121.72232818603516 L590.910400390625,122.0722427368164 M594.5274658203125,118.04725646972656 L594.87353515625,117.8310546875 L595.553466796875,117.42698669433594 L596.552978515625,116.83815002441406 L597.7169189453125,116.12274932861328 L598.8800048828125,115.32455444335938 L599.8990478515625,114.49266815185547 L600.6729736328125,113.69023132324219 L601.1512451171875,112.96495056152344 L601.30859375,112.35924530029297 L601.126708984375,111.89578247070312 L600.5906982421875,111.61341857910156 L599.7314453125,111.58739471435547 L598.6151123046875,111.89936828613281 L597.3565673828125,112.56111907958984 L596.13134765625,113.55860137939453 L595.1258544921875,114.79961395263672 L594.500732421875,116.16425323486328 L594.3736572265625,117.54596710205078 L594.7738037109375,118.84147644042969 L595.7325439453125,119.91659545898438 L597.18115234375,120.69544219970703 L598.9610595703125,121.12646484375 L600.5386962890625,121.27879333496094 L601.593017578125,121.27465057373047 M605.86279296875,112.94922637939453 L605.9073486328125,113.1094970703125 L605.9998779296875,113.50308990478516 L606.121826171875,114.19645690917969 L606.2244873046875,115.16758728027344 L606.2523193359375,116.34546661376953 L606.1793212890625,117.60330963134766 L606.03125,118.80847930908203 L605.8447265625,119.83158874511719 L605.6641845703125,120.5882339477539 L605.5267333984375,121.01023864746094 L605.4576416015625,121.07501220703125 L605.473388671875,120.75084686279297 L605.604736328125,120.04508972167969 L605.88427734375,119.01844787597656 L606.3472900390625,117.80756378173828 L607.0162353515625,116.55207061767578 L607.88427734375,115.39066314697266 L608.9246826171875,114.41069793701172 L610.0806884765625,113.6724624633789 L611.301513671875,113.22403717041016 L612.54345703125,113.10980987548828 L613.74609375,113.33861541748047 L614.842529296875,113.90852355957031 L615.770751953125,114.79866027832031 L616.452880859375,115.95903015136719 L616.8724365234375,117.30741882324219 L617.0599365234375,118.74064636230469 L617.0887451171875,120.0960464477539 L617.05712890625,121.21052551269531 L617.0509033203125,121.97183227539062 L617.074462890625,122.37125396728516 L617.1163330078125,122.50157165527344 M624.328369140625,105.0 L624.3558349609375,105.01644134521484 L624.3968505859375,105.2139892578125 L624.4300537109375,105.72183990478516 L624.41259765625,106.62213897705078 L624.3114013671875,107.89034271240234 L624.125244140625,109.46538543701172 L623.8909912109375,111.28425598144531 L623.6597900390625,113.27912902832031 L623.4884033203125,115.36084747314453 L623.398681640625,117.40967559814453 L623.3861083984375,119.29666137695312 L623.4183349609375,120.86003112792969 L623.4656982421875,121.97386932373047 L623.490478515625,122.58869171142578 L623.493896484375,122.81011962890625 L623.4833984375,122.8073501586914 M618.422119140625,113.44005584716797 L618.5042724609375,113.30075073242188 L618.853759765625,113.11808013916016 L619.6072998046875,112.95162200927734 L620.89599609375,112.8791275024414 L622.6461181640625,112.89595794677734 L624.659912109375,112.96105194091797 L626.3760986328125,113.02232360839844 L627.488037109375,113.05908203125 M637.9039306640625,113.57949829101562 L637.6312255859375,113.4031982421875 L637.0909423828125,113.15828704833984 L636.26416015625,112.93550109863281 L635.22802734375,112.85377502441406 L634.08837890625,112.96012878417969 L633.0013427734375,113.26197814941406 L632.1356201171875,113.74391174316406 L631.6251220703125,114.39030456542969 L631.556884765625,115.19216918945312 L631.9437255859375,116.12849426269531 L632.7535400390625,117.17422485351562 L633.89306640625,118.28484344482422 L635.2286376953125,119.41846466064453 L636.5665283203125,120.50952911376953 L637.728515625,121.49760437011719 L638.5521240234375,122.33314514160156 L638.933837890625,122.98190307617188 L638.8306884765625,123.42469787597656 L638.25146484375,123.67134857177734 L637.228515625,123.72064971923828 L635.858642578125,123.59719848632812 L634.2650146484375,123.33675384521484 L632.5987548828125,122.9849853515625 L631.0552978515625,122.56486511230469 L629.812255859375,122.10620880126953 L628.9884033203125,121.63237762451172 L628.5753173828125,121.2463607788086 L628.4537353515625,121.00050354003906 M652.8980712890625,114.07725524902344 L652.871826171875,113.9112319946289 L652.843994140625,113.77879333496094 L652.80859375,113.83558654785156 L652.75048828125,114.25125122070312 L652.6153564453125,115.05171203613281 L652.3934326171875,116.21012115478516 L652.1181640625,117.65689086914062 L651.8699951171875,119.29759979248047 L651.7567138671875,121.02108001708984 L651.8563232421875,122.6794662475586 L652.1759033203125,124.12257385253906 L652.6717529296875,125.19845581054688 L653.2822265625,125.79876708984375 L653.9625244140625,125.86231994628906 L654.7286376953125,125.40234375 L655.583251953125,124.47581481933594 L656.507080078125,123.22028350830078 L657.4219970703125,121.78211975097656 L658.2342529296875,120.3202133178711 L658.8675537109375,118.98307800292969 L659.3006591796875,117.8912124633789 L659.531005859375,117.1150131225586 L659.608642578125,116.71588134765625 L659.5869140625,116.71442413330078 L659.528564453125,117.12161254882812 L659.4931640625,117.9203109741211 L659.5357666015625,119.04584503173828 L659.6932373046875,120.35874938964844 L660.0047607421875,121.70723724365234 L660.4857177734375,122.9300765991211 L661.140625,123.90274047851562 L661.9564208984375,124.50841522216797 L662.9273681640625,124.66919708251953 L664.02001953125,124.32434844970703 L665.1622314453125,123.5004653930664 L666.2357177734375,122.28533935546875 L667.117431640625,120.82347106933594 L667.709716796875,119.24188232421875 L668.014404296875,117.68119812011719 L668.063720703125,116.23921203613281 L667.9276123046875,115.01978302001953 L667.6749267578125,114.08647918701172 L667.4256591796875,113.50068664550781 L667.244140625,113.21295166015625 M672.915771484375,114.814453125 L672.931396484375,114.83983612060547 L672.9600830078125,115.01786804199219 L672.9737548828125,115.46469116210938 L672.93701171875,116.25631713867188 L672.8233642578125,117.36172485351562 L672.6412353515625,118.71342468261719 L672.4139404296875,120.20044708251953 L672.203369140625,121.68870544433594 L672.0540771484375,123.02076721191406 L672.0078125,124.05614471435547 L672.0362548828125,124.69440460205078 L672.096435546875,124.98146057128906 M673.44677734375,107.2283935546875 L673.4700927734375,106.93623352050781 L673.5286865234375,106.60821533203125 L673.5994873046875,106.3473129272461 L673.6593017578125,106.25652313232422 M682.3177490234375,107.18000793457031 L682.3385009765625,107.47842407226562 L682.3424072265625,108.15132141113281 L682.2691650390625,109.27001953125 L682.0599365234375,110.79277801513672 L681.698974609375,112.67012786865234 L681.187744140625,114.81705474853516 L680.5858154296875,117.13554382324219 L679.977783203125,119.50345611572266 L679.43701171875,121.73945617675781 L679.02392578125,123.64138793945312 L678.77880859375,125.07037353515625 L678.67919921875,125.84769439697266 L678.688232421875,125.90579223632812 L678.7574462890625,125.3155288696289 L678.83203125,124.50914001464844 L678.880859375,123.83834838867188 M676.623291015625,116.0220947265625 L676.7977294921875,115.91392517089844 L677.270751953125,115.78614044189453 L678.1505126953125,115.6902847290039 L679.4427490234375,115.6791763305664 L681.033935546875,115.72384643554688 L682.7662353515625,115.76983642578125 L684.513916015625,115.70244598388672 L686.163330078125,115.44939422607422 L687.631103515625,114.98768615722656 L688.713623046875,114.497314453125 L689.3382568359375,114.12464904785156 M692.5552978515625,107.30455017089844 L692.6871337890625,107.34542083740234 L692.876953125,107.57783508300781 L693.0509033203125,108.14787292480469 L693.1026611328125,109.1507568359375 L692.9775390625,110.56949615478516 L692.6669921875,112.32400512695312 L692.2357177734375,114.28377532958984 L691.7760009765625,116.30587005615234 L691.3780517578125,118.25013732910156 L691.0885009765625,119.96670532226562 L690.8958740234375,121.32414245605469 L690.7679443359375,122.24027252197266 L690.698974609375,122.67083740234375 L690.7091064453125,122.61377716064453 L690.85546875,122.1136474609375 L691.173095703125,121.22563171386719 L691.67724609375,120.05422973632812 L692.349609375,118.73200225830078 L693.161376953125,117.39720153808594 L694.0831298828125,116.15919494628906 L695.0986328125,115.12982940673828 L696.1949462890625,114.36444091796875 L697.3636474609375,113.91744995117188 L698.556396484375,113.80375671386719 L699.7152099609375,114.0281753540039 L700.7889404296875,114.56909942626953 L701.7415771484375,115.41996765136719 L702.5440673828125,116.52059936523438 L703.1844482421875,117.80113220214844 L703.628662109375,119.15621185302734 L703.8651123046875,120.48509979248047 L703.9300537109375,121.69151306152344 L703.9056396484375,122.7072525024414 L703.8656005859375,123.46391296386719 L703.8543701171875,123.9280014038086 L703.8682861328125,124.14112091064453 M720.719482421875,107.7086410522461 L720.753173828125,107.67412567138672 L720.801025390625,107.71221160888672 L720.8363037109375,107.95620727539062 L720.799560546875,108.55267333984375 L720.6475830078125,109.60273742675781 L720.3541259765625,111.10337829589844 L719.9466552734375,112.98790740966797 L719.4512939453125,115.14201354980469 L718.90625,117.42923736572266 L718.3258056640625,119.6895751953125 L717.7476806640625,121.75745391845703 L717.218017578125,123.47341918945312 L716.797119140625,124.71846008300781 L716.5306396484375,125.42027282714844 L716.4581298828125,125.56514739990234 L716.59375,125.18312072753906 L716.96240234375,124.33089447021484 L717.5484619140625,123.11603546142578 L718.3179931640625,121.67865753173828 L719.2369384765625,120.16140747070312 L720.2681884765625,118.70217895507812 L721.3775634765625,117.43279266357422 L722.5340576171875,116.44207000732422 L723.6610107421875,115.80155944824219 L724.698974609375,115.55797576904297 L725.614501953125,115.73736572265625 L726.3636474609375,116.3212890625 L726.92626953125,117.29702758789062 L727.3031005859375,118.60306549072266 L727.4910888671875,120.14176940917969 L727.5328369140625,121.78424835205078 L727.5294189453125,123.3718490600586 L727.548828125,124.70855712890625 L727.6510009765625,125.67967224121094 L727.7984619140625,126.2396469116211 L727.9281005859375,126.46724700927734 M733.701904296875,118.46392059326172 L733.7435302734375,118.52295684814453 L733.79736328125,118.75306701660156 L733.82275390625,119.24884033203125 L733.7694091796875,120.05176544189453 L733.615234375,121.11448669433594 L733.374755859375,122.34428405761719 L733.105712890625,123.6362075805664 L732.898681640625,124.81729888916016 L732.80517578125,125.70415496826172 L732.8428955078125,126.1663818359375 L732.942626953125,126.27531433105469 L733.0374755859375,126.18909454345703 M733.947509765625,111.21328735351562 L733.955322265625,110.89503479003906 L733.9969482421875,110.48843383789062 L734.0548095703125,110.12760162353516 L734.1112060546875,109.9466552734375 M747.6036376953125,116.98373413085938 L747.3834228515625,116.87150573730469 L746.8626708984375,116.71089172363281 L745.9630126953125,116.57218933105469 L744.7276611328125,116.53135681152344 L743.3026123046875,116.62266540527344 L741.93017578125,116.85899353027344 L740.869873046875,117.2357177734375 L740.3392333984375,117.77142333984375 L740.44580078125,118.48954772949219 L741.1864013671875,119.37296295166016 L742.467041015625,120.39933776855469 L744.097900390625,121.51815032958984 L745.8314208984375,122.64935302734375 L747.4227294921875,123.71659088134766 L748.6485595703125,124.63127136230469 L749.363037109375,125.33177947998047 L749.486083984375,125.79953002929688 L748.970703125,126.04235076904297 L747.8056640625,126.07662200927734 L746.0482177734375,125.91358947753906 L743.84033203125,125.57569122314453 L741.41552734375,125.10604858398438 L739.0264892578125,124.54840850830078 L736.941162109375,123.9328842163086 L735.3634033203125,123.29690551757812 L734.3818359375,122.67193603515625 L733.9207763671875,122.18022918701172 L733.8033447265625,121.88046264648438 M767.5587158203125,117.40359497070312 L767.1434326171875,117.31680297851562 L766.4178466796875,117.30126190185547 L765.4110107421875,117.47238159179688 L764.2723388671875,117.94576263427734 L763.0718994140625,118.71485137939453 L761.9334716796875,119.73197937011719 L760.97265625,120.92699432373047 L760.3321533203125,122.22327423095703 L760.1055908203125,123.52081298828125 L760.3448486328125,124.715576171875 L761.042724609375,125.67503356933594 L762.160400390625,126.27906799316406 L763.618408203125,126.45362854003906 L765.2947998046875,126.15963745117188 L767.0262451171875,125.4239730834961 L768.6187744140625,124.3160629272461 L769.8956298828125,122.94000244140625 L770.7393798828125,121.42324829101562 L771.1187744140625,119.90186309814453 L771.0406494140625,118.51050567626953 L770.5982666015625,117.3828353881836 L769.9091796875,116.58964538574219 L769.2493896484375,116.14261627197266 L768.7926025390625,115.96379852294922 M774.8551025390625,117.3219985961914 L774.908935546875,117.34674835205078 L774.9718017578125,117.51477813720703 L774.99609375,117.92276000976562 L774.9271240234375,118.63410186767578 L774.7335205078125,119.61467742919922 L774.4715576171875,120.82080841064453 L774.2203369140625,122.14090728759766 L774.0986328125,123.47293090820312 L774.164306640625,124.68508911132812 L774.4212646484375,125.65982055664062 L774.79541015625,126.28411102294922 L775.24365234375,126.50131225585938 L775.7529296875,126.26786804199219 L776.3681640625,125.62557220458984 L777.0985107421875,124.65140533447266 L777.920654296875,123.47502899169922 L778.7467041015625,122.23555755615234 L779.47216796875,121.06694030761719 L780.0350341796875,120.07727813720703 L780.4195556640625,119.35176849365234 L780.6365966796875,118.93748474121094 L780.7249755859375,118.86878967285156 L780.7431640625,119.17262268066406 L780.72216796875,119.85535430908203 L780.7220458984375,120.87745666503906 L780.8045654296875,122.11701202392578 L781.0399169921875,123.39856719970703 L781.4951171875,124.55521392822266 L782.2347412109375,125.45686340332031 L783.24609375,126.01506042480469 L784.4766845703125,126.18436431884766 L785.82275390625,125.9383544921875 L787.1556396484375,125.28577423095703 L788.330810546875,124.28755187988281 L789.2445068359375,123.03113555908203 L789.81396484375,121.57275390625 L790.0306396484375,120.02070617675781 L789.9613037109375,118.49967193603516 L789.7763671875,117.31128692626953 L789.6043701171875,116.59383392333984 M793.6170654296875,116.36248779296875 L793.6907958984375,116.63893127441406 L793.7867431640625,117.20648193359375 L793.8570556640625,118.08382415771484 L793.8291015625,119.178955078125 L793.6871337890625,120.40218353271484 L793.4515380859375,121.63941192626953 L793.1873779296875,122.7833480834961 L792.9522705078125,123.73735809326172 L792.7802734375,124.41204833984375 L792.6683349609375,124.73262786865234 L792.62109375,124.66869354248047 L792.6527099609375,124.20092010498047 L792.8182373046875,123.365966796875 L793.16015625,122.25553894042969 L793.6953125,120.99580383300781 L794.414794921875,119.71096801757812 L795.2808837890625,118.5014877319336 L796.252685546875,117.4314956665039 L797.3055419921875,116.56827545166016 L798.4063720703125,115.97756958007812 L799.5206298828125,115.72107696533203 L800.6234130859375,115.84125518798828 L801.663330078125,116.3430404663086 L802.581787109375,117.19934844970703 L803.32568359375,118.35720825195312 L803.862060546875,119.7334976196289 L804.1939697265625,121.22534942626953 L804.3818359375,122.75711822509766 L804.4984130859375,124.2182388305664 L804.6015625,125.50395202636719 L804.6934814453125,126.42961883544922 L804.76416015625,126.94795989990234 M819.483154296875,108.38845825195312 L819.5059814453125,108.4552001953125 L819.5384521484375,108.705322265625 L819.5645751953125,109.26040649414062 L819.540771484375,110.20211029052734 L819.423095703125,111.52557373046875 L819.190185546875,113.19141387939453 L818.84912109375,115.11032104492188 L818.4500732421875,117.18733215332031 L818.06103515625,119.31825256347656 L817.73486328125,121.39649200439453 L817.4908447265625,123.31637573242188 L817.3309326171875,124.9602279663086 L817.238525390625,126.20817565917969 L817.2021484375,126.99181365966797 L817.1981201171875,127.35955047607422 L817.2103271484375,127.44859313964844 M813.672119140625,116.06987762451172 L814.0162353515625,116.01874542236328 L814.7935791015625,116.01488494873047 L816.0673828125,116.11524963378906 L817.8013916015625,116.35208892822266 L819.8475341796875,116.67762756347656 L821.9832763671875,117.0107650756836 L823.704833984375,117.25735473632812 L824.7789306640625,117.3956298828125 M829.208740234375,117.83045959472656 L829.267333984375,118.06824493408203 L829.3359375,118.54139709472656 L829.3721923828125,119.28591918945312 L829.3096923828125,120.27151489257812 L829.1209716796875,121.46453857421875 L828.83935546875,122.80168151855469 L828.5391845703125,124.18456268310547 L828.331298828125,125.41044616699219 L828.302978515625,126.28736877441406 L828.4619140625,126.69034576416016 L828.687255859375,126.72848510742188 L828.87744140625,126.59427642822266 M830.981689453125,110.25959777832031 L831.05126953125,110.05171966552734 L831.16357421875,109.82931518554688 L831.2784423828125,109.660888671875 L831.3560791015625,109.61493682861328 M835.669189453125,120.68077087402344 L835.727783203125,121.31382751464844 L835.7586669921875,122.33417510986328 L835.722412109375,123.59306335449219 L835.594970703125,124.7865982055664 L835.41455078125,125.78771209716797 L835.2294921875,126.50550079345703 L835.0740966796875,126.9003677368164 L834.94873046875,126.89851379394531 L834.8741455078125,126.46331024169922 L834.87451171875,125.59777069091797 L834.974365234375,124.36844635009766 L835.2119140625,122.91032409667969 L835.6282958984375,121.36124420166016 L836.263916015625,119.83521270751953 L837.144775390625,118.43812561035156 L838.2623291015625,117.262939453125 L839.5625,116.38257598876953 L840.9735107421875,115.86184692382812 L842.4384765625,115.70658874511719 L843.93017578125,115.89584350585938 L845.3829345703125,116.34591674804688 L846.7181396484375,116.94103240966797 L847.7169189453125,117.46670532226562 L848.295654296875,117.80778503417969 M850.1361083984375,122.98048400878906 L850.474365234375,122.7276611328125 L851.1077880859375,122.26051330566406 L851.9952392578125,121.58538818359375 L852.966796875,120.78984832763672 L853.872314453125,119.92596435546875 L854.596435546875,119.06346893310547 L855.0657958984375,118.25074768066406 L855.246826171875,117.54844665527344 L855.125,117.01437377929688 L854.685302734375,116.72282409667969 L853.8997802734375,116.73340606689453 L852.7862548828125,117.09293365478516 L851.432861328125,117.8069839477539 L850.0042724609375,118.84219360351562 L848.723876953125,120.12838745117188 L847.8165283203125,121.57929992675781 L847.426025390625,123.07789611816406 L847.6461181640625,124.5065689086914 L848.482177734375,125.74760437011719 L849.95703125,126.66958618164062 L851.9630126953125,127.1943130493164 L854.299072265625,127.31851196289062 L856.3111572265625,127.20402526855469 L857.6300048828125,127.02848815917969 M866.9759521484375,121.48411560058594 L866.802490234375,121.23451232910156 L866.4510498046875,120.90666198730469 L865.8626708984375,120.6147232055664 L865.03076171875,120.5396499633789 L863.95751953125,120.74085998535156 L862.7247314453125,121.23564147949219 L861.4884033203125,121.97847747802734 L860.4371337890625,122.89871215820312 L859.7314453125,123.88638305664062 L859.48486328125,124.84767150878906 L859.7174072265625,125.6688461303711 L860.403564453125,126.24503326416016 L861.4827880859375,126.4813461303711 L862.8533935546875,126.30786895751953 L864.3958740234375,125.7061767578125 L865.985107421875,124.70709228515625 L867.484375,123.35667419433594 L868.8013916015625,121.72405242919922 L869.9129638671875,119.89169311523438 L870.8203125,117.95296478271484 L871.5377197265625,116.02134704589844 L872.0843505859375,114.21023559570312 L872.464599609375,112.62472534179688 L872.6824951171875,111.3541259765625 L872.7913818359375,110.46420288085938 L872.8082275390625,110.0078353881836 L872.7454833984375,110.02728271484375 L872.5968017578125,110.56364440917969 L872.36279296875,111.63751983642578 L872.0748291015625,113.21333312988281 L871.79345703125,115.17589569091797 L871.55908203125,117.44267272949219 L871.41064453125,119.8443374633789 L871.3406982421875,122.200439453125 L871.321044921875,124.0462875366211 L871.329833984375,125.1736068725586 M891.3079833984375,113.54410552978516 L891.3646240234375,113.82330322265625 L891.4161376953125,114.41804504394531 L891.3985595703125,115.3850326538086 L891.23681640625,116.65815734863281 L890.898681640625,118.17329406738281 L890.41845703125,119.8332290649414 L889.8704833984375,121.53756713867188 L889.3475341796875,123.14631652832031 L888.92138671875,124.53729248046875 L888.6451416015625,125.5654296875 L888.5482177734375,126.1545181274414 L888.6436767578125,126.2570571899414 L888.9368896484375,125.87931060791016 L889.4471435546875,125.04545593261719 L890.153076171875,123.85942077636719 L891.038330078125,122.44283294677734 L892.0711669921875,120.940673828125 L893.208740234375,119.49283599853516 L894.408935546875,118.22205352783203 L895.6510009765625,117.21112823486328 L896.894287109375,116.53643798828125 L898.0965576171875,116.24156188964844 L899.208740234375,116.3427963256836 L900.1727294921875,116.86639404296875 L900.923828125,117.79762268066406 L901.43359375,119.08702850341797 L901.697509765625,120.63035583496094 L901.745849609375,122.29108428955078 L901.658935546875,123.8946533203125 L901.5245361328125,125.30194854736328 L901.4110107421875,126.29931640625 L901.35205078125,126.85099792480469 M913.8746337890625,118.62089538574219 L913.726806640625,118.37739562988281 L913.3858642578125,118.04805755615234 L912.781982421875,117.75730895996094 L911.9014892578125,117.68728637695312 L910.77197265625,117.93020629882812 L909.46875,118.51183319091797 L908.1275634765625,119.39825439453125 L906.895751953125,120.5345230102539 L905.9173583984375,121.81754302978516 L905.3240966796875,123.12054443359375 L905.197265625,124.31317138671875 L905.547607421875,125.25028991699219 L906.3404541015625,125.81668090820312 L907.4794921875,125.93672943115234 L908.8565673828125,125.59278869628906 L910.3526611328125,124.82608032226562 L911.84326171875,123.74159240722656 L913.20068359375,122.46000671386719 L914.324951171875,121.13257598876953 L915.150634765625,119.9076919555664 L915.6845703125,118.90911102294922 L915.9588623046875,118.21442413330078 L916.0333251953125,117.889404296875 L915.9517822265625,117.96340942382812 L915.743408203125,118.479736328125 L915.429443359375,119.44300842285156 L915.0721435546875,120.76698303222656 L914.7647705078125,122.28358459472656 L914.5955810546875,123.77967834472656 L914.609619140625,125.05011749267578 L914.728271484375,125.91510772705078 L914.855224609375,126.3675308227539 M921.9903564453125,117.43293762207031 L922.1275634765625,117.37036895751953 L922.271484375,117.4162368774414 L922.3349609375,117.71326446533203 L922.2078857421875,118.39930725097656 L921.868896484375,119.4564437866211 L921.3553466796875,120.80712890625 L920.7640380859375,122.3031997680664 L920.1885986328125,123.76073455810547 L919.7357177734375,125.0218505859375 L919.45166015625,125.97753143310547 L919.3372802734375,126.52909851074219 L919.3770751953125,126.63085174560547 L919.5643310546875,126.25837707519531 L919.9189453125,125.42301940917969 L920.4569091796875,124.22147369384766 L921.153076171875,122.79561614990234 L921.98876953125,121.31056213378906 L922.933349609375,119.90914154052734 L923.9669189453125,118.69105529785156 L925.0955810546875,117.75365447998047 L926.2994384765625,117.17887878417969 L927.5235595703125,117.01420593261719 L928.72412109375,117.29561614990234 L929.811767578125,118.00482177734375 L930.6939697265625,119.07648468017578 L931.31982421875,120.43608093261719 L931.6634521484375,121.9612045288086 L931.7647705078125,123.5189208984375 L931.7255859375,124.97179412841797 L931.6376953125,126.20417785644531 L931.5655517578125,127.055908203125 L931.5372314453125,127.5176773071289 M942.334716796875,122.31364440917969 L942.302734375,121.96326446533203 L942.1448974609375,121.44013977050781 L941.7625732421875,120.8555679321289 L941.061767578125,120.3998794555664 L940.0028076171875,120.15281677246094 L938.6278076171875,120.18486785888672 L937.0673828125,120.5043716430664 L935.5084228515625,121.12641906738281 L934.164306640625,122.00066375732422 L933.21630859375,123.05423736572266 L932.780517578125,124.18584442138672 L932.895751953125,125.28041076660156 L933.542236328125,126.20632934570312 L934.64013671875,126.85259246826172 L936.070068359375,127.10859680175781 L937.69482421875,126.93504333496094 L939.3875732421875,126.33073425292969 L941.0205078125,125.32917785644531 L942.4932861328125,123.996826171875 L943.7474365234375,122.41781616210938 L944.759521484375,120.66571807861328 L945.5263671875,118.83883666992188 L946.09033203125,117.03158569335938 L946.486572265625,115.36418914794922 L946.7476806640625,113.94890594482422 L946.9183349609375,112.86632537841797 L947.041015625,112.1798324584961 L947.135009765625,111.92634582519531 L947.201904296875,112.12529754638672 L947.2275390625,112.8200454711914 L947.174072265625,113.98019409179688 L947.0250244140625,115.51298522949219 L946.8111572265625,117.29973602294922 L946.598876953125,119.19979858398438 L946.449462890625,121.08247375488281 L946.451171875,122.87785339355469 L946.62158203125,124.48165893554688 L946.9468994140625,125.80970001220703 L947.28759765625,126.72008514404297 L947.5433349609375,127.20868682861328 M960.8392333984375,120.98853302001953 L960.7340087890625,120.67483520507812 L960.407470703125,120.19840240478516 L959.767578125,119.66729736328125 L958.76953125,119.25548553466797 L957.494384765625,119.03313446044922 L956.1153564453125,119.05308532714844 L954.8616943359375,119.31156158447266 L953.9735107421875,119.822021484375 L953.6658935546875,120.57514953613281 L954.011474609375,121.54487609863281 L954.994873046875,122.68419647216797 L956.4547119140625,123.94609832763672 L958.1373291015625,125.25630187988281 L959.7481689453125,126.54261016845703 L961.02490234375,127.70398712158203 L961.7508544921875,128.66180419921875 L961.8106689453125,129.33924865722656 L961.163818359375,129.7099609375 L959.857666015625,129.78045654296875 L958.0078125,129.5847625732422 L955.8375244140625,129.1625518798828 L953.61962890625,128.58367919921875 L951.607421875,127.9027099609375 L950.033203125,127.15249633789062 L949.0313720703125,126.37816619873047 L948.598388671875,125.62334442138672 L948.55029296875,125.0284423828125 L948.6705322265625,124.66508483886719 M965.078125,129.90829467773438 L965.090576171875,129.91506958007812 L965.11328125,129.91482543945312 L965.137451171875,129.90855407714844 L965.1546630859375,129.89727783203125 " fill="none" stroke="black" stroke-linecap="round" stroke-width="2" /></svg>